<svg width="363" height="105" viewBox="0 0 363 105" fill="none" xmlns="http://www.w3.org/2000/svg">
<path fill-rule="evenodd" clip-rule="evenodd" d="M363 23.4994V22.1125L362.288 20.9923L361.276 20.6186L318.639 18.1969L278.763 16.7756L267.685 14.3894L251.88 11.4061L229.076 7.82569L206.322 5.37624L178.203 3.1332L160.272 1.98704L127.955 0.661775L86.557 0L85.3507 0.998172V2.38359L86.5468 3.38139L121.708 3.86286L121.724 3.86325L154.703 5.10166L154.714 5.10219L171.901 6.05373L171.916 6.05473L206.189 8.75057L206.203 8.7518L221.351 10.2707L236.338 12.2457L251.647 14.766L260.672 16.4961L237.908 16.2274L212.557 16.4422L212.543 16.4425L186.772 17.203L186.76 17.2034L160.743 18.4695L135.949 20.3721L112.046 22.9077L89.6913 26.0429L76.13 28.4635L57.4007 32.6497L41.0238 37.3183L31.2331 40.7797L19.3912 46.1093L16.0136 47.9743L10.2605 51.7185L5.83095 55.4884L4.08048 57.4525L2.38072 59.8863L0.549124 63.8655L0.104291 65.9341L0 68.4769L0.228626 70.45L0.780112 72.3897L1.65403 74.3019L3.12344 76.6117L6.42356 80.1955L11.0175 83.5894L16.9225 86.7397L24.6051 89.9026L33.1196 92.7131L42.8117 95.2507L53.6331 97.4718L65.7917 99.4489L79.056 101.134L93.1174 102.46L107.829 103.37L123.593 103.903L123.608 103.903L140.025 104.06L156.594 103.827L172.949 103.178L189.59 102.085L206.201 100.607L222.293 98.8164L237.526 96.7609L252.32 94.3692L266.458 91.6907L279.596 88.7845L291.466 85.6951L302.376 82.3663L312.614 78.662L321.076 74.972L328.022 71.1655L333.66 67.1697L337.889 63.0143L339.718 60.4236L340.852 58.2319L341.54 55.9931L341.773 53.7263L341.569 50.8985L340.93 48.5876L339.878 46.3079L338.145 43.6172L334.084 39.2732L331.435 37.1438L325.02 33.0053L321.192 30.9411L312.403 26.9211L301.646 22.9482L292.934 20.4646L305.924 21.0032L305.935 21.0037L330.032 22.3896L361.232 25.0095L362.288 24.6196L363 23.4994ZM338.163 49.7663L338.714 51.7596L338.865 53.428L338.693 55.0852L338.108 56.9906L337.202 58.7454L335.964 60.4597L331.921 64.4326L326.447 68.3114L319.628 72.0531L311.263 75.7006L301.965 79.0522L291.113 82.3676L279.293 85.4395L266.21 88.3379L244.784 92.2443L229.838 94.4552L229.822 94.4574L214.212 96.3732L214.198 96.3748L197.829 98.014L197.815 98.0153L181.174 99.306L181.159 99.307L164.735 100.178L164.718 100.179L148.322 100.616L148.307 100.616L131.773 100.652L115.657 100.304L115.641 100.303L100.462 99.5888L100.442 99.5876L86.1431 98.4767L86.1223 98.4748L72.4765 96.9672L72.455 96.9645L59.7609 95.13L48.3254 93.0455L38.1539 90.6821L29.1204 88.0225L21.7541 85.3064L15.3018 82.2892L10.2361 79.1358L6.48354 75.8131L5.13484 74.1713L3.5543 71.2166L2.9118 68.059L3.36109 64.9329L4.01893 63.206L6.05263 59.9688L9.64162 56.3339L14.5915 52.6917L20.8747 49.0313L24.4758 47.2425L32.5929 43.7557L41.4221 40.6502L51.9932 37.5134L63.7085 34.5486L76.3713 31.8261L76.3932 31.8218L89.8873 29.3998L89.9069 29.3966L104.528 27.2319L104.544 27.2298L120.031 25.3187L120.047 25.3169L144.137 22.9537L144.159 22.9519L178.089 20.789L204.113 19.8319L204.126 19.8316L229.441 19.3934L254.543 19.5097L254.552 19.5098L277.695 19.9423L289.322 22.7406L301.239 26.2597L311.043 29.883L315.574 31.8448L323.483 35.8769L329.775 39.9398L334.429 44.0249L337.249 47.7833L338.163 49.7663Z" fill="url(#paint0_linear_370_1126)"/>
<defs>
<linearGradient id="paint0_linear_370_1126" x1="51.779" y1="-17.3086" x2="463.362" y2="60.0074" gradientUnits="userSpaceOnUse">
<stop/>
<stop offset="0.764564" stop-opacity="0"/>
<stop offset="1" stop-opacity="0"/>
</linearGradient>
</defs>
</svg>
