<svg width="349" height="348" viewBox="0 0 349 348" fill="none" xmlns="http://www.w3.org/2000/svg">
<path d="M231.935 102.466L238.005 175.78L244.075 249.093C245.234 263.094 230.802 273.099 218.097 267.103L151.571 235.703L85.0451 204.303C72.3403 198.306 70.8913 180.805 82.4368 172.801L142.893 130.887L203.349 88.974C214.895 80.9696 230.776 88.4653 231.935 102.466Z" fill="black" stroke="black" stroke-width="3.5"/>
<path d="M225.108 87.9982L231.178 161.312L237.248 234.625C238.407 248.626 223.975 258.631 211.271 252.635L144.744 221.235L78.2183 189.835C65.5135 183.838 64.0645 166.337 75.6101 158.333L136.066 116.419L196.522 74.5059C208.068 66.5016 223.949 73.9973 225.108 87.9982Z" fill="white" stroke="black" stroke-width="3.5"/>
</svg>
