<svg width="275" height="279" viewBox="0 0 275 279" fill="none" xmlns="http://www.w3.org/2000/svg">
<path d="M150.283 31.3599L159.206 48.242C162.757 54.9608 171.152 57.4257 177.772 53.6934L194.405 44.3153C201.753 40.1723 210.74 45.9477 210.024 54.353L208.403 73.3792C207.758 80.9512 213.488 87.5634 221.074 88.0025L240.138 89.1059C248.559 89.5933 252.997 99.3106 247.85 105.994L236.201 121.124C231.564 127.145 232.809 135.805 238.954 140.276L254.395 151.511C261.216 156.474 259.696 167.048 251.752 169.888L233.772 176.318C226.616 178.877 222.982 186.835 225.734 193.919L232.65 211.717C235.705 219.581 228.709 227.654 220.491 225.749L201.89 221.437C194.486 219.721 187.126 224.451 185.612 231.898L181.807 250.61C180.126 258.877 169.876 261.886 163.992 255.841L150.675 242.156C145.375 236.71 136.625 236.71 131.325 242.156L118.008 255.841C112.124 261.886 101.874 258.877 100.193 250.61L96.3883 231.898C94.874 224.451 87.5137 219.721 80.1105 221.437L61.5087 225.749C53.2909 227.654 46.2952 219.581 49.3503 211.717L56.2658 193.919C59.018 186.835 55.3835 178.877 48.2277 176.318L30.2476 169.888C22.3045 167.048 20.7842 156.474 27.6053 151.511L43.0458 140.276C49.1908 135.805 50.4359 127.145 45.7995 121.124L34.1496 105.994C29.003 99.3106 33.4407 89.5933 41.8623 89.1059L60.9255 88.0025C68.5123 87.5634 74.2418 80.9512 73.5967 73.3792L71.9759 54.353C71.2599 45.9478 80.2466 40.1723 87.5949 44.3153L104.228 53.6934C110.848 57.4257 119.243 54.9608 122.794 48.2421L131.717 31.3599C135.659 23.9019 146.341 23.9019 150.283 31.3599Z" fill="black" stroke="black" stroke-width="3"/>
<path d="M143.283 21.3599L152.206 38.242C155.757 44.9608 164.152 47.4257 170.772 43.6934L187.405 34.3153C194.753 30.1723 203.74 35.9477 203.024 44.353L201.403 63.3792C200.758 70.9512 206.488 77.5634 214.074 78.0025L233.138 79.1059C241.559 79.5933 245.997 89.3106 240.85 95.9944L229.201 111.124C224.564 117.145 225.809 125.805 231.954 130.276L247.395 141.511C254.216 146.474 252.696 157.048 244.752 159.888L226.772 166.318C219.616 168.877 215.982 176.835 218.734 183.919L225.65 201.717C228.705 209.581 221.709 217.654 213.491 215.749L194.89 211.437C187.486 209.721 180.126 214.451 178.612 221.898L174.807 240.61C173.126 248.877 162.876 251.886 156.992 245.841L143.675 232.156C138.375 226.71 129.625 226.71 124.325 232.156L111.008 245.841C105.124 251.886 94.8744 248.877 93.1934 240.61L89.3883 221.898C87.874 214.451 80.5137 209.721 73.1105 211.437L54.5087 215.749C46.2909 217.654 39.2952 209.581 42.3503 201.717L49.2658 183.919C52.018 176.835 48.3835 168.877 41.2277 166.318L23.2476 159.888C15.3045 157.048 13.7842 146.474 20.6053 141.511L36.0458 130.276C42.1908 125.805 43.4359 117.145 38.7995 111.124L27.1496 95.9944C22.003 89.3106 26.4407 79.5933 34.8623 79.1059L53.9255 78.0025C61.5123 77.5634 67.2418 70.9512 66.5967 63.3792L64.9759 44.353C64.2599 35.9478 73.2466 30.1723 80.5949 34.3153L97.2284 43.6934C103.848 47.4257 112.243 44.9608 115.794 38.2421L124.717 21.3599C128.659 13.9019 139.341 13.9019 143.283 21.3599Z" fill="white" stroke="black" stroke-width="3"/>
</svg>
