<svg width="118" height="42" viewBox="0 0 118 42" fill="none" xmlns="http://www.w3.org/2000/svg">
<g clip-path="url(#clip0_370_1128)">
<path d="M16.7594 15.4211C17.4705 14.0184 17.8267 12.4142 17.8267 10.6086C17.8267 10.5548 17.8223 10.3922 17.8133 10.1176C17.8044 9.84303 17.791 9.63562 17.7731 9.49385H11.0094V12.0023H14.3786C14.2191 13.0991 13.9105 14.0139 13.4498 14.7437C12.9907 15.4734 12.3973 16.018 11.6728 16.3762C10.9483 16.7343 10.103 16.9089 9.13998 16.9C7.85791 16.8821 6.7905 16.5851 5.93777 16.0106C5.08504 15.4361 4.4455 14.6317 4.02063 13.6006C3.59576 12.5694 3.38406 11.3547 3.38406 9.95643C3.38406 8.55817 3.59874 7.336 4.0266 6.2929C4.45594 5.24831 5.09399 4.43953 5.94374 3.86351C6.79199 3.28899 7.85791 3.00992 9.13998 3.02782C10.4131 3.02782 11.4611 3.36658 12.2825 4.04407C13.1054 4.72156 13.6973 5.62587 14.0596 6.7585L17.3214 6.24069C16.8354 4.26791 15.9051 2.73384 14.5291 1.64C13.1546 0.547662 11.2912 0 8.93871 0C7.24071 0 5.71565 0.395446 4.36352 1.18784C3.01138 1.98024 1.94546 3.11737 1.16727 4.59919C0.389087 6.08251 0 7.86725 0 9.95643C0 11.5502 0.229581 12.9634 0.690232 14.1975C1.14939 15.4316 1.78893 16.4747 2.60737 17.3238C3.42581 18.1729 4.37544 18.8175 5.45924 19.2548C6.54154 19.6935 7.70286 19.9114 8.9402 19.9114C10.7873 19.9114 12.375 19.5129 13.7018 18.7161C15.0286 17.9192 16.0468 16.8194 16.7594 15.4167V15.4211Z" fill="white"/>
<path d="M31.9117 13.2379H33.477C33.6008 11.5218 33.4099 10.0296 32.906 8.76411C32.4022 7.49867 31.6299 6.51825 30.5923 5.82285C29.5533 5.12745 28.2906 4.78125 26.8058 4.78125C25.4 4.78125 24.1626 5.10058 23.0922 5.73778C22.0219 6.37498 21.187 7.27184 20.5862 8.42686C19.9855 9.58188 19.6843 10.9428 19.6843 12.5097C19.6843 13.9617 19.9914 15.2451 20.6056 16.3598C21.2198 17.4745 22.0755 18.3475 23.1713 18.9757C24.267 19.604 25.5401 19.9188 26.9906 19.9188C28.4412 19.9188 29.6323 19.5607 30.7772 18.8429C31.9221 18.1266 32.7689 17.1208 33.3175 15.83L30.1615 14.8735C29.8514 15.5375 29.4117 16.0434 28.8422 16.3941C28.2712 16.7433 27.5929 16.9179 26.8058 16.9179C25.5863 16.9179 24.6576 16.5195 24.021 15.7226C23.5216 15.0973 23.2205 14.2676 23.1131 13.2394H31.9117V13.2379ZM26.9384 7.58225C28.0968 7.58225 28.945 7.94039 29.4847 8.65817C29.8678 9.16703 30.1168 9.88929 30.2316 10.822H23.1892C23.3352 9.99375 23.6125 9.31774 24.021 8.79694C24.6576 7.98664 25.6295 7.58225 26.9384 7.58225Z" fill="white"/>
<path d="M45.9563 12.6142V19.5174H49.1928V11.5114C49.1928 11.1667 49.1644 10.7175 49.1063 10.1639C49.0482 9.61027 48.9229 9.0238 48.7276 8.40451C48.5338 7.78521 48.2327 7.20174 47.8257 6.65258C47.4187 6.10342 46.8701 5.65275 46.1814 5.29908C45.4912 4.94541 44.6161 4.76782 43.5561 4.76782C42.2115 4.76782 41.0799 5.06182 40.1601 5.65127C39.6667 5.96763 39.2388 6.34365 38.8736 6.77641V5.17969H36.0217V19.5174H39.2582V12.1486C39.2582 11.2726 39.3551 10.5534 39.5504 9.99077C39.7442 9.42819 40.0036 8.98649 40.3256 8.66267C40.6476 8.33884 41.0084 8.11201 41.4064 7.97919C41.8045 7.84638 42.207 7.78075 42.614 7.78075C43.3742 7.78075 43.978 7.94487 44.4238 8.27167C44.8695 8.59997 45.2064 9.01783 45.4315 9.5267C45.6566 10.0356 45.8012 10.5653 45.8624 11.113C45.9235 11.6621 45.9548 12.162 45.9548 12.6127L45.9563 12.6142Z" fill="white"/>
<path d="M65.2529 15.8271L62.097 14.8705C61.7869 15.5346 61.3471 16.0405 60.7776 16.3912C60.2066 16.7403 59.5283 16.9149 58.7412 16.9149C57.5218 16.9149 56.593 16.5165 55.9564 15.7196C55.457 15.0944 55.1559 14.2647 55.0485 13.2365H65.4124C65.5362 11.5204 65.3454 10.0281 64.8415 8.76265C64.3376 7.4972 63.5654 6.51679 62.5278 5.82139C61.4887 5.12599 60.226 4.77979 58.7412 4.77979C57.3354 4.77979 56.0981 5.09912 55.0277 5.73632C53.9573 6.37352 53.1225 7.27038 52.5217 8.42539C51.9209 9.58041 51.6198 10.9414 51.6198 12.5083C51.6198 13.9602 51.9269 15.2436 52.5411 16.3583C53.1553 17.4731 54.011 18.346 55.1067 18.9743C56.2024 19.6025 57.4755 19.9174 58.9261 19.9174C60.3766 19.9174 61.5677 19.5592 62.7126 18.8415C63.8576 18.1252 64.7043 17.1194 65.2529 15.8286V15.8271ZM58.8739 7.58228C60.0322 7.58228 60.8805 7.94041 61.4201 8.6582C61.8033 9.16706 62.0522 9.88932 62.167 10.822H55.1246C55.2707 9.99378 55.548 9.31777 55.9564 8.79697C56.593 7.98666 57.565 7.58228 58.8739 7.58228Z" fill="white"/>
<path d="M71.5918 12.2291C71.5918 11.6799 71.6573 11.1696 71.79 10.695C71.9227 10.222 72.1284 9.79967 72.4072 9.4266C72.686 9.05354 73.0453 8.74913 73.488 8.51037C73.9293 8.24474 74.4272 8.08953 74.9803 8.04625C75.5334 8.00148 76.0208 8.04178 76.4457 8.16564V5.17811C76.0208 5.10797 75.5841 5.0871 75.1324 5.11843C74.6821 5.14977 74.2409 5.23333 73.813 5.37062C73.3837 5.50791 72.9931 5.69594 72.6397 5.9347C72.2238 6.19137 71.8675 6.51669 71.5724 6.91065C71.4382 7.08973 71.3174 7.27776 71.2071 7.47324V5.17811H68.3821V19.5159H71.5918V12.2276V12.2291Z" fill="white"/>
<path d="M82.6398 19.9158C83.9309 19.9158 85.0072 19.6741 85.8689 19.1921C86.5323 18.8205 87.1315 18.2848 87.6652 17.5849V19.5174H90.4634V10.716C90.4634 10.0967 90.4366 9.52366 90.3844 8.99689C90.3308 8.47012 90.1772 7.95527 89.9208 7.45088C89.4527 6.50329 88.7342 5.82282 87.7652 5.40647C86.7976 4.99013 85.6766 4.78271 84.4034 4.78271C82.7144 4.78271 81.3727 5.1498 80.3783 5.88399C79.384 6.61819 78.7087 7.59265 78.3553 8.80438L81.2728 9.72065C81.5113 8.98646 81.9317 8.46862 82.5325 8.16718C83.1333 7.86574 83.7564 7.71501 84.4019 7.71501C85.4723 7.71501 86.2326 7.94929 86.6828 8.41787C87.057 8.80735 87.2717 9.38042 87.3283 10.131C86.7514 10.2161 86.1879 10.2981 85.6423 10.3757C84.7359 10.5041 83.8966 10.6429 83.1228 10.7936C82.3491 10.9443 81.6753 11.1114 81.0998 11.298C80.3396 11.5546 79.7209 11.8844 79.2423 12.2874C78.7653 12.6903 78.4105 13.1678 78.1809 13.7214C77.9513 14.275 77.8365 14.8958 77.8365 15.5867C77.8365 16.3747 78.0199 17.0954 78.3866 17.7505C78.7534 18.4056 79.2945 18.9294 80.0116 19.3234C80.7287 19.7174 81.6037 19.9143 82.6383 19.9143L82.6398 19.9158ZM81.1744 14.7377C81.3115 14.5078 81.5084 14.3034 81.7648 14.1273C82.0212 13.9497 82.3357 13.796 82.7069 13.6632C83.0871 13.5394 83.5254 13.426 84.0203 13.3245C84.5152 13.223 85.1071 13.1141 85.7973 12.9992C86.2386 12.926 86.7365 12.8454 87.2911 12.7559C87.2851 12.9992 87.2762 13.2767 87.2642 13.5886C87.2419 14.1154 87.1465 14.5824 86.9795 14.9898C86.8737 15.3181 86.6679 15.6673 86.3623 16.0389C86.0567 16.4105 85.6482 16.7254 85.1354 16.982C84.6226 17.2387 84.0039 17.3671 83.2779 17.3671C82.774 17.3671 82.3521 17.2879 82.0107 17.1283C81.6693 16.9686 81.4114 16.7552 81.2355 16.4851C81.0581 16.215 80.9702 15.9031 80.9702 15.5494C80.9702 15.239 81.0387 14.9704 81.1759 14.7391L81.1744 14.7377Z" fill="white"/>
<path d="M102.308 7.68816V5.17964H98.1038V1.19678H94.921V5.17964H92.321V7.68816H94.921V13.6617C94.921 14.4765 94.9299 15.2062 94.9478 15.8524C94.9657 16.4985 95.1371 17.1312 95.4651 17.7505C95.8363 18.4325 96.3804 18.9294 97.096 19.2443C97.8116 19.5592 98.6226 19.7263 99.529 19.7487C100.435 19.7711 101.361 19.6935 102.308 19.5159V16.8343C101.415 16.9671 100.619 17.0029 99.921 16.9402C99.2219 16.8791 98.7135 16.5821 98.396 16.0509C98.2275 15.7763 98.1381 15.4226 98.1247 14.9883C98.1113 14.5541 98.1053 14.0497 98.1053 13.4752V7.68667H102.309L102.308 7.68816Z" fill="white"/>
<path d="M114.781 5.82285C113.742 5.12745 112.479 4.78125 110.995 4.78125C109.589 4.78125 108.351 5.10058 107.281 5.73778C106.211 6.37498 105.376 7.27184 104.775 8.42686C104.174 9.58188 103.873 10.9428 103.873 12.5097C103.873 13.9617 104.18 15.2451 104.794 16.3598C105.409 17.4745 106.264 18.3475 107.36 18.9757C108.456 19.604 109.729 19.9188 111.179 19.9188C112.63 19.9188 113.821 19.5607 114.966 18.8429C116.111 18.1266 116.958 17.1208 117.506 15.83L114.35 14.8735C114.04 15.5375 113.6 16.0434 113.031 16.3941C112.46 16.7433 111.782 16.9179 110.995 16.9179C109.775 16.9179 108.846 16.5195 108.21 15.7226C107.71 15.0973 107.409 14.2676 107.302 13.2394H117.666C117.789 11.5233 117.599 10.0311 117.095 8.76561C116.591 7.50016 115.819 6.51974 114.781 5.82435V5.82285ZM111.127 7.58225C112.286 7.58225 113.134 7.94039 113.673 8.65817C114.057 9.16703 114.306 9.88929 114.42 10.822H107.378C107.524 9.99375 107.801 9.31774 108.21 8.79694C108.846 7.98664 109.818 7.58225 111.127 7.58225Z" fill="white"/>
<path d="M5.22083 22.7988H2.07678V41.6074H13.52V38.6542H5.22083V22.7988Z" fill="white"/>
<path d="M26.8429 29.7333C26.3823 28.8021 25.6756 28.1306 24.723 27.7217C23.7704 27.3129 22.6672 27.1084 21.415 27.1084C19.7528 27.1084 18.4334 27.4695 17.4555 28.1918C16.4775 28.914 15.8141 29.8721 15.4653 31.0659L18.3365 31.9672C18.5721 31.245 18.985 30.7346 19.5768 30.4392C20.1687 30.1437 20.7814 29.9945 21.4165 29.9945C22.469 29.9945 23.2173 30.2258 23.6601 30.6869C24.0283 31.0704 24.2385 31.6345 24.2952 32.3731C23.7272 32.4567 23.1726 32.5373 22.6359 32.6134C21.7444 32.7403 20.9185 32.8775 20.1567 33.0253C19.395 33.173 18.7316 33.3387 18.1666 33.5222C17.4182 33.7744 16.81 34.0997 16.3404 34.4951C15.8708 34.8921 15.5219 35.3622 15.2968 35.9054C15.0702 36.45 14.9569 37.0618 14.9569 37.7408C14.9569 38.5153 15.1373 39.2256 15.4981 39.8703C15.8588 40.515 16.3925 41.0313 17.0962 41.4178C17.7998 41.8043 18.6615 41.9998 19.6797 41.9998C20.9499 41.9998 22.0083 41.7625 22.8565 41.288C23.5095 40.9224 24.0984 40.3941 24.6246 39.7077V41.6088H27.3781V32.9492C27.3781 32.3403 27.3527 31.7762 27.2991 31.2584C27.2469 30.7406 27.0949 30.2332 26.8429 29.7363V29.7333ZM23.9463 37.1529C23.842 37.4752 23.6392 37.8185 23.3396 38.1841C23.0399 38.5497 22.6374 38.8586 22.132 39.1108C21.6281 39.363 21.0184 39.4898 20.3058 39.4898C19.8094 39.4898 19.395 39.4107 19.0595 39.254C18.7241 39.0973 18.4707 38.8869 18.2963 38.6198C18.1218 38.3542 18.0354 38.0468 18.0354 37.6991C18.0354 37.3947 18.1025 37.129 18.2381 36.9022C18.3723 36.6754 18.5661 36.4754 18.818 36.3008C19.07 36.1262 19.3786 35.974 19.7438 35.8442C20.118 35.7218 20.5488 35.6114 21.0363 35.5114C21.5238 35.4114 22.1067 35.304 22.785 35.1921C23.2188 35.1204 23.7093 35.0398 24.2534 34.9533C24.2475 35.192 24.2385 35.4651 24.2266 35.7725C24.2042 36.2904 24.1118 36.75 23.9463 37.1499V37.1529Z" fill="white"/>
<path d="M40.8891 28.0815C39.9111 27.4323 38.7557 27.1085 37.4245 27.1085C36.0932 27.1085 34.9602 27.4323 34.0508 28.0815C34.0031 28.1158 33.9599 28.1516 33.9137 28.1874V22.7988H30.7428V41.6074H33.5216V40.5673C33.699 40.7285 33.8839 40.8807 34.0821 41.0195C35.0124 41.6731 36.1648 41.9984 37.5407 41.9984C38.8362 41.9984 39.9677 41.6716 40.9338 41.0195C41.8998 40.3659 42.6482 39.4779 43.1774 38.3543C43.7081 37.2306 43.9735 35.9636 43.9735 34.5535C43.9735 33.1433 43.7036 31.8524 43.164 30.7332C42.6243 29.614 41.8655 28.7306 40.8876 28.0815H40.8891ZM40.2629 36.8978C40.0065 37.5992 39.6129 38.1543 39.0822 38.5632C38.5515 38.972 37.8777 39.1765 37.0592 39.1765C36.2408 39.1765 35.5342 38.9825 35.0169 38.596C34.4996 38.208 34.1209 37.6663 33.8809 36.9694C33.6409 36.2725 33.5216 35.4667 33.5216 34.5535C33.5216 33.6402 33.6409 32.8224 33.8809 32.13C34.1194 31.4376 34.4921 30.8974 34.996 30.5109C35.4999 30.1229 36.1528 29.9304 36.9534 29.9304C37.7972 29.9304 38.4934 30.1378 39.0405 30.5512C39.5891 30.9645 39.9931 31.5226 40.254 32.2225C40.5149 32.9239 40.6461 33.7014 40.6461 34.5535C40.6461 35.4055 40.5178 36.1964 40.2614 36.8978H40.2629Z" fill="white"/>
<path d="M55.8685 34.2459C55.1947 33.8759 54.2958 33.5476 53.1747 33.2596C52.079 32.9805 51.2546 32.7462 50.7015 32.5537C50.1484 32.3627 49.7817 32.1702 49.5983 31.9792C49.4149 31.7882 49.324 31.5569 49.324 31.2868C49.324 30.8077 49.5506 30.4362 50.0023 30.1705C50.454 29.9049 51.0503 29.7945 51.7898 29.8378C52.5635 29.881 53.1836 30.0781 53.6488 30.4258C54.1139 30.7735 54.3867 31.248 54.4642 31.8493L57.6739 31.2748C57.5516 30.4302 57.2296 29.6945 56.7079 29.0678C56.1861 28.441 55.5003 27.9575 54.6521 27.6173C53.8038 27.277 52.8318 27.1084 51.7361 27.1084C50.6404 27.1084 49.6401 27.2845 48.8127 27.6367C47.9868 27.9888 47.3428 28.4918 46.8821 29.1454C46.4215 29.799 46.1904 30.5645 46.1904 31.4435C46.1904 32.1493 46.3425 32.7492 46.6466 33.2461C46.9507 33.7431 47.4516 34.1713 48.1478 34.5324C48.844 34.8936 49.7832 35.2308 50.9669 35.5442C52.0283 35.8233 52.8154 36.0531 53.3282 36.2366C53.8411 36.4202 54.1735 36.6082 54.3271 36.8052C54.4791 37.0007 54.5552 37.2603 54.5552 37.5827C54.5552 38.105 54.348 38.5168 53.935 38.8168C53.5221 39.1167 52.9362 39.2675 52.1804 39.2675C51.3187 39.2675 50.6061 39.0675 50.0411 38.6661C49.4761 38.2661 49.1108 37.717 48.9454 37.0201L45.7357 37.517C45.9713 38.9361 46.6317 40.0375 47.7184 40.8209C48.8052 41.6043 50.2185 41.9968 51.9597 41.9968C53.701 41.9968 55.2022 41.5924 56.2338 40.7821C57.2654 39.9718 57.7797 38.8586 57.7797 37.4379C57.7797 36.7067 57.6292 36.0844 57.3295 35.5696C57.0299 35.0563 56.5424 34.6145 55.8685 34.2445V34.2459Z" fill="white"/>
<path d="M76.4666 37.5545C74.9863 34.8117 73.5044 32.0689 72.0271 29.3246C71.9689 29.2157 71.9376 29.0933 71.9376 28.9695C71.9331 27.2683 71.9197 25.5656 71.9406 23.8644C71.948 23.2033 71.4844 22.7915 70.8672 22.7989C69.2721 22.8168 67.6785 22.8049 66.0833 22.8049C65.4095 22.8049 65.0368 23.175 65.0368 23.8465C65.0368 25.5552 65.0383 27.2638 65.0323 28.9725C65.0323 29.0963 65.001 29.2187 64.9414 29.3291C63.3507 32.2823 61.7556 35.2325 60.162 38.1828C59.6894 39.0572 59.7147 39.9138 60.3125 40.733C60.636 41.1747 61.128 41.4449 61.6617 41.5657C61.6781 41.5687 61.6945 41.5732 61.7109 41.5777C61.775 41.5956 61.8421 41.606 61.9092 41.606H75.0265C75.1085 41.606 75.189 41.5926 75.2665 41.5672C75.5334 41.4747 75.8122 41.4016 76.0507 41.2613C76.6694 40.8972 77.0152 40.3331 77.1077 39.6168C77.1092 39.6049 77.1121 39.5929 77.1151 39.5825C77.1345 39.5139 77.1375 39.4422 77.1375 39.3706V39.2378C77.1375 39.202 77.136 39.1647 77.13 39.1288C77.048 38.5469 76.7364 38.0589 76.4651 37.5545H76.4666ZM68.6668 29.3246C68.6758 29.3022 68.6922 29.2918 68.7161 29.2858C68.7921 29.2649 68.8666 29.2441 68.9426 29.2217C69.1588 29.1545 69.3079 29.0142 69.3809 28.7979C69.4093 28.7173 69.4301 28.6337 69.4525 28.5501C69.4585 28.5278 69.4704 28.5128 69.4913 28.5039H69.5077C69.53 28.5113 69.5404 28.5278 69.5464 28.5501C69.5673 28.6263 69.5867 28.7024 69.6105 28.777C69.6836 29.0083 69.8386 29.159 70.0712 29.2262C70.1427 29.247 70.2158 29.2679 70.2873 29.2873C70.3157 29.2948 70.3276 29.3097 70.3291 29.3306C70.3291 29.353 70.3157 29.3679 70.2873 29.3769C70.2009 29.4022 70.1129 29.4231 70.0279 29.453C69.8103 29.5291 69.6702 29.6813 69.606 29.9022C69.5852 29.9753 69.5643 30.0484 69.5434 30.12C69.536 30.1484 69.5211 30.1633 69.4987 30.1618C69.4764 30.1618 69.4614 30.1484 69.454 30.1185C69.4301 30.0335 69.4093 29.9484 69.3809 29.8648C69.3079 29.65 69.1603 29.5082 68.9426 29.441C68.8681 29.4172 68.7921 29.3963 68.7161 29.3769C68.6937 29.3709 68.6758 29.3605 68.6668 29.3381V29.3216V29.3246ZM67.8708 33.5328C67.8887 33.4896 67.9215 33.4702 67.9662 33.4582C68.1138 33.4179 68.2629 33.3777 68.4089 33.3314C68.8338 33.2001 69.123 32.924 69.2661 32.5017C69.3198 32.342 69.3615 32.1793 69.4063 32.0167C69.4182 31.9734 69.4406 31.9421 69.4823 31.9271H69.5151C69.5568 31.9421 69.5792 31.9734 69.5911 32.0167C69.6314 32.1644 69.6716 32.3137 69.7179 32.4599C69.861 32.9135 70.1636 33.2075 70.6198 33.3403C70.7599 33.3806 70.9015 33.4209 71.0431 33.4612C71.0968 33.4761 71.1237 33.5045 71.1237 33.5478C71.1237 33.591 71.0983 33.6209 71.0417 33.6373C70.8732 33.6865 70.7003 33.7269 70.5348 33.785C70.1084 33.9343 69.8356 34.2312 69.7089 34.6655C69.6672 34.8072 69.6269 34.9505 69.5866 35.0937C69.5702 35.1504 69.5419 35.1773 69.4987 35.1773C69.4555 35.1773 69.4271 35.1504 69.4107 35.0937C69.363 34.9281 69.3213 34.761 69.2661 34.5983C69.123 34.176 68.8338 33.9014 68.4089 33.7686C68.2629 33.7239 68.1153 33.6821 67.9662 33.6418C67.9215 33.6298 67.8887 33.6089 67.8708 33.5671V33.5343V33.5328ZM65.7762 31.4019C65.7882 31.3735 65.809 31.3616 65.8374 31.3526C65.9328 31.3273 66.0282 31.3004 66.1221 31.2706C66.3949 31.1855 66.5812 31.0079 66.6737 30.7363C66.708 30.6333 66.7348 30.5289 66.7646 30.4244C66.7721 30.3961 66.787 30.3767 66.8138 30.3662H66.8347C66.8615 30.3767 66.8764 30.3961 66.8839 30.4244C66.9092 30.52 66.936 30.6154 66.9659 30.7095C67.0583 31.0019 67.2536 31.19 67.5473 31.2765C67.6382 31.3034 67.7292 31.3288 67.8201 31.3541C67.8544 31.3646 67.8723 31.3825 67.8723 31.4093C67.8723 31.4377 67.8559 31.4571 67.8201 31.4675C67.7113 31.4989 67.6009 31.5257 67.4936 31.563C67.2193 31.66 67.0434 31.8511 66.9614 32.1301C66.9346 32.2211 66.9092 32.3136 66.8824 32.4062C66.872 32.442 66.8526 32.4599 66.8257 32.4599C66.7989 32.4599 66.7795 32.442 66.7691 32.4062C66.7378 32.3002 66.7124 32.1913 66.6767 32.0868C66.5842 31.8152 66.3979 31.6376 66.1251 31.5526C66.0312 31.5227 65.9357 31.4974 65.8403 31.4705C65.812 31.4631 65.7911 31.4496 65.7792 31.4213V31.4004L65.7762 31.4019ZM74.1827 39.399C74.0083 39.5004 73.7787 39.5452 73.5745 39.5467C72.7247 39.5527 71.875 39.5542 71.0268 39.5542C70.177 39.5542 69.3273 39.5542 68.479 39.5542C67.6308 39.5542 66.7736 39.5542 65.9223 39.5542C65.0696 39.5542 64.2169 39.5542 63.3656 39.5542C62.8871 39.5542 62.5666 39.3482 62.416 38.9483C62.3117 38.6722 62.3519 38.4051 62.4906 38.1529C62.8975 37.4142 63.3045 36.6756 63.7205 35.9429C63.9202 35.5907 64.2348 35.4295 64.6403 35.4698C65.3543 35.5414 66.0073 35.822 66.6677 36.0742C67.3564 36.3368 68.0422 36.6144 68.7429 36.8382C69.5643 37.1024 70.3872 36.9994 71.1848 36.7009C71.556 36.5621 71.9138 36.386 72.2715 36.2144C72.7739 35.9727 73.3777 36.1637 73.6505 36.6517C73.9263 37.1441 74.2036 37.6366 74.4719 38.1335C74.7373 38.6215 74.633 39.1393 74.1857 39.4004L74.1827 39.399Z" fill="white"/>
<path d="M113.247 22.957H85.7079C84.809 22.957 84.0174 23.5539 83.7699 24.418L79.6479 38.7855C79.2782 40.0763 80.2457 41.3612 81.5859 41.3612H109.41C110.324 41.3612 111.123 40.7464 111.358 39.8645L115.197 25.4969C115.54 24.215 114.574 22.957 113.249 22.957H113.247ZM86.0642 35.1504H84.6137V33.6984H86.0642V35.1504ZM93.3079 35.1504L92.7236 33.3164H89.3917L88.8147 35.1504H87.3582L90.0252 26.6817H92.0989L94.7659 35.1504H93.3094H93.3079ZM101.409 33.6864C101.17 34.1923 100.833 34.5923 100.398 34.8862C99.9628 35.1802 99.4544 35.3279 98.87 35.3279C98.2514 35.3279 97.7326 35.1802 97.3136 34.8862C97.2868 34.8683 97.263 34.8475 97.2376 34.8281V37.9737H95.8095V28.7993H97.0602V29.2544C97.1362 29.1858 97.2138 29.1201 97.2988 29.0604C97.7087 28.7679 98.2141 28.6217 98.8179 28.6217C99.4216 28.6217 99.9374 28.7679 100.377 29.0604C100.818 29.3529 101.16 29.7498 101.403 30.2542C101.646 30.7586 101.767 31.3316 101.767 31.9748C101.767 32.618 101.647 33.1806 101.409 33.6864ZM108.647 33.6864C108.408 34.1923 108.071 34.5923 107.636 34.8862C107.2 35.1802 106.692 35.3279 106.108 35.3279C105.489 35.3279 104.97 35.1802 104.551 34.8862C104.525 34.8683 104.501 34.8475 104.475 34.8281V37.9737H103.047V28.7993H104.298V29.2544C104.374 29.1858 104.452 29.1201 104.537 29.0604C104.946 28.7679 105.452 28.6217 106.056 28.6217C106.659 28.6217 107.175 28.7679 107.615 29.0604C108.056 29.3529 108.398 29.7498 108.641 30.2542C108.884 30.7586 109.004 31.3316 109.004 31.9748C109.004 32.618 108.885 33.1806 108.647 33.6864Z" fill="white"/>
<path d="M106.785 30.1738C106.537 29.9873 106.224 29.8948 105.844 29.8948C105.483 29.8948 105.189 29.9813 104.963 30.1559C104.736 30.3305 104.568 30.5737 104.46 30.8856C104.353 31.1975 104.299 31.5616 104.299 31.9765C104.299 32.3913 104.353 32.751 104.46 33.0644C104.568 33.3777 104.739 33.6225 104.972 33.7971C105.204 33.9716 105.511 34.0582 105.892 34.0582C106.272 34.0582 106.562 33.9657 106.802 33.7822C107.041 33.5971 107.218 33.3479 107.335 33.033C107.449 32.7167 107.508 32.366 107.508 31.978C107.508 31.59 107.449 31.2438 107.332 30.9289C107.214 30.614 107.032 30.3618 106.786 30.1768L106.785 30.1738Z" fill="white"/>
<path d="M99.5468 30.1738C99.2993 29.9873 98.9863 29.8948 98.6061 29.8948C98.2453 29.8948 97.9516 29.9813 97.725 30.1559C97.4984 30.3305 97.33 30.5737 97.2227 30.8856C97.1153 31.1975 97.0616 31.5616 97.0616 31.9765C97.0616 32.3913 97.1153 32.751 97.2227 33.0644C97.33 33.3777 97.5014 33.6225 97.734 33.7971C97.9666 33.9716 98.2736 34.0582 98.6538 34.0582C99.0339 34.0582 99.3247 33.9657 99.5647 33.7822C99.8032 33.5971 99.9806 33.3479 100.097 33.033C100.212 32.7167 100.27 32.366 100.27 31.978C100.27 31.59 100.212 31.2438 100.094 30.9289C99.9761 30.614 99.7942 30.3618 99.5483 30.1768L99.5468 30.1738Z" fill="white"/>
<path d="M89.8075 31.9943H92.3016L91.0463 28.0547L89.8075 31.9943Z" fill="white"/>
</g>
<defs>
<clipPath id="clip0_370_1128">
<rect width="118" height="42" fill="white"/>
</clipPath>
</defs>
</svg>
