<svg width="216" height="12" viewBox="0 0 216 12" fill="none" xmlns="http://www.w3.org/2000/svg">
<path d="M198 2.86284C193.338 2.61082 188.596 2.35809 183.854 2.10536C182.327 2.02159 180.719 2.00748 179.192 1.9237C175.815 1.8237 172.439 1.7237 169.063 1.62371C167.214 1.53711 165.284 1.52018 163.435 1.43358C162.873 1.42865 162.31 1.42371 161.827 1.41947C160.621 1.40889 159.415 1.39831 158.129 1.38702C152.581 1.33834 147.034 1.28966 141.486 1.24098C140.2 1.22969 138.833 1.2177 137.546 1.27678C134.249 1.31822 131.033 1.29 127.736 1.33144C124.037 1.36936 120.339 1.33691 116.64 1.37482C110.689 1.46335 104.658 1.55117 98.7078 1.6397C95.2501 1.67973 91.7924 1.71976 88.3347 1.7598C82.3836 1.91869 76.4326 2.07759 70.4815 2.23648C67.1841 2.34829 63.9676 2.39044 60.6703 2.50225C54.4771 2.79977 48.2843 3.02692 42.0916 3.25406C38.7942 3.36588 35.4968 3.47769 32.199 3.65986C26.0857 4.02845 19.8916 4.4667 13.7778 4.90566C12.4909 4.96474 11.1232 5.09348 9.75588 5.15186C7.18164 5.34039 4.52606 5.66895 1.87095 5.92714C1.71015 5.92572 1.54888 5.99468 1.38807 5.99327C1.06647 5.99045 0.824326 6.12907 0.581707 6.33805C0.177343 6.68637 0.0137084 7.10716 0.0108752 7.52937C0.00804191 7.95158 0.16601 8.3752 0.566124 8.6602C0.885838 8.94449 1.44723 9.16053 1.84923 9.16406C5.06714 8.91081 8.20513 8.58649 11.423 8.33323C14.3993 8.14823 17.3755 7.96323 20.3518 7.77823C23.5692 7.59535 26.7871 7.3421 30.085 7.15992C31.3718 7.10084 32.6592 6.97139 34.0265 6.91302C39.0931 6.74636 44.0799 6.50863 49.1465 6.34197C52.2831 6.22875 55.4197 6.11553 58.5562 6.00231C59.8431 5.94323 61.13 5.88415 62.4169 5.82507C67.4031 5.65771 72.3889 5.56071 77.3752 5.39335C80.4309 5.34979 83.4066 5.23516 86.4623 5.1916C87.5075 5.20077 88.4728 5.13887 89.518 5.14804C94.9058 5.05457 100.293 5.03147 105.681 4.93801C108.656 4.89374 111.712 4.85018 114.687 4.80592C115.732 4.81509 116.858 4.7546 117.904 4.76377C123.452 4.74208 128.999 4.79076 134.628 4.76978C138.085 4.80012 141.543 4.76009 145 4.79042C150.869 4.84192 156.819 4.89413 162.688 5.016C163.813 5.02588 165.019 5.10683 166.145 5.11671C169.441 5.216 172.656 5.31459 175.952 5.48425C178.363 5.57578 180.855 5.66802 183.267 5.75955C185.035 5.84544 186.723 5.93063 188.491 6.01652C193.555 6.27207 198.699 6.59869 203.762 6.92461C205.048 7.00626 206.334 7.08792 207.62 7.16958C208.986 7.25194 210.433 7.33501 211.799 7.48773C212.04 7.48985 212.2 7.56163 212.441 7.63412C213.003 7.70942 213.486 7.71365 213.97 7.43642C214.454 7.22954 214.778 6.81016 214.942 6.38936C215.27 5.4774 214.633 4.48661 213.509 4.19526C212.546 3.97569 211.582 3.89685 210.698 3.74836C210.056 3.67234 209.413 3.59633 208.77 3.59069C207.484 3.43866 206.198 3.42738 204.993 3.27606C202.742 3.18594 200.331 3.02403 198 2.86284Z" fill="url(#paint0_linear_370_1125)"/>
<defs>
<linearGradient id="paint0_linear_370_1125" x1="107.558" y1="0.943345" x2="198.446" y2="47.0264" gradientUnits="userSpaceOnUse">
<stop/>
<stop offset="1" stop-opacity="0"/>
</linearGradient>
</defs>
</svg>
