<svg width="73" height="64" viewBox="0 0 73 64" fill="none" xmlns="http://www.w3.org/2000/svg">
<path d="M56.3876 22.4341H57.2333C57.2987 22.5426 57.2514 22.7401 57.4642 22.729C57.4782 22.729 57.5088 22.8347 57.5143 22.8917C57.531 23.0851 57.4962 23.2965 57.563 23.4704C57.6479 23.6915 57.7035 23.8473 57.5853 24.1033C57.4698 24.355 57.538 24.6875 57.5101 24.9838C57.5032 25.0617 57.4336 25.1312 57.4003 25.2077C57.3571 25.312 57.3029 25.4177 57.2876 25.529C57.2667 25.6751 57.289 25.8281 57.2681 25.9741C57.257 26.0507 57.193 26.1202 57.1485 26.1897C57.1207 26.2329 57.0748 26.2663 57.0553 26.3122C57.0289 26.3761 57.015 26.4471 57.0024 26.5152C56.9579 26.7698 57.0595 27.041 56.8341 27.2789C56.7381 27.3804 56.7757 27.6086 56.7576 27.7796C56.7409 27.934 56.766 28.0718 56.6199 28.2178C56.5142 28.3235 56.5545 28.5725 56.5253 28.7575C56.4975 28.9314 56.6088 29.1679 56.3111 29.2249C56.2861 29.2291 56.268 29.3195 56.2638 29.3723C56.2499 29.5601 56.2444 29.7479 56.236 29.9371C56.2318 30.0456 56.2485 30.1568 56.0927 30.1916C56.0552 30.2 56.0232 30.3057 56.019 30.3683C56.0065 30.5408 56.0176 30.7132 56.0065 30.8857C55.9981 31.0026 56.0274 31.1444 55.8451 31.1806C55.8145 31.1862 55.7867 31.2835 55.7825 31.3406C55.77 31.5131 55.7728 31.6855 55.7658 31.858C55.7603 31.9846 55.7965 32.1334 55.6017 32.1696C55.5753 32.1752 55.5502 32.26 55.5475 32.3101C55.5377 32.4506 55.5419 32.5925 55.5349 32.733C55.5322 32.7858 55.5322 32.8748 55.5043 32.8874C55.1955 33.0167 55.2762 33.2963 55.2526 33.53C55.2345 33.7094 55.2373 33.8638 55.101 34.0349C54.9897 34.1754 55.0342 34.4383 55.0105 34.6483C54.9966 34.7652 55.037 34.8876 54.8673 34.9571C54.8047 34.9822 54.7977 35.163 54.781 35.2757C54.756 35.4482 54.8339 35.6401 54.5877 35.7486C54.5154 35.7806 54.5237 36.0059 54.5056 36.1437C54.4875 36.2758 54.4973 36.3899 54.3721 36.5123C54.2733 36.6096 54.2942 36.8336 54.2691 37.0019C54.2441 37.1758 54.3011 37.351 54.1092 37.5013C54.016 37.5736 54.0605 37.8128 54.0216 37.9714C54.0007 38.0549 53.9297 38.1244 53.8936 38.2065C53.8393 38.3289 53.7781 38.4527 53.7517 38.5821C53.7211 38.7351 53.7698 38.8881 53.5973 39.0147C53.5152 39.0759 53.5277 39.2748 53.5124 39.4139C53.4985 39.5377 53.5417 39.6545 53.3761 39.7449C53.2857 39.7936 53.2774 39.9925 53.2329 40.1233L53.1828 40.0899C53.1174 40.1803 53.0618 40.2804 52.9853 40.3583C52.8712 40.4724 52.7432 40.5726 52.6194 40.6755C52.6027 40.6894 52.5596 40.688 52.5568 40.6991C52.4942 40.9996 52.2494 40.8827 52.07 40.9133C51.9532 40.9328 51.8363 40.9384 51.8113 41.0997C51.8057 41.1387 51.7083 41.1888 51.6541 41.1888C51.0184 41.1943 50.3813 41.1929 49.7457 41.1832C49.6817 41.1832 49.6079 41.1164 49.5551 41.065C49.4049 40.9175 49.263 40.7617 49.1169 40.6101C49.0988 40.624 49.0808 40.6365 49.0627 40.6505C49.0446 40.4724 49.0321 40.2944 49.0084 40.1163C48.9876 39.9522 49.0168 39.7741 48.8401 39.6531C48.7942 39.6211 48.8095 39.4904 48.8095 39.4055C48.804 38.628 48.8067 37.8518 48.7956 37.0742C48.7914 36.8336 48.8471 36.5693 48.6106 36.3801C48.5758 36.3523 48.5856 36.2619 48.5842 36.1993C48.5758 35.5553 48.5786 34.9112 48.5564 34.2686C48.548 34.0377 48.637 33.7595 48.331 33.6148C48.2921 33.5968 48.2949 33.4702 48.2935 33.3937C48.2837 32.8915 48.2823 32.3894 48.2684 31.8872C48.2643 31.7203 48.274 31.5423 48.1001 31.424C48.0598 31.3976 48.0667 31.2947 48.0598 31.2265C48.0375 31.0081 48.0222 30.7897 47.9944 30.5727C47.9888 30.5282 47.9415 30.4893 47.9137 30.4476C47.8803 30.4921 47.8303 30.5324 47.8177 30.5825C47.7899 30.6965 47.7941 30.8176 47.7593 30.9288C47.7315 31.0193 47.6633 31.0972 47.6174 31.1834C47.5896 31.2349 47.5521 31.2891 47.5465 31.3461C47.5312 31.5103 47.5298 31.6744 47.5229 31.8399C47.5173 31.986 47.5827 32.1529 47.3448 32.2072C47.292 32.2197 47.2641 32.3977 47.2516 32.5034C47.2335 32.6425 47.2433 32.7858 47.2391 32.9263C47.2363 33.0459 47.2627 33.16 47.1056 33.2393C47.036 33.274 47.0263 33.4479 47.011 33.5606C46.9929 33.6997 47.0012 33.843 46.9929 33.9835C46.9901 34.0363 46.9845 34.1253 46.9581 34.1351C46.6966 34.2297 46.7926 34.455 46.7689 34.633C46.7509 34.7652 46.7995 34.9112 46.6076 34.9794C46.5478 35.0003 46.5213 35.1533 46.506 35.2492C46.4866 35.373 46.4991 35.4996 46.488 35.6248C46.4768 35.75 46.4935 35.8696 46.353 35.9726C46.2724 36.031 46.2737 36.2146 46.2571 36.344C46.2418 36.4678 46.2515 36.5943 46.2473 36.7195C46.2459 36.7654 46.2515 36.8433 46.2292 36.8544C45.8912 37.0102 46.0693 37.3163 46.0206 37.5541C45.9872 37.7141 46.0776 37.9297 45.8092 37.9811C45.7799 37.9867 45.7549 38.0883 45.7507 38.1467C45.7382 38.3345 45.734 38.5222 45.7299 38.7114C45.7271 38.8199 45.7299 38.902 45.5991 38.9743C45.5226 39.016 45.5143 39.2052 45.499 39.3304C45.4809 39.4904 45.5504 39.6573 45.3474 39.7769C45.2681 39.8228 45.2681 40.0036 45.1846 40.0899C45.1178 40.1803 45.0552 40.2749 44.9829 40.3611C44.9064 40.4529 44.8341 40.5851 44.7339 40.6143C44.5183 40.6769 44.4529 40.9926 44.1553 40.9203C44.0051 40.8841 43.8173 40.8967 43.7839 41.1345C43.7797 41.1609 43.6823 41.1929 43.6281 41.1929C43.094 41.1957 42.5598 41.1915 42.0257 41.1915C41.9005 41.1915 41.8309 41.1735 41.7711 41.0246C41.7169 40.8883 41.5402 40.7993 41.4164 40.6908C41.3886 40.6671 41.351 40.6518 41.326 40.6254C41.2537 40.5461 41.1869 40.4641 41.1174 40.3834C41.0854 40.3959 41.0534 40.4084 41.0228 40.4209C41.0228 40.0621 41.0256 39.7046 41.0214 39.3457C41.02 39.1969 41.0506 39.0188 40.981 38.9062C40.6236 38.3178 40.8725 37.6793 40.8002 37.0687C40.7766 36.867 40.7905 36.6611 40.7821 36.4566C40.7766 36.3287 40.81 36.1882 40.6291 36.1284C40.5902 36.1158 40.5749 35.992 40.5735 35.9183C40.561 35.3605 40.5651 34.8041 40.5429 34.2463C40.5345 34.0294 40.6097 33.7637 40.3175 33.6371C40.2869 33.6232 40.2855 33.5216 40.2842 33.4618C40.2744 33.1085 40.2703 32.7552 40.2605 32.4019C40.2591 32.3323 40.2563 32.2169 40.223 32.203C39.9837 32.1098 40.0616 31.9095 40.0519 31.7426C40.031 31.3823 40.1131 30.9803 39.9781 30.6715C39.7918 30.2431 39.8557 29.8091 39.7695 29.3862C39.757 29.3223 39.7139 29.2638 39.686 29.2026C39.6499 29.1247 39.5914 29.0468 39.5859 28.9662C39.5664 28.6852 39.5748 28.4014 39.5567 28.119C39.5455 27.9493 39.5775 27.7477 39.3425 27.6725C39.3105 27.6628 39.2966 27.5654 39.2938 27.507C39.2868 27.3498 39.2993 27.1927 39.2868 27.0369C39.2743 26.8936 39.3355 26.7128 39.1129 26.6516C39.0837 26.6432 39.0698 26.5417 39.067 26.4819C39.0559 26.2078 39.0643 25.9324 39.0392 25.6598C39.0309 25.5708 38.946 25.4915 38.9015 25.4038C38.8709 25.3454 38.8334 25.2828 38.8306 25.2202C38.8153 24.9379 38.8153 24.6555 38.8014 24.3731C38.7986 24.3064 38.7777 24.1909 38.7471 24.1839C38.4606 24.1283 38.551 23.9183 38.5454 23.743C38.7986 23.6721 38.9029 23.4537 39.0615 23.2826C39.1867 23.1477 39.2799 22.9056 39.5483 22.9432C39.6693 22.9599 39.8015 22.9654 39.8363 22.7846C39.8432 22.7512 39.9531 22.7178 40.0157 22.7165C40.6361 22.7109 41.2565 22.7123 41.8768 22.7165C41.9269 22.7165 42.0132 22.7318 42.0229 22.7596C42.0799 22.9334 42.2204 22.939 42.3623 22.9529C42.3915 22.9557 42.4444 22.9766 42.443 22.9863C42.4165 23.3466 42.8491 23.526 42.7782 23.9322C42.7156 24.2883 42.7629 24.668 42.7907 25.0352C42.8018 25.1771 42.8964 25.312 42.9451 25.4525C42.9702 25.5235 42.9868 25.6014 42.9882 25.6765C42.998 26.2106 42.998 26.7434 43.0133 27.2775C43.0175 27.4416 42.9938 27.6225 43.1802 27.7365C43.2247 27.763 43.2233 27.8798 43.2247 27.9563C43.2317 28.4278 43.2205 28.8994 43.2428 29.3695C43.2539 29.5921 43.1802 29.8647 43.4765 29.9983C43.5113 30.0136 43.5126 30.1276 43.514 30.1972C43.5196 30.6131 43.5126 31.029 43.5265 31.4449C43.5335 31.6313 43.5001 31.8413 43.7129 31.9679C43.7505 31.9902 43.7463 32.0987 43.7477 32.1668C43.7547 32.5827 43.7477 32.9986 43.7672 33.4145C43.7714 33.5091 43.866 33.5981 43.9105 33.6927C43.9411 33.7595 43.9731 33.8304 43.9772 33.9014C43.9995 34.3395 44.019 34.7777 44.0287 35.2173C44.0329 35.4329 44.1636 35.469 44.3347 35.4802C44.4808 35.4899 44.5587 35.4412 44.5559 35.284C44.5531 35.1352 44.5503 34.985 44.567 34.8375C44.5837 34.6789 44.5169 34.4856 44.7423 34.398C44.7784 34.3841 44.7882 34.2714 44.791 34.2032C44.8007 33.9445 44.7937 33.6844 44.8132 33.4271C44.8188 33.3519 44.8939 33.2838 44.9328 33.2101C44.9662 33.1475 45.0205 33.0821 45.0219 33.0167C45.0316 32.751 45.026 32.484 45.026 32.2016C45.3168 32.196 45.314 32.0013 45.3181 31.8107C45.3209 31.7092 45.3181 31.6063 45.3209 31.5047C45.3237 31.3628 45.2848 31.2237 45.4545 31.1166C45.5268 31.0721 45.5365 30.9052 45.5463 30.7897C45.563 30.6103 45.5532 30.4295 45.5616 30.2486C45.5671 30.1304 45.5463 30.0108 45.7062 29.9371C45.7688 29.9079 45.7674 29.7284 45.7841 29.6157C45.8106 29.4433 45.734 29.2457 45.9677 29.1331C46.0303 29.1025 46.0373 28.9342 46.047 28.8271C46.0665 28.624 46.0679 28.4195 46.079 28.2164C46.086 28.0954 46.054 27.9619 46.2251 27.909C46.2598 27.8979 46.2807 27.8033 46.2863 27.7449C46.2988 27.596 46.296 27.4472 46.3057 27.2984C46.3155 27.1509 46.2765 26.9951 46.4546 26.888C46.5186 26.8491 46.52 26.6877 46.5283 26.5792C46.5436 26.3678 46.5422 26.1564 46.5478 25.9435C46.5519 25.8128 46.5269 25.6667 46.7314 25.657C46.7592 25.6556 46.7995 25.5763 46.8065 25.5304C46.8218 25.4219 46.8204 25.312 46.8246 25.2021C46.8288 25.0742 46.7926 24.9281 46.9623 24.8669C46.9734 24.8627 46.9818 24.8433 46.9873 24.8294C47.0944 24.5818 47.1946 24.33 47.31 24.0866C47.3392 24.0254 47.4158 23.9656 47.4797 23.9503C47.5924 23.9238 47.7134 23.935 47.8317 23.9252C47.8845 23.921 47.9735 23.9169 47.9833 23.8877C48.082 23.6303 48.3018 23.7068 48.4826 23.7054C49.071 23.6985 49.6594 23.7013 50.2478 23.7013C50.3633 23.7013 50.4926 23.6804 50.5107 23.8557C50.5135 23.8793 50.5455 23.9099 50.5705 23.9197C50.896 24.0476 51.0504 24.2716 51.0101 24.6332C50.9906 24.8029 50.9683 25.0018 51.0351 25.1465C51.4399 26.0284 51.1422 26.9562 51.2424 27.8562C51.2632 28.0425 51.2451 28.2345 51.2785 28.4195C51.2966 28.5169 51.3912 28.5975 51.4385 28.6935C51.4774 28.7714 51.5178 28.8591 51.5178 28.9439C51.5275 29.6505 51.5206 30.3571 51.5359 31.0624C51.5414 31.3002 51.476 31.5687 51.7292 31.7495C51.7681 31.7773 51.7556 31.8831 51.757 31.9526C51.7626 32.3769 51.7584 32.8011 51.7723 33.224C51.7779 33.402 51.7403 33.6037 51.9504 33.7233C51.9879 33.7442 51.9838 33.8527 51.9865 33.9222C52.0046 34.3688 52.0144 34.8167 52.0394 35.2618C52.0436 35.3341 52.1173 35.4009 52.1437 35.476C52.1827 35.5886 52.1994 35.7097 52.2411 35.8209C52.2828 35.935 52.344 36.0435 52.3969 36.1548C52.4525 36.0407 52.5304 35.9308 52.5596 35.8098C52.5916 35.6749 52.568 35.5274 52.5916 35.3883C52.6041 35.3188 52.6695 35.259 52.7085 35.1936C52.7418 35.138 52.7919 35.0823 52.7975 35.0239C52.8128 34.8681 52.803 34.7095 52.8128 34.5538C52.8225 34.4091 52.7599 34.231 52.9853 34.1726C53.0145 34.1657 53.0326 34.0641 53.0353 34.0043C53.0451 33.8012 53.0395 33.5968 53.052 33.3923C53.0562 33.3325 53.0993 33.2254 53.1271 33.224C53.3344 33.2156 53.3121 33.0668 53.3191 32.9374C53.3274 32.7886 53.3247 32.6398 53.3302 32.4909C53.3358 32.3532 53.269 32.1849 53.4916 32.139C53.518 32.1334 53.5389 32.0458 53.5431 31.9943C53.557 31.8455 53.5611 31.6967 53.5681 31.5478C53.5764 31.3906 53.5723 31.2585 53.6988 31.1069C53.8087 30.9747 53.7753 30.7216 53.7976 30.5199C53.8143 30.3752 53.7434 30.2097 53.9659 30.1374C54.0243 30.1179 54.048 29.9454 54.0591 29.8397C54.08 29.6297 54.0772 29.4168 54.0883 29.2054C54.0939 29.0844 54.0661 28.9509 54.2399 28.9022C54.2733 28.8924 54.2956 28.7965 54.2997 28.738C54.3123 28.5656 54.3081 28.3931 54.3206 28.2206C54.329 28.1024 54.297 27.9633 54.4722 27.9174C54.5056 27.909 54.532 27.813 54.5362 27.756C54.5473 27.5835 54.5418 27.411 54.5515 27.2386C54.5585 27.1064 54.5154 26.9423 54.7379 26.9256C54.7671 26.9228 54.8075 26.8282 54.813 26.774C54.8283 26.6029 54.8297 26.429 54.8381 26.2565C54.8436 26.1216 54.8019 25.97 54.998 25.9143C55.03 25.9046 55.0509 25.8058 55.0537 25.7488C55.0648 25.4664 55.0662 25.1841 55.0759 24.9017C55.0773 24.8405 55.0829 24.7362 55.1093 24.7264C55.3931 24.636 55.2832 24.3995 55.3054 24.2173C55.3207 24.0935 55.3068 23.9656 55.318 23.8418C55.3221 23.7945 55.3583 23.7124 55.3833 23.711C55.6128 23.6957 55.5753 23.5204 55.5878 23.3813C55.5975 23.277 55.5906 23.1977 55.7311 23.1574C55.8271 23.1296 55.8994 23.0113 55.9745 22.9251C56.1011 22.7818 56.2207 22.6316 56.3834 22.4369L56.3876 22.4341Z" fill="white"/>
<path d="M40.8532 19.0929C40.7837 19.0275 40.703 18.9719 40.6488 18.8954C40.6028 18.8314 40.5653 18.7451 40.5681 18.67C40.5736 18.4823 40.5166 18.3668 40.3093 18.3835C40.2356 18.2096 40.3483 17.9592 40.0757 17.8911C40.0534 17.8855 40.0548 17.7909 40.0451 17.7381C40.02 17.6018 40.0743 17.4279 39.8628 17.3806C39.8406 17.375 39.8253 17.3013 39.8183 17.2582C39.7947 17.101 39.8684 16.9063 39.6194 16.8451C39.586 16.8367 39.5972 16.6726 39.5777 16.5836C39.5401 16.4083 39.6639 16.1551 39.3454 16.1023C39.3162 16.0981 39.3134 15.9479 39.2953 15.8672C39.2592 15.7031 39.3746 15.4749 39.0936 15.4054C39.0616 15.397 39.0686 15.2482 39.0533 15.1661C39.0185 14.9797 39.1576 14.7294 38.8558 14.6348C38.8321 14.6278 38.8279 14.536 38.8252 14.4818C38.8168 14.3009 38.8182 14.1201 38.8057 13.9407C38.7973 13.8085 38.8349 13.6416 38.6096 13.6333C38.5831 13.6333 38.5442 13.5373 38.5386 13.483C38.5247 13.3342 38.5456 13.1812 38.515 13.0379C38.4858 12.903 38.4065 12.7806 38.355 12.6498C38.33 12.5872 38.3091 12.5205 38.3022 12.4551C38.2813 12.2604 38.3397 12.0114 38.2396 11.8806C38.0045 11.576 38.1088 11.2296 38.0226 10.9125C37.9989 10.8263 37.9141 10.7595 37.8682 10.6774C37.8334 10.6148 37.8014 10.5439 37.7931 10.4729C37.768 10.2713 37.8209 10.0264 37.7249 9.87343C37.5051 9.52429 37.5816 9.14734 37.5232 8.78429C37.5149 8.73282 37.4453 8.65771 37.4022 8.65632C37.3577 8.65493 37.2798 8.72169 37.2686 8.77177C37.2283 8.94286 37.2784 9.14873 37.028 9.21967C36.9891 9.2308 36.9821 9.39215 36.9807 9.48396C36.971 10.0334 36.9724 10.5828 36.9543 11.1323C36.9501 11.2436 36.8722 11.3507 36.8402 11.4619C36.8124 11.5565 36.7874 11.6567 36.7846 11.7554C36.7609 12.7834 36.747 13.8113 36.7192 14.8393C36.7164 14.9589 36.6385 15.0743 36.6065 15.194C36.5815 15.283 36.5592 15.3748 36.5592 15.4666C36.5551 16.425 36.5592 17.382 36.5537 18.3404C36.5523 18.5977 36.5245 18.855 36.5092 19.1124C36.4869 19.1012 36.4661 19.0901 36.4438 19.079C36.3673 19.1722 36.2908 19.2654 36.2143 19.36C36.2101 19.3655 36.2087 19.378 36.2032 19.3808C35.9973 19.4782 35.797 19.6409 35.5856 19.6562C35.0389 19.6952 34.4867 19.6729 33.9372 19.6632C33.8663 19.6632 33.7981 19.5783 33.7244 19.5464C33.6173 19.5018 33.5074 19.4573 33.3934 19.4365C33.2362 19.4073 33.0261 19.4865 33.0192 19.2083C33.0192 19.1861 32.9413 19.1736 32.9107 19.1444C32.8662 19.1026 32.8119 19.0553 32.798 19.0011C32.7646 18.8648 32.8078 18.7104 32.5977 18.6547C32.4962 18.6283 32.556 18.0441 32.6422 17.9509C32.702 17.8855 32.7632 17.7923 32.7674 17.7075C32.7869 17.2763 32.7799 16.8437 32.8008 16.4125C32.805 16.3137 32.8898 16.2205 32.9232 16.1204C32.9608 16.0035 33.0025 15.8811 33.0067 15.7601C33.022 15.2426 33.022 14.7238 33.0303 14.2064C33.0317 14.0853 33.0081 13.9532 33.1847 13.9073C33.2237 13.8976 33.2584 13.7918 33.2612 13.7292C33.2835 13.1895 33.2904 12.6471 33.3196 12.1074C33.3335 11.8486 33.2404 11.5802 33.4685 11.3368C33.5631 11.2366 33.5325 11.0057 33.5366 10.8346C33.5491 10.2699 33.5464 9.70373 33.5617 9.13899C33.5645 9.04858 33.6284 8.96094 33.6576 8.87053C33.6855 8.78429 33.7202 8.69527 33.723 8.60624C33.7495 7.49206 33.7703 6.37788 33.794 5.26509C33.7967 5.1093 33.7453 4.93403 33.9581 4.84362C34.0012 4.82554 34.0082 4.68783 34.0082 4.60437C34.0137 3.8741 34.0096 3.14383 34.0165 2.41357C34.0193 2.09225 34.036 1.77093 34.0569 1.451C34.0638 1.33555 34.0457 1.20063 34.2266 1.1589C34.2752 1.14777 34.2947 1.0031 34.3378 0.891826C34.4589 0.891826 34.5952 0.9113 34.7218 0.884871C34.8219 0.864006 34.9081 0.783329 35.0041 0.733253C35.0612 0.704043 35.1237 0.663704 35.185 0.663704C35.5772 0.65814 35.9709 0.659531 36.3631 0.663704C36.416 0.663704 36.505 0.666486 36.5147 0.692915C36.6205 0.969721 36.8569 0.886262 37.0544 0.895999C37.1713 0.901563 37.2784 0.894608 37.2853 1.05457C37.2853 1.08378 37.3104 1.13664 37.3215 1.13525C37.5677 1.11995 37.7026 1.31747 37.8876 1.41901C37.9989 1.47882 38.2382 1.77928 38.2507 1.91281C38.2674 2.10477 38.195 2.32872 38.4371 2.44834C38.4663 2.46225 38.4663 2.54849 38.4691 2.60135C38.4802 2.81278 38.4788 3.0256 38.4955 3.23564C38.5094 3.40673 38.4732 3.60564 38.7028 3.6891C38.7361 3.70162 38.75 3.79621 38.7542 3.85463C38.7654 4.03407 38.7626 4.21629 38.7751 4.39572C38.7834 4.507 38.7654 4.63775 38.9323 4.67253C38.9629 4.67948 38.9907 4.77407 38.9935 4.82971C39.0018 5.01749 38.9935 5.20667 39.0032 5.39445C39.0088 5.50712 38.9921 5.63231 39.152 5.67682C39.1896 5.68795 39.216 5.79227 39.2188 5.85626C39.2341 6.14559 39.2341 6.4363 39.2494 6.72702C39.2522 6.78822 39.2967 6.8995 39.3259 6.90089C39.5471 6.91063 39.5165 7.0692 39.5193 7.20413C39.5234 7.40026 39.5081 7.59778 39.5207 7.79251C39.5304 7.93579 39.472 8.1194 39.7001 8.17364C39.7279 8.1806 39.7432 8.28214 39.746 8.34056C39.7557 8.57564 39.739 8.8135 39.771 9.04579C39.7891 9.17794 39.8823 9.29756 39.9366 9.42553C39.9602 9.47978 39.9825 9.53959 39.9852 9.59802C39.995 9.81779 39.9797 10.039 40.0061 10.256C40.0256 10.4159 39.9852 10.6093 40.1828 10.7108C40.2134 10.7261 40.2189 10.8096 40.2203 10.861C40.2287 11.0419 40.2259 11.2227 40.237 11.4021C40.2454 11.5245 40.2412 11.6567 40.4137 11.6928C40.4498 11.6998 40.4888 11.786 40.493 11.8389C40.5083 12.003 40.4999 12.1686 40.5138 12.3327C40.525 12.4732 40.4846 12.6359 40.6807 12.7069C40.7169 12.7194 40.7253 12.8307 40.7322 12.8974C40.7517 13.0838 40.7016 13.312 40.792 13.4511C40.9687 13.7223 40.9659 14.0088 41.0007 14.3009C41.0062 14.3441 41.1147 14.4081 41.1676 14.4025C41.2191 14.3969 41.2969 14.3135 41.3011 14.2606C41.3206 13.9866 41.3122 13.7112 41.3331 13.4371C41.3401 13.3412 41.4138 13.2521 41.4416 13.1562C41.4847 13.0087 41.5404 12.8585 41.5445 12.7083C41.5612 12.1519 41.5571 11.5941 41.5654 11.0363C41.5668 10.893 41.5626 10.7637 41.6962 10.6371C41.781 10.5564 41.7741 10.3575 41.7768 10.2114C41.7921 9.60775 41.7949 9.00267 41.8019 8.39898C41.8019 8.28075 41.7908 8.17086 41.9438 8.11383C41.9911 8.09575 42.0189 7.96778 42.0203 7.88988C42.0411 5.88825 42.0578 3.88662 42.0759 1.88499C42.0759 1.7751 42.0759 1.66521 42.0884 1.55672C42.094 1.51082 42.1288 1.46213 42.1621 1.42597C42.2985 1.27713 42.5043 1.19228 42.5655 0.972503C42.5753 0.94051 42.6504 0.9113 42.6977 0.907127C42.8298 0.894608 42.9647 0.89739 43.0969 0.887653C43.1484 0.88348 43.2374 0.868179 43.2429 0.843141C43.2986 0.60111 43.4836 0.670659 43.638 0.667877C43.8425 0.663704 44.0469 0.667877 44.25 0.667877C44.3752 0.667877 44.5032 0.651185 44.5449 0.825058C44.5532 0.858442 44.6464 0.886262 44.7021 0.889044C44.8662 0.900172 45.0317 0.895999 45.1959 0.900172C45.3405 0.902954 45.5103 0.865397 45.5075 1.10326C45.5075 1.12829 45.5742 1.15194 45.6062 1.17837C45.6577 1.22149 45.7106 1.26461 45.7578 1.3119C45.7787 1.33277 45.7871 1.38702 45.8024 1.38702C46.1042 1.39815 46.0347 1.63322 46.0347 1.79875C46.0347 2.51233 46.0194 3.22451 46.0041 3.93809C46.0041 3.99373 45.9693 4.09249 45.9415 4.09666C45.7008 4.12726 45.7509 4.31087 45.7467 4.45554C45.7342 4.87144 45.7384 5.28735 45.7217 5.70325C45.7189 5.78393 45.6494 5.85904 45.6215 5.94111C45.5798 6.06352 45.5228 6.18871 45.5186 6.31529C45.5019 6.83273 45.5033 7.35157 45.4949 7.86902C45.4936 7.98169 45.5214 8.1041 45.367 8.16391C45.3266 8.17921 45.3058 8.28492 45.3044 8.3503C45.2849 9.07222 45.2738 9.79414 45.2557 10.5147C45.2515 10.683 45.3072 10.861 45.0846 10.9779C45.0109 11.0154 45.0039 11.2213 45.0025 11.3507C44.9872 12.4106 44.9817 13.4705 44.9705 14.5291C44.9692 14.6876 45.0025 14.849 44.844 14.9811C44.7869 15.0284 44.8008 15.1731 44.7995 15.2732C44.7828 16.4431 44.7716 17.6115 44.7522 18.7813C44.7494 18.9357 44.805 19.1026 44.5658 19.1986C44.4183 19.257 44.339 19.4754 44.218 19.6103C44.1846 19.6479 44.1095 19.6618 44.0539 19.6632C43.3556 19.6674 42.6559 19.6674 41.9577 19.666C41.9062 19.666 41.813 19.6535 41.8088 19.6326C41.7448 19.3335 41.5056 19.4573 41.3331 19.4323C41.1982 19.4114 41.0396 19.4587 41.0327 19.232C41.0327 19.1903 40.9047 19.1527 40.8365 19.1138C40.8435 19.1068 40.8504 19.1012 40.8574 19.0943L40.8532 19.0929Z" fill="white"/>
<path d="M58.8582 41.1261C58.8512 41.0872 58.8387 41.019 58.8248 40.9384C58.7497 40.9231 58.6745 40.9078 58.5382 40.8785C58.5382 40.6379 58.5341 40.3834 58.5382 40.1288C58.5466 39.642 58.5535 39.1551 58.5772 38.6697C58.5814 38.582 58.6732 38.5014 58.7079 38.4109C58.758 38.2844 58.822 38.1536 58.8276 38.0229C58.847 37.5833 58.8359 37.1437 58.854 36.7042C58.8582 36.6096 58.9374 36.5192 58.9653 36.4218C59.007 36.2744 59.0571 36.1228 59.0612 35.9711C59.0779 35.3355 59.0738 34.6998 59.0891 34.0641C59.0932 33.9153 59.0306 33.733 59.2504 33.6426C59.2977 33.6232 59.3047 33.4729 59.3061 33.3825C59.3158 32.6689 59.3186 31.954 59.3269 31.239C59.3283 31.111 59.3144 30.99 59.4813 30.9093C59.5537 30.8746 59.5759 30.691 59.5815 30.5727C59.5982 30.2194 59.5982 29.8661 59.6009 29.5128C59.6065 28.8145 59.6051 28.1148 59.6176 27.4166C59.619 27.3262 59.6872 27.2399 59.7136 27.1481C59.7428 27.0466 59.7804 26.9422 59.7818 26.8379C59.8026 25.7154 59.8263 24.5943 59.8291 23.4717C59.8291 23.1908 60.0349 23.092 60.1907 22.939C60.206 22.9237 60.2505 22.9265 60.2533 22.9139C60.3284 22.5829 60.5941 22.7164 60.7847 22.7109C61.3814 22.697 61.9781 22.7067 62.5749 22.7067C62.6848 22.7067 62.7557 22.7248 62.8392 22.8361C62.9115 22.932 63.1076 22.9362 63.2732 22.9891C63.2885 23.1379 63.4164 23.1838 63.5806 23.1782C63.696 23.1741 63.7809 23.2061 63.7795 23.3465C63.7795 23.3799 63.8101 23.4397 63.8295 23.4411C64.0813 23.4509 63.9951 23.6512 64.0368 23.7847C64.0785 23.9168 64.1536 24.0365 64.2093 24.1644C64.2329 24.2187 64.2496 24.2799 64.2524 24.3397C64.2621 24.5748 64.2524 24.8113 64.2733 25.0449C64.2858 25.191 64.2635 25.3663 64.4666 25.433C64.5028 25.4442 64.5264 25.536 64.5306 25.5916C64.5417 25.7641 64.5236 25.9393 64.5501 26.109C64.5682 26.2203 64.6461 26.3219 64.692 26.429C64.7184 26.4902 64.7504 26.5542 64.7559 26.6195C64.7712 26.799 64.7685 26.9798 64.7824 27.1606C64.7921 27.2858 64.7643 27.4333 64.9493 27.4819C64.9813 27.4903 64.9966 27.603 65.0008 27.6683C65.0188 27.934 65.0272 28.2011 65.0453 28.4654C65.0494 28.5252 65.0731 28.6253 65.1051 28.6323C65.3429 28.6893 65.2762 28.8743 65.2859 29.0273C65.3012 29.2541 65.3054 29.4808 65.3374 29.7047C65.3499 29.791 65.4306 29.8675 65.4723 29.9523C65.4987 30.0052 65.521 30.065 65.5238 30.122C65.5321 30.3029 65.5238 30.4837 65.5335 30.6631C65.5405 30.78 65.5126 30.9191 65.6893 30.965C65.7241 30.9747 65.7491 31.0818 65.7519 31.1458C65.763 31.3892 65.7616 31.6327 65.77 31.8761C65.7755 32.036 65.7561 32.221 66.0565 32.1584C66.0565 32.4506 66.0496 32.7065 66.0593 32.9638C66.0663 33.1461 66.0426 33.3422 66.2387 33.4674C66.2735 33.4896 66.2693 33.5828 66.2749 33.644C66.2902 33.8388 66.2332 34.0836 66.3292 34.2213C66.5712 34.569 66.4808 34.9613 66.5712 35.3257C66.5767 35.348 66.5795 35.3855 66.592 35.3911C66.8716 35.4968 66.7645 35.7486 66.8118 35.9447C66.8313 36.024 66.9036 36.0922 66.9509 36.1645C66.994 36.0949 67.0413 36.0282 67.0803 35.9558C67.1318 35.8599 67.1888 35.7639 67.2222 35.661C67.2611 35.5441 67.3001 35.4217 67.3028 35.2993C67.3195 34.6789 67.3195 34.0599 67.3404 33.4395C67.3432 33.3519 67.4239 33.2657 67.4684 33.1794C67.4962 33.1266 67.5435 33.0765 67.5504 33.0223C67.5769 32.7816 67.6019 32.5382 67.6075 32.2962C67.6186 31.826 67.613 31.3545 67.6214 30.8829C67.6242 30.6951 67.5741 30.4962 67.7563 30.3376C67.8078 30.2931 67.7911 30.1582 67.7925 30.065C67.8161 28.5502 67.8342 27.0354 67.8634 25.522C67.8662 25.3955 67.9413 25.2703 67.9789 25.1423C67.9969 25.0839 68.015 25.0227 68.0164 24.9615C68.0234 24.6791 68.0248 24.3967 68.0275 24.1144C68.0275 24.0824 68.0373 24.0365 68.022 24.0226C67.6812 23.7346 68.1569 23.5079 68.0888 23.2311C68.0748 23.1755 68.232 23.053 68.3322 23.0016C68.5478 22.8889 68.7717 22.7345 69.0012 22.7164C69.5479 22.6747 70.1001 22.6997 70.6496 22.7095C70.7233 22.7095 70.797 22.7832 70.8707 22.8208C70.95 22.8611 71.0265 22.9209 71.1114 22.9334C71.2421 22.9529 71.377 22.939 71.4563 22.939C71.5746 23.0586 71.6608 23.1462 71.7484 23.2339C71.7401 23.2353 71.7317 23.238 71.722 23.2394C71.8152 23.3952 71.9181 23.5455 71.9974 23.7082C72.0322 23.7805 72.0266 23.8751 72.028 23.9614C72.0308 24.1255 72.0378 24.2924 72.0183 24.4552C72.0086 24.5303 71.9348 24.597 71.8987 24.6708C71.8625 24.7417 71.8138 24.8182 71.811 24.8933C71.7957 25.2383 71.8027 25.5846 71.7832 25.9282C71.7776 26.02 71.6984 26.1063 71.6678 26.2008C71.6274 26.3246 71.5787 26.4526 71.5746 26.5792C71.5565 27.1119 71.5537 27.6461 71.5467 28.1802C71.5454 28.2999 71.5523 28.4083 71.3868 28.4473C71.3367 28.4598 71.2908 28.5975 71.2894 28.6796C71.2755 29.2054 71.2783 29.7312 71.2658 30.257C71.2616 30.4322 71.3242 30.6311 71.1002 30.7522C71.0502 30.7786 71.0516 30.926 71.0502 31.0178C71.039 31.6382 71.039 32.2586 71.0209 32.8776C71.0168 32.9958 70.9305 33.1099 70.9069 33.2309C70.8679 33.4368 70.8276 33.6468 70.8234 33.8555C70.8053 34.7818 70.8012 35.7082 70.7914 36.6346C70.7914 36.7598 70.8026 36.8753 70.6523 36.9518C70.5995 36.9796 70.5814 37.1159 70.5814 37.2036C70.5731 38.2398 70.5744 39.2761 70.5647 40.3124C70.5619 40.5544 70.5369 40.7979 70.5091 41.0385C70.5035 41.0914 70.4409 41.1387 70.402 41.1873C70.3936 41.1971 70.3602 41.1915 70.3588 41.1971C70.2907 41.485 70.05 41.4113 69.8581 41.4377C69.8372 41.4405 69.8038 41.4572 69.8011 41.4725C69.7538 41.7312 69.5479 41.6561 69.3907 41.6575C69.0221 41.6645 68.6521 41.6589 68.2835 41.6547C68.2237 41.6547 68.1207 41.6492 68.1096 41.6199C68.0109 41.3431 67.7772 41.4475 67.5922 41.4252C67.467 41.4099 67.314 41.4683 67.2875 41.2638C67.2848 41.2388 67.2166 41.2082 67.1763 41.2026C67.0177 41.1846 66.8355 41.211 66.8299 40.9634C66.8299 40.9425 66.7381 40.9286 66.6936 40.9036C66.6519 40.8799 66.6115 40.8493 66.5767 40.8146C66.5281 40.7659 66.4766 40.7158 66.4404 40.6574C66.3987 40.5906 66.3611 40.5169 66.3403 40.4418C66.3083 40.3235 66.3625 40.1636 66.1622 40.1344C66.1344 40.1302 66.1205 40.03 66.0982 39.9744C66.0523 39.8603 66.076 39.7059 65.8896 39.6712C65.8493 39.6642 65.827 39.514 65.8117 39.4277C65.7908 39.3165 65.827 39.1857 65.6559 39.1537C65.6267 39.1482 65.5989 39.0703 65.5919 39.0216C65.5697 38.8755 65.6156 38.7114 65.4014 38.6432C65.3555 38.6293 65.3638 38.4443 65.3485 38.3372C65.3262 38.1675 65.4181 37.9463 65.1232 37.9046C65.0898 37.9004 65.0814 37.7238 65.062 37.6278C65.0272 37.4567 65.1593 37.2189 64.8658 37.1493C64.8436 37.1437 64.8394 37.0506 64.8338 36.9977C64.8158 36.7877 64.8088 36.5762 64.7796 36.3676C64.7699 36.2939 64.6975 36.2313 64.6683 36.1575C64.6335 36.0685 64.6099 35.9739 64.5918 35.8793C64.5584 35.7041 64.66 35.469 64.3693 35.4106C64.3428 35.405 64.3289 35.3021 64.3233 35.2423C64.3025 35.0475 64.3011 34.85 64.2677 34.6581C64.2524 34.5704 64.1759 34.4953 64.137 34.4091C64.1091 34.3493 64.0869 34.2825 64.0799 34.2171C64.0563 34.0071 64.1147 33.7442 64.0076 33.5981C63.8059 33.3213 63.8727 33.0292 63.8212 32.7427C63.8017 32.6314 63.7113 32.534 63.6598 32.4269C63.6348 32.3741 63.6139 32.3128 63.6112 32.2544C63.6014 32.0666 63.6042 31.8775 63.5959 31.6897C63.5903 31.5715 63.5847 31.456 63.4192 31.431C63.3803 31.4254 63.3357 31.3127 63.3316 31.2474C63.3093 30.9511 63.3065 30.652 63.2801 30.3571C63.2745 30.2973 63.2022 30.2444 63.1605 30.1888C63.1201 30.2458 63.0603 30.2973 63.0464 30.3599C63.0228 30.4656 63.0395 30.5811 63.0172 30.6868C62.9977 30.7786 62.9449 30.8634 62.9143 30.9539C62.8851 31.0401 62.8503 31.1291 62.8475 31.2181C62.8225 31.8608 62.8058 32.5034 62.7849 33.1474C62.7807 33.2698 62.7988 33.3909 62.6403 33.4604C62.5888 33.4827 62.5665 33.6232 62.5665 33.7094C62.5457 35.8668 62.5276 38.0256 62.5109 40.1831C62.5109 40.2929 62.5109 40.4028 62.5053 40.5127C62.5025 40.5572 62.4942 40.6365 62.4747 40.6421C62.2341 40.6977 62.2925 40.8925 62.2675 41.0538C62.2605 41.1011 62.2077 41.147 62.1673 41.1832C62.1409 41.2068 62.0699 41.2068 62.0672 41.2263C62.0171 41.5184 61.7848 41.3988 61.6207 41.4266C61.4037 41.4614 61.1477 41.3515 60.9961 41.6269C60.9711 41.6728 60.8208 41.6561 60.7276 41.6589C60.5705 41.6617 60.4133 41.6589 60.2561 41.6547C60.2102 41.6547 60.1351 41.6575 60.1226 41.6339C59.971 41.3376 59.6914 41.4614 59.4618 41.4183C59.3895 41.4043 59.3283 41.3431 59.2588 41.3098C59.1391 41.2513 59.0181 41.1971 58.8568 41.122L58.8582 41.1261Z" fill="white"/>
<path d="M37.7011 44.7345C37.7234 44.8528 37.7429 44.9599 37.7651 45.067C37.7735 45.1045 37.7832 45.1671 37.8013 45.1727C38.0906 45.2367 37.9918 45.469 38.003 45.6443C38.0183 45.871 38.0002 46.1005 38.0238 46.3258C38.0391 46.4775 38.003 46.6611 38.1935 46.7598C38.2311 46.7793 38.2297 46.8892 38.2325 46.9573C38.245 47.2703 38.245 47.5847 38.2659 47.8976C38.2742 48.0284 38.2464 48.1856 38.4244 48.2579C38.4592 48.2718 38.4634 48.3831 38.4676 48.4513C38.4829 48.7879 38.4829 49.1259 38.5107 49.4611C38.5176 49.5432 38.6067 49.6155 38.654 49.6962C38.6887 49.7574 38.7388 49.8242 38.743 49.8895C38.7597 50.1719 38.7513 50.4543 38.7736 50.7367C38.7805 50.8187 38.8626 50.8938 38.9029 50.9759C38.9349 51.0413 38.9781 51.1094 38.9808 51.179C38.9934 51.4614 38.985 51.7437 38.9989 52.0261C39.0073 52.2 38.992 52.3822 39.1756 52.5074C39.2284 52.5435 39.2201 52.6813 39.2257 52.7717C39.2465 53.1069 39.259 53.4435 39.2799 53.7787C39.2827 53.8302 39.3049 53.9178 39.3328 53.9234C39.5748 53.9777 39.5052 54.1654 39.5094 54.3171C39.5164 54.5215 39.5094 54.726 39.5191 54.9291C39.5247 55.0487 39.4997 55.1836 39.6735 55.2337C39.7083 55.2435 39.7292 55.3533 39.7334 55.4173C39.7473 55.6997 39.7431 55.9821 39.7695 56.263C39.7765 56.3382 39.8669 56.4063 39.9239 56.4731C39.942 56.494 39.9949 56.4981 40.0004 56.5176C40.0505 56.7318 40.223 56.704 40.3746 56.7096C40.7613 56.7262 40.9672 56.9182 40.9852 57.3021C40.9936 57.4732 40.9852 57.6471 40.9686 57.8182C40.963 57.871 40.9074 57.9225 40.867 57.967C40.8434 57.9934 40.7752 58.0018 40.7738 58.0226C40.7599 58.2007 40.6264 58.184 40.5054 58.2146C40.4233 58.2355 40.3051 58.3022 40.2911 58.3662C40.2661 58.4872 40.2105 58.6389 40.3941 58.7348C40.4608 58.7696 40.4817 58.9115 40.5026 59.0102C40.5429 59.1939 40.4455 59.4025 40.689 59.5444C40.7669 59.5903 40.7307 59.8365 40.7432 59.9923C40.753 60.1063 40.7307 60.2288 40.8948 60.2691C40.9296 60.2774 40.9519 60.3845 40.9588 60.4485C40.9755 60.6127 40.9672 60.7782 40.9922 60.9409C41.0117 61.0606 40.988 61.2247 41.1883 61.24C41.2106 61.2414 41.2454 61.3123 41.2468 61.3513C41.2509 61.7964 41.2495 62.2415 41.2495 62.6046C41.0228 62.8104 40.8517 62.9676 40.6792 63.1248C40.5429 63.2639 40.1882 63.0232 40.2021 63.4545C40.1451 63.46 40.0992 63.4684 40.0533 63.4684C39.4176 63.4698 38.7819 63.4725 38.1449 63.4725C38.0517 63.4725 37.9056 63.4976 37.8736 63.4503C37.7818 63.314 37.6858 63.1957 37.5467 63.1053C37.4869 63.0664 37.4396 62.9996 37.4007 62.937C37.3617 62.8758 37.32 62.8035 37.3172 62.7353C37.3047 62.4529 37.3172 62.1706 37.2991 61.8896C37.288 61.7171 37.3436 61.4987 37.078 61.4347C37.0474 61.4278 37.0293 61.3123 37.0279 61.247C37.0182 60.863 37.0279 60.4777 37.0001 60.0952C36.9903 59.9617 36.8888 59.8379 36.8457 59.7043C36.8137 59.6042 36.7942 59.4957 36.7914 59.39C36.7761 58.7056 36.7789 58.7001 36.0987 58.7251C35.8873 58.7334 35.6355 58.65 35.4978 58.9212C35.4825 58.9518 35.381 58.9449 35.3198 58.9463C35.0527 58.9504 34.7856 58.949 34.5186 58.9546C34.3906 58.9574 34.2473 58.9268 34.2042 59.1187C34.1972 59.1521 34.086 59.1786 34.0234 59.1799C33.7326 59.1883 33.4419 59.1827 33.1526 59.1952C33.09 59.198 32.9787 59.2537 32.9759 59.2912C32.9579 59.4776 32.8341 59.4693 32.7061 59.4707C32.6588 59.4707 32.6115 59.4776 32.5642 59.4707C32.3208 59.4387 32.165 59.5013 32.1956 59.7892C32.1998 59.8309 32.1831 59.9102 32.1594 59.9158C31.9188 59.9853 31.9897 60.1815 31.9772 60.3428C31.9647 60.5 31.98 60.6405 31.8256 60.7768C31.731 60.8603 31.7602 61.0856 31.7352 61.247C31.7074 61.418 31.802 61.6337 31.5488 61.7227C31.521 61.7324 31.514 61.8214 31.5112 61.8743C31.5029 62.0621 31.5015 62.2512 31.4959 62.439C31.4918 62.5753 31.5293 62.7367 31.3026 62.7339C31.2775 62.7339 31.2358 62.8146 31.2303 62.8605C31.2163 62.9843 31.2136 63.1109 31.2122 63.2361C31.2122 63.3543 31.1496 63.4086 31.0717 63.4976C30.9242 63.6659 30.7768 63.7187 30.5779 63.7466C30.5292 63.7535 30.4944 63.8648 30.4443 63.9413C30.2607 63.9413 30.0646 63.9427 29.8699 63.9399C29.8337 63.9399 29.7725 63.9302 29.7642 63.9079C29.6654 63.6381 29.4331 63.7368 29.2453 63.7104C29.0617 63.6854 28.8461 63.7911 28.7251 63.5184C28.6945 63.4475 28.4511 63.4711 28.3648 63.46C28.0004 63.0761 27.6679 62.7256 27.2799 62.3166C27.2799 62.222 27.2757 62.0356 27.284 61.8506C27.2854 61.8061 27.3313 61.7255 27.3577 61.7255C27.565 61.7268 27.5497 61.5808 27.5539 61.4473C27.558 61.3457 27.5414 61.2344 27.693 61.2233C27.7124 61.2219 27.7458 61.1969 27.7444 61.1844C27.7305 60.9187 27.9044 60.7212 27.9851 60.4903C28.0226 60.3832 28.0352 60.2496 27.8543 60.2232C27.8265 60.219 27.8001 60.1564 27.7848 60.1175C27.7681 60.0744 27.7737 59.9937 27.7514 59.9867C27.4231 59.8852 27.5887 59.6181 27.5608 59.4206C27.5427 59.2898 27.558 59.1549 27.6012 59.0548C27.7389 58.8851 27.8724 58.7126 28.0171 58.5498C28.056 58.5053 28.1228 58.4733 28.1826 58.4622C28.33 58.4344 28.5011 58.4817 28.5707 58.2758C28.5832 58.241 28.6973 58.2243 28.7626 58.2271C28.9296 58.2341 29.0033 58.1687 29.0075 57.9976C29.0116 57.8571 28.9935 57.6819 29.2231 57.686C29.2384 57.686 29.269 57.6526 29.2676 57.6373C29.2314 57.284 29.6334 57.0601 29.5458 56.6859C29.5333 56.6303 29.632 56.551 29.6696 56.4786C29.7085 56.4021 29.7475 56.3215 29.7655 56.238C29.792 56.1156 29.7461 55.9556 29.9533 55.9501C29.9756 55.9501 30.0187 55.9083 30.0159 55.8917C29.97 55.594 30.2635 55.4145 30.2788 55.135C30.283 55.0654 30.3678 55.0028 30.3915 54.9291C30.4416 54.7775 30.4722 54.6189 30.5153 54.4645C30.5389 54.381 30.5584 54.2378 30.6029 54.2266C30.7782 54.1863 30.7615 54.0486 30.7865 53.9345C30.8283 53.7468 30.7378 53.5298 30.9924 53.3934C31.0675 53.3531 31.0272 53.0999 31.0397 52.9442C31.048 52.8398 31.016 52.7188 31.183 52.6952C31.2163 52.691 31.2553 52.6034 31.2636 52.5491C31.2845 52.4031 31.2442 52.2556 31.4486 52.1708C31.5251 52.1388 31.5307 51.919 31.553 51.7827C31.5752 51.6533 31.5251 51.5142 31.7157 51.4405C31.7769 51.4168 31.7741 51.2165 31.7908 51.0955C31.8131 50.9439 31.738 50.752 31.9744 50.6991C31.9856 50.6963 31.9967 50.6755 31.9995 50.6615C32.0871 50.3235 32.1692 49.9841 32.2638 49.6475C32.2846 49.5724 32.3528 49.5112 32.3903 49.4389C32.4432 49.3345 32.5044 49.2302 32.5308 49.1189C32.5712 48.952 32.4877 48.7628 32.7172 48.6377C32.7951 48.5945 32.7617 48.3455 32.7743 48.1911C32.784 48.0785 32.7576 47.9742 32.905 47.899C32.9759 47.8629 32.9912 47.6932 33.0065 47.5805C33.026 47.4331 33.0163 47.2828 33.0274 47.134C33.0316 47.0839 33.058 46.9949 33.0803 46.9935C33.3459 46.9713 33.2834 46.7668 33.3042 46.6096C33.3251 46.4469 33.2333 46.2549 33.4823 46.1575C33.5407 46.1353 33.5212 45.9113 33.5365 45.7792C33.5518 45.6429 33.4878 45.4773 33.7034 45.4189C33.7424 45.4078 33.7521 45.2548 33.7591 45.1644C33.7688 45.0489 33.8036 44.9849 33.901 44.8917C34.0609 44.7373 34.2362 44.729 34.4114 44.658C34.5408 44.6066 34.6173 44.4188 34.8093 44.4744C34.8593 44.4897 34.9219 44.4967 34.9539 44.5315C35.1681 44.7582 35.3726 44.7568 35.5799 44.5315C35.6146 44.4925 35.6898 44.4744 35.7468 44.473C36.1947 44.4689 36.6412 44.4689 37.0891 44.473C37.1336 44.473 37.2129 44.4856 37.2171 44.5036C37.2741 44.7777 37.5147 44.6664 37.6928 44.7304L37.7011 44.7345ZM36.2837 56.0739C36.2628 55.8485 36.2434 55.6218 36.2183 55.3965C36.2128 55.3436 36.203 55.2629 36.171 55.2476C36.0027 55.1642 36.0445 55.0139 36.0361 54.879C36.0264 54.6912 36.025 54.5034 36.0139 54.3157C36.0083 54.2308 36.0139 54.1084 35.9638 54.0681C35.7204 53.8761 35.8289 53.6118 35.7941 53.3795C35.7746 53.2488 35.7955 53.0513 35.7204 53.0012C35.5298 52.8732 35.5813 52.7091 35.5729 52.5477C35.5646 52.3919 35.566 52.2334 35.5423 52.079C35.534 52.0275 35.4616 51.9482 35.4199 51.9496C35.3615 51.951 35.2947 52.008 35.2488 52.0567C35.2099 52.0984 35.2029 52.2028 35.1695 52.2083C34.9915 52.2403 35.0151 52.3808 34.9929 52.4976C34.9817 52.5588 34.9929 52.652 34.9567 52.6743C34.7411 52.8134 34.7717 53.0318 34.7481 53.2377C34.7397 53.3086 34.691 53.4282 34.6507 53.4324C34.4935 53.4491 34.4879 53.5478 34.4782 53.6619C34.4699 53.7537 34.4726 53.9095 34.4295 53.9248C34.1861 54.0124 34.2362 54.2141 34.2445 54.3769C34.2584 54.6773 33.9023 54.8429 33.983 55.1586C33.9844 55.1656 33.9622 55.185 33.9496 55.1864C33.6798 55.224 33.7702 55.4535 33.7257 55.6093C33.6993 55.7053 33.7118 55.8777 33.6673 55.8917C33.4113 55.9751 33.5087 56.174 33.4864 56.3382C33.4684 56.4787 33.5462 56.665 33.314 56.7193C33.2903 56.7249 33.2639 56.8528 33.2875 56.8987C33.3459 57.01 34.1972 56.9488 34.2863 56.85C34.3391 56.7916 34.4267 56.7318 34.5019 56.729C34.8774 56.7151 35.2544 56.7207 35.6313 56.7193C36.0644 56.7184 36.2832 56.5032 36.2879 56.0739H36.2837Z" fill="white"/>
<path d="M55.7006 59.1185C55.4558 59.4663 55.211 59.814 54.9425 60.1966C54.6323 60.4845 54.2401 60.7585 53.9883 61.1466C53.8812 61.2259 53.7852 61.2982 53.6879 61.3692C53.7004 61.3872 53.7129 61.4067 53.7268 61.4248C53.5557 61.4693 53.3401 61.4206 53.2608 61.6585C53.2497 61.6933 53.1176 61.6877 53.0313 61.703C53.0118 61.7837 52.991 61.8643 52.9673 61.9561C52.8783 61.9617 52.7935 61.9645 52.7086 61.9728C52.6627 61.977 52.5834 61.984 52.5792 62.0034C52.5222 62.2552 52.3177 62.194 52.1522 62.2149C52.1286 62.2177 52.0896 62.2163 52.0854 62.2274C51.9936 62.4527 51.7919 62.4416 51.6028 62.4583C51.5833 62.4597 51.5527 62.4833 51.5513 62.4986C51.5277 62.7768 51.3134 62.7087 51.1465 62.7212C50.9893 62.7337 50.8071 62.6822 50.7529 62.9145C50.7473 62.9368 50.6569 62.9479 50.604 62.9507C50.3996 62.9591 50.1965 62.9618 49.992 62.966C49.8807 62.9674 49.7764 62.9646 49.7333 63.1093C49.7222 63.1482 49.6206 63.183 49.5608 63.183C48.6261 63.1858 47.6927 63.1858 46.758 63.1774C46.6829 63.1774 46.6091 63.0995 46.5326 63.0606C46.4672 63.0272 46.4019 62.9771 46.3337 62.9702C46.1626 62.9535 45.9887 62.9563 45.8163 62.9521C45.68 62.9493 45.5575 62.9771 45.4616 62.806C45.4157 62.7226 45.2112 62.7281 45.0498 62.685C45.0359 62.6405 45.0151 62.5682 44.99 62.4833C44.7814 62.3707 44.5658 62.2552 44.3502 62.1384C44.3488 62.1467 44.3474 62.1537 44.346 62.162L44.0998 61.9075C44.0998 61.9075 44.1095 61.8963 44.1151 61.8922C43.9718 61.7419 43.8202 61.5987 43.6894 61.4387C43.6282 61.3636 43.5921 61.2593 43.5726 61.1633C43.5517 61.052 43.5573 60.9519 43.4015 60.9282C43.35 60.9199 43.3278 60.7613 43.2722 60.7474C43.0329 60.6876 43.0649 60.4998 43.0454 60.3315C43.0426 60.3037 43.0232 60.255 43.0065 60.2536C42.7422 60.223 42.8507 60.0157 42.8215 59.8738C42.7895 59.7167 42.8451 59.515 42.6003 59.4635C42.5711 59.4579 42.5461 59.3578 42.5461 59.3021C42.5419 58.2047 42.5419 57.1086 42.5447 56.0111C42.5447 55.8831 42.5308 55.7343 42.7324 55.7176C42.763 55.7148 42.8048 55.623 42.8103 55.5687C42.8243 55.4282 42.8076 55.285 42.8284 55.1459C42.8382 55.0777 42.9105 55.0221 42.9425 54.9539C42.9884 54.8552 43.0343 54.7522 43.0579 54.6479C43.0955 54.4768 42.9661 54.2445 43.2485 54.1708C43.2541 54.1694 43.2624 54.1569 43.261 54.1513C43.1956 53.8105 43.5295 53.6339 43.5962 53.3362C43.6505 53.0983 43.8341 52.8897 43.9551 52.6671C43.9885 52.6059 44.0122 52.5392 44.0302 52.4724C44.0608 52.3653 44.0414 52.2387 44.2111 52.2137C44.2445 52.2095 44.2611 52.0662 44.2792 51.9869C44.3043 51.8715 44.2723 51.724 44.4656 51.7185C44.4962 51.7185 44.5393 51.6461 44.5505 51.6002C44.5908 51.4403 44.5685 51.2928 44.7536 51.1551C44.9316 51.023 44.9928 50.7337 45.1249 50.4777C45.3308 50.3762 45.4838 50.1717 45.5631 49.8949C45.584 49.8226 45.6521 49.7641 45.6994 49.7002C45.7286 49.6598 45.762 49.6223 45.7884 49.5791C45.8079 49.5471 45.8135 49.4887 45.8385 49.4804C46.1487 49.3775 46.221 49.1048 46.3309 48.8447C46.3894 48.707 46.5257 48.5985 46.6411 48.4914C46.7607 48.3801 46.9263 48.3092 47.0167 48.1826C47.1544 47.9892 47.2434 47.7625 47.3728 47.5094C47.4576 47.4913 47.5773 47.476 47.6176 47.2771C47.6426 47.1547 47.8443 47.0684 47.9626 46.9627C48.0502 46.8834 48.174 46.8125 48.2088 46.7123C48.2727 46.5245 48.4369 46.4592 48.5607 46.3437C48.6942 46.2199 48.8305 46.0989 48.9669 45.9779C48.9835 45.9626 49.0225 45.9542 49.0225 45.9417C49.0225 45.6621 49.2757 45.7637 49.3967 45.6774C49.59 45.5397 49.7736 45.4298 50.0129 45.4298C50.1019 45.1127 50.3648 45.2476 50.5581 45.2351C50.8697 45.2156 51.1841 45.2295 51.4164 45.2295C51.6125 45.4187 51.7627 45.5564 51.9046 45.7025C51.9463 45.7456 51.9867 45.8068 51.995 45.8652C52.0256 46.0836 52.1049 46.2324 52.3609 46.2269C52.4151 46.2269 52.4666 46.3062 52.525 46.3395C52.7281 46.4564 52.7726 46.7874 53.0939 46.7513C53.1454 46.7457 53.2066 46.825 53.2608 46.8667C53.2706 46.8737 53.2664 46.9085 53.2733 46.9098C53.5474 46.9766 53.4667 47.2298 53.5515 47.3995C53.6197 47.5372 53.7936 47.6206 53.9174 47.7305C54.0287 47.8307 54.2095 47.9239 54.2276 48.0393C54.2637 48.2744 54.3889 48.4441 54.5169 48.6166C54.5642 48.6806 54.6616 48.707 54.7075 48.7334C54.8271 48.9713 54.8883 49.2537 55.0635 49.3997C55.236 49.5444 55.2346 49.696 55.2833 49.8643C55.3042 49.9338 55.421 49.9756 55.5309 50.0563C55.5615 50.1884 55.4892 50.4207 55.741 50.5195C55.7771 50.5334 55.7674 50.6655 55.7771 50.742C55.791 50.8491 55.7771 50.9618 55.9343 50.9896C55.9677 50.9952 55.9899 51.1023 56.0039 51.1663C56.0511 51.3749 55.9649 51.6211 56.2167 51.7713C56.2668 51.8019 56.2334 51.9647 56.2487 52.0648C56.2737 52.2276 56.2417 52.4168 56.4601 52.4919C56.4949 52.503 56.5116 52.5976 56.5157 52.656C56.5352 52.898 56.5366 53.1429 56.5686 53.3821C56.5839 53.4948 56.6576 53.5977 56.7007 53.7076C56.723 53.7632 56.748 53.823 56.748 53.8815C56.7508 54.6813 56.7508 55.4825 56.7494 56.2823C56.7494 56.3213 56.7578 56.3783 56.7369 56.3964C56.4559 56.6384 56.5658 56.9722 56.5171 57.2699C56.5046 57.345 56.4212 57.4034 56.3892 57.4786C56.3321 57.6163 56.2821 57.7582 56.2459 57.9028C56.2153 58.028 56.2821 58.1852 56.0762 58.2394C56.0317 58.2506 56.0205 58.4175 56.0094 58.5148C55.9983 58.6164 56.0192 58.7207 55.8661 58.7374C55.8328 58.7416 55.7938 58.8264 55.7841 58.8807C55.766 58.9711 55.7688 59.0657 55.7632 59.1589C55.7423 59.1464 55.7215 59.1338 55.6992 59.1227L55.7006 59.1185ZM47.2601 53.7076C47.2518 53.8356 47.2504 53.9455 47.2351 54.0526C47.2281 54.0999 47.2045 54.1611 47.1683 54.1847C46.9569 54.3182 46.8456 54.5144 46.7872 54.7494C46.7441 54.9261 46.8456 55.182 46.534 55.214C46.5243 55.214 46.5104 55.2391 46.5104 55.2516C46.502 55.4714 46.4533 55.6578 46.2836 55.833C46.2016 55.9179 46.2586 56.1349 46.2419 56.2907C46.2363 56.3463 46.2113 56.4395 46.1793 56.4478C46.018 56.4882 46.0263 56.612 46.0249 56.726C46.0207 57.3464 46.0138 57.9654 46.0249 58.5858C46.0277 58.7304 46.0402 58.8709 46.1932 58.9947C46.3003 59.081 46.4686 59.1783 46.5034 59.2743C46.5855 59.4997 46.7399 59.4858 46.9082 59.5066C46.9569 59.5122 47.0028 59.5456 47.0487 59.5692C47.1502 59.6235 47.2518 59.7264 47.3533 59.7292C48.0669 59.7403 48.7819 59.732 49.4968 59.7264C49.565 59.7264 49.6763 59.7139 49.6929 59.6749C49.7917 59.444 49.9892 59.5303 50.1548 59.4997C50.2716 59.4774 50.433 59.4357 50.4789 59.3508C50.5428 59.234 50.6082 59.2229 50.7153 59.2145C50.821 59.2076 50.949 59.2076 51.0241 59.1491C51.1563 59.0476 51.2522 58.9015 51.3691 58.7805C51.3913 58.7569 51.4456 58.7471 51.479 58.7555C51.8045 58.8292 51.8448 58.487 52.0381 58.366C52.2176 58.2533 52.3469 58.06 52.4986 57.9014C52.5626 57.868 52.5737 57.7359 52.6098 57.7303C52.831 57.69 52.7851 57.505 52.831 57.3687C52.8435 57.3325 52.8588 57.2727 52.8783 57.2699C53.0953 57.2435 53.023 57.0682 53.0577 56.9444C53.0786 56.8665 53.1259 56.7427 53.1732 56.7358C53.3179 56.7163 53.322 56.6342 53.3359 56.5257C53.3471 56.4311 53.3818 56.338 53.4194 56.2503C53.457 56.1599 53.5515 56.0778 53.5515 55.9902C53.5627 55.1973 53.5641 54.4059 53.5557 53.613C53.5557 53.4948 53.4973 53.3751 53.457 53.2583C53.4222 53.1582 53.3596 53.065 53.3387 52.962C53.3151 52.848 53.3387 52.7256 53.3165 52.6115C53.3067 52.5572 53.2455 52.4738 53.2038 52.471C53.0536 52.4599 53.0313 52.3667 53.055 52.261C53.1398 51.8645 52.7336 51.6267 52.7392 51.2581C52.7392 51.2442 52.7044 51.2302 52.6891 51.2136C52.5194 51.0286 52.5097 50.742 52.2913 50.5848C52.2551 50.5598 52.2565 50.4513 52.2315 50.4485C52.0521 50.4207 52.0868 50.2746 52.0521 50.162C52.0312 50.0938 51.995 50.0298 51.9589 49.9672C51.9199 49.9032 51.8726 49.8448 51.8267 49.785C51.7961 49.7461 51.7613 49.7099 51.7321 49.6709C51.6862 49.6111 51.6097 49.5513 51.6056 49.4873C51.5944 49.2996 51.5346 49.1758 51.3858 49.1758C51.3079 49.0645 51.2578 48.9296 51.2022 48.9282C51.0436 48.9226 50.8196 48.8377 50.7835 49.1229C50.7793 49.1563 50.7209 49.1813 50.6917 49.2133C50.5568 49.3622 50.4107 49.504 50.2925 49.6654C50.1784 49.8198 50.0949 49.9964 49.9934 50.1606C49.9809 50.1814 49.935 50.1773 49.9099 50.194C49.7305 50.3136 49.5177 50.4249 49.5232 50.6739C49.5274 50.9284 49.2339 50.959 49.1964 51.169C48.9279 51.1524 48.9599 51.457 48.7777 51.5641C48.6094 51.6615 48.4438 51.8701 48.4967 52.1316C48.4995 52.1469 48.4703 52.1872 48.4605 52.1859C48.2199 52.1455 48.1462 52.4042 48.0766 52.503C47.964 52.6657 47.9347 52.9008 47.7706 53.058C47.7219 53.1053 47.6844 53.1651 47.6468 53.2221C47.6106 53.275 47.5661 53.3279 47.5494 53.3877C47.5244 53.4753 47.5216 53.5699 47.5091 53.6631C47.427 53.6784 47.3589 53.6909 47.2643 53.7076H47.2601Z" fill="white"/>
<path d="M27.3621 27.0048C27.4303 26.9255 27.4942 26.842 27.5666 26.7683C27.689 26.6445 27.8253 26.5346 27.9408 26.4053C28.0423 26.2898 28.1313 26.1604 28.2106 26.0269C28.2913 25.8906 28.2329 25.6861 28.4944 25.6402C28.6084 25.6207 28.678 25.3884 28.7851 25.2688C28.9061 25.1353 29.048 25.0212 29.1773 24.8974C29.2664 24.8126 29.4041 24.7361 29.4277 24.6345C29.4764 24.4259 29.7977 24.4718 29.7755 24.22C29.7755 24.2047 29.8492 24.1811 29.8895 24.1644C29.9313 24.1477 29.9883 24.1449 30.0147 24.1157C30.1218 23.9961 30.2164 23.8639 30.3235 23.7443C30.3499 23.7151 30.4084 23.7109 30.4529 23.704C30.5989 23.6831 30.7728 23.7332 30.8243 23.5092C30.8312 23.4772 30.9773 23.4675 31.058 23.4647C31.1748 23.4605 31.2736 23.4578 31.2944 23.302C31.3 23.2588 31.389 23.1962 31.4405 23.1949C31.7381 23.1837 32.0372 23.1879 32.3349 23.1879C32.3655 23.1879 32.41 23.1837 32.4253 23.2018C32.6075 23.4091 32.7856 23.6205 32.9636 23.8305C32.9831 23.8528 32.9914 23.9084 33.0053 23.9084C33.1709 23.9098 33.2432 24.01 33.2974 24.1491C33.3086 24.1769 33.3976 24.1741 33.4505 24.1852C33.4393 24.2019 33.4268 24.22 33.4157 24.2367C33.5103 24.3104 33.6382 24.3647 33.6939 24.4607C33.8497 24.7347 34.2113 24.7945 34.3337 25.113C34.3643 25.1923 34.5785 25.202 34.7329 25.2521C34.7413 25.3175 34.7399 25.4135 34.7705 25.4983C34.7928 25.5595 34.8554 25.6068 34.9013 25.6611C34.9332 25.6986 34.9666 25.7362 34.9986 25.7737C35.0515 25.8349 35.1071 25.8948 35.153 25.9601C35.1989 26.0255 35.2351 26.0992 35.2838 26.1827C35.3339 26.191 35.402 26.2036 35.4159 26.2063C35.5522 26.4665 35.6176 26.7558 35.7984 26.8907C35.9765 27.0229 35.9514 27.1828 36.0321 27.3205C36.1184 27.468 36.2672 27.5792 36.3854 27.7086C36.423 27.7503 36.4814 27.8004 36.48 27.8449C36.4717 28.144 36.5663 28.4403 36.7721 28.61C36.9613 28.7658 36.9488 28.9243 36.9738 29.1052C36.978 29.1385 37.0086 29.1956 37.0309 29.197C37.3021 29.2137 37.2312 29.4237 37.2534 29.5809C37.2771 29.7339 37.1727 29.9439 37.444 29.987C37.4635 29.9898 37.4774 30.0844 37.4801 30.1359C37.4871 30.2764 37.4662 30.4224 37.4968 30.5574C37.5274 30.6909 37.6095 30.8119 37.6638 30.9399C37.6888 31.0011 37.7138 31.0678 37.7166 31.1318C37.7263 31.3669 37.7138 31.6034 37.7319 31.8371C37.743 31.9748 37.725 32.1431 37.9267 32.1959C37.9614 32.2057 37.9837 32.3156 37.9865 32.3795C37.9962 32.7162 38.0018 33.0542 38.0018 33.3922C38.0018 33.5202 38.0282 33.6648 37.8404 33.7107C37.807 33.7191 37.7792 33.815 37.7764 33.8735C37.7528 34.2323 37.743 34.594 37.7124 34.9515C37.7055 35.0322 37.6262 35.1045 37.5873 35.1838C37.5525 35.2561 37.5191 35.3312 37.5038 35.4091C37.4621 35.6192 37.5525 35.8612 37.323 36.0253C37.2687 36.0643 37.2701 36.1839 37.2492 36.266C37.2423 36.2966 37.252 36.3522 37.2409 36.3564C36.9655 36.4496 37.0322 36.7695 36.8584 36.9309C36.818 36.9684 36.7777 37.0366 36.7819 37.088C36.8027 37.3523 36.5816 37.5248 36.4453 37.625C36.1893 37.8141 36.0446 38.027 35.964 38.3149C35.9542 38.3511 35.9097 38.3817 35.8749 38.4053C35.8443 38.4262 35.772 38.4387 35.7734 38.4429C35.8193 38.6752 35.5036 38.664 35.491 38.8588C35.4896 38.8838 35.4215 38.9019 35.3881 38.9269C35.3297 38.9714 35.2754 39.0201 35.2198 39.0674C35.1836 39.098 35.1502 39.1356 35.1113 39.1606C35.0751 39.1843 34.9958 39.1968 34.9958 39.2162C34.9903 39.4791 34.7941 39.4458 34.6286 39.4625C34.5911 39.4666 34.5438 39.4736 34.5215 39.4972C34.4102 39.6182 34.3198 39.7601 34.196 39.8644C34.1348 39.9159 34.0166 39.8937 33.9317 39.9256C33.8566 39.9549 33.794 40.0161 33.7217 40.055C33.6466 40.0953 33.5701 40.1413 33.4894 40.1566C33.3795 40.1774 33.2766 40.1663 33.2515 40.3235C33.2446 40.3694 33.1333 40.4181 33.0638 40.432C32.9261 40.4612 32.7661 40.4111 32.7035 40.6156C32.6896 40.6587 32.5185 40.6434 32.4267 40.674C32.3446 40.7018 32.2723 40.7588 32.1958 40.8034C32.1401 40.8354 32.0873 40.8896 32.0289 40.8952C31.8647 40.9105 31.6992 40.9035 31.5351 40.9119C31.3918 40.9174 31.2277 40.8813 31.204 41.1122C31.2012 41.1455 31.0482 41.1859 30.9648 41.1859C29.9758 41.1914 28.9868 41.1887 27.9964 41.1887C27.8392 41.1887 27.682 41.1845 27.5248 41.1887C27.3871 41.1914 27.2633 41.2012 27.2272 41.0092C27.2188 40.9647 27.0756 40.9327 26.9907 40.9174C26.7974 40.8799 26.5609 40.9828 26.4399 40.7213C26.4218 40.6837 26.3036 40.7018 26.241 40.674C26.1672 40.6406 26.1033 40.585 26.0337 40.5391C25.9864 40.5071 25.9391 40.4737 25.8904 40.4473C25.8515 40.4264 25.7722 40.4153 25.7708 40.3972C25.7597 40.1468 25.5719 40.1635 25.405 40.1399C25.3688 40.1343 25.3382 40.0856 25.3076 40.0536C25.1518 39.8923 25.0336 39.717 24.9251 39.5111C24.8041 39.283 24.5843 39.0952 24.4647 38.8351C24.3882 38.6696 24.2185 38.5472 24.0947 38.4025C24.0627 38.365 24.0349 38.3149 24.0265 38.2676C23.989 38.0395 24.0418 37.7835 23.8012 37.618C23.7622 37.5916 23.7942 37.4789 23.7678 37.4163C23.7344 37.3342 23.6732 37.2633 23.6301 37.184C23.5995 37.127 23.5578 37.0658 23.5578 37.006C23.5536 36.2215 23.555 35.4369 23.5578 34.6524C23.5578 34.5982 23.5438 34.5175 23.5731 34.4925C23.8499 34.256 23.7483 33.9319 23.79 33.6398C23.8012 33.5605 23.8721 33.4896 23.8972 33.4103C23.9431 33.2656 23.9834 33.1182 24.0126 32.9693C24.0376 32.8469 23.989 32.7106 24.1712 32.6452C24.2268 32.6257 24.231 32.4519 24.2491 32.3476C24.2783 32.1792 24.1823 31.9511 24.4744 31.9136C24.4967 31.9108 24.5217 31.8371 24.5273 31.7939C24.5481 31.6465 24.5092 31.4726 24.7262 31.4239C24.7484 31.4184 24.754 31.3252 24.7637 31.2723C24.7874 31.1318 24.7151 30.9538 24.9501 30.9023C24.9905 30.894 24.9933 30.7187 25.0155 30.6213C25.0294 30.5629 25.0433 30.4558 25.0614 30.4544C25.3229 30.4433 25.2812 30.2458 25.3104 30.083C25.3174 30.0399 25.366 29.9996 25.4022 29.9662C25.4231 29.9467 25.4718 29.9509 25.4857 29.93C25.5677 29.802 25.6568 29.6741 25.7166 29.535C25.7792 29.3889 25.7639 29.2429 25.9767 29.1511C26.1255 29.0857 26.177 28.8019 26.2785 28.6197C26.3161 28.5529 26.3787 28.5001 26.4134 28.4319C26.4566 28.3471 26.4955 28.2567 26.5136 28.1649C26.5372 28.0494 26.5859 27.9952 26.6861 27.9131C26.828 27.7962 27.0436 27.6752 27.0408 27.4262C27.0408 27.3136 27.0213 27.187 27.2021 27.1689C27.2439 27.1647 27.2731 27.0493 27.3079 26.9839C27.3259 26.9895 27.344 26.995 27.3621 27.0006V27.0048ZM28.4206 31.8997C28.219 31.876 28.2106 32.0471 28.1967 32.2168C28.1911 32.278 28.187 32.3851 28.1633 32.3907C27.9366 32.4463 27.988 32.6327 27.9574 32.7829C27.9491 32.8233 27.9171 32.8859 27.8907 32.89C27.7279 32.9095 27.7585 33.0291 27.7377 33.1348C27.7196 33.2336 27.6806 33.3296 27.6375 33.42C27.6027 33.4937 27.5165 33.5563 27.5095 33.6287C27.4901 33.8039 27.504 33.9834 27.504 34.1739C27.2759 34.1544 27.2188 34.2602 27.2202 34.4271C27.2202 34.6149 27.2202 34.804 27.2077 34.9918C27.2035 35.0558 27.1715 35.1184 27.1437 35.1782C27.1089 35.2505 27.0394 35.3159 27.031 35.3896C27.0046 35.6386 26.9935 35.889 26.9907 36.138C26.9893 36.2701 26.9601 36.4301 27.159 36.4774C27.1854 36.483 27.2091 36.5734 27.2035 36.6207C27.1757 36.8349 27.2397 36.967 27.4692 36.9559C27.4929 37.0477 27.4887 37.1506 27.536 37.191C27.6681 37.3009 27.8754 37.3523 27.9588 37.4845C28.1188 37.7376 28.3469 37.6625 28.5597 37.6931C28.6293 37.7029 28.7447 37.7335 28.7531 37.7724C28.7948 37.9616 28.9297 37.9449 29.0633 37.9463C29.322 37.9477 29.5821 37.9546 29.8408 37.9449C29.9076 37.9421 30.0161 37.899 30.0286 37.8531C30.0704 37.6959 30.1775 37.6917 30.2999 37.6917C30.457 37.6917 30.6142 37.6903 30.7714 37.682C30.8479 37.6778 30.9759 37.6764 30.9912 37.6403C31.0858 37.3927 31.293 37.4775 31.4669 37.4483C31.5657 37.4316 31.6589 37.3801 31.7507 37.337C31.8244 37.3022 31.8912 37.248 31.9663 37.2174C32.0497 37.184 32.2153 37.1645 32.2153 37.1465C32.2 36.8613 32.6173 36.9823 32.6089 36.718C32.7967 36.6972 32.9998 36.7055 33.0665 36.4663C33.3461 36.5205 33.2766 36.1561 33.5005 36.106C33.6049 36.0824 33.7008 35.9168 33.7523 35.7958C33.8107 35.6553 33.7579 35.4536 34.0068 35.4536C34.0221 35.4536 34.0361 35.3896 34.0514 35.3549C34.1404 35.1532 34.3616 35.0127 34.3254 34.754C34.3254 34.747 34.3476 34.7289 34.3602 34.7275C34.5285 34.7053 34.4951 34.5703 34.5215 34.4591C34.5674 34.2602 34.4255 33.9903 34.7343 33.8846C34.7538 33.8776 34.7622 33.8137 34.7622 33.7747C34.7747 33.203 34.7844 32.6313 34.7914 32.0596C34.7914 32.0193 34.7622 31.9456 34.7371 31.9414C34.4798 31.8997 34.5048 31.6882 34.5368 31.5394C34.6384 31.0665 34.285 30.6978 34.2739 30.2555C34.2739 30.2346 34.2572 30.2013 34.2419 30.1971C34.0138 30.1401 34.0806 29.9481 34.0541 29.7965C34.0333 29.6824 34.0221 29.4905 33.9637 29.4738C33.7384 29.407 33.7815 29.2123 33.712 29.0704C33.6438 28.9327 33.5826 28.7546 33.4658 28.6879C33.335 28.6128 33.3155 28.5279 33.303 28.4138C33.2891 28.2831 33.3072 28.1356 33.1027 28.1356C33.0749 28.1356 33.0498 28.0411 33.022 27.991C32.9247 27.8143 32.869 27.5639 32.7202 27.4833C32.5547 27.3929 32.5491 27.2927 32.5338 27.1633C32.5143 27.0117 32.4545 26.9241 32.2806 26.9269C32.1248 26.9297 31.8216 27.148 31.7451 27.283C31.638 27.4707 31.4739 27.6265 31.4586 27.8616C31.4586 27.8769 31.3834 27.8783 31.357 27.902C31.2318 28.0118 31.1011 28.1176 30.994 28.2441C30.8869 28.3707 30.8368 28.5905 30.7088 28.6461C30.4 28.7797 30.2804 29.0092 30.2164 29.3055C30.2095 29.3388 30.1816 29.375 30.1538 29.3959C30.0245 29.4919 29.8909 29.5823 29.7629 29.6796C29.7365 29.6991 29.7393 29.7534 29.7184 29.784C29.6809 29.8424 29.6336 29.8952 29.5932 29.9523C29.5585 29.9996 29.4917 30.0552 29.5001 30.0942C29.5613 30.3682 29.2024 30.4196 29.2052 30.6672C29.2052 30.7117 29.0522 30.7424 29.0202 30.8063C28.9478 30.9468 28.9214 31.0845 28.7781 31.2125C28.6056 31.3655 28.5458 31.6451 28.4248 31.8969L28.4206 31.8997Z" fill="white"/>
<path d="M50.9045 2.97435C50.9587 2.90758 51.0102 2.83803 51.0686 2.77404C51.1006 2.73927 51.1451 2.71423 51.1813 2.68224C51.223 2.64607 51.262 2.60573 51.3023 2.56818C51.3593 2.51254 51.4164 2.45551 51.4748 2.40126C51.497 2.38179 51.5402 2.37761 51.5499 2.35536C51.6473 2.15366 51.835 2.04795 51.9922 1.90746C52.0924 1.81844 52.1967 1.69325 52.2621 1.59031C52.3525 1.44704 52.4471 1.44009 52.5709 1.4067C52.6474 1.38584 52.7114 1.31629 52.7781 1.26482C52.8073 1.24257 52.8282 1.21057 52.8574 1.18693C52.9437 1.11877 53.0313 1.05339 53.1189 0.988016L53.0786 0.898993C53.2024 0.898993 53.3262 0.905948 53.4486 0.897602C53.5766 0.889256 53.7212 0.912903 53.7699 0.729292C53.7783 0.695909 53.8687 0.672262 53.9243 0.665307C54.1483 0.634705 54.4223 0.757112 54.5516 0.449704C54.9578 0.446922 55.364 0.44414 55.7701 0.442749C55.9649 0.804406 56.3071 0.619404 56.5867 0.662525C56.6326 0.66948 56.6798 0.662525 56.7424 0.662525C56.7786 1.01166 57.0665 0.854481 57.2084 0.957414C57.3628 1.13129 57.5158 1.30516 57.6702 1.47903L57.7342 1.4387C57.7453 1.5458 57.7495 1.6543 57.769 1.76001C57.7787 1.81565 57.8135 1.91163 57.8399 1.91302C58.0611 1.92276 58.018 2.08272 58.0347 2.21765C58.0569 2.40404 57.9679 2.63355 58.2308 2.73788C58.26 2.74901 58.2614 2.85333 58.2614 2.91453C58.2642 3.51127 58.2642 4.108 58.2628 4.70334C58.2628 4.74229 58.2725 4.79654 58.2517 4.8188C57.9512 5.13594 58.0694 5.53515 58.0333 5.90377C58.0222 6.02339 58.0625 6.16527 57.8622 6.17223C57.8288 6.17223 57.7773 6.25708 57.7704 6.30715C57.7509 6.43095 57.7537 6.55753 57.7467 6.68272C57.744 6.73697 57.7495 6.83294 57.7273 6.8399C57.4352 6.93588 57.552 7.1946 57.4991 7.40186C57.3183 7.39629 57.2752 7.51175 57.2752 7.67032C57.2752 7.7816 57.2724 7.89983 57.1055 7.89009C57.0777 7.8887 57.0373 7.904 57.0234 7.92487C56.8496 8.20724 56.6826 8.49517 56.5046 8.77615C56.474 8.82345 56.4003 8.86657 56.3432 8.86935C56.1318 8.88326 55.9051 8.92638 55.7117 8.86935C55.5059 8.80815 55.3445 8.6148 55.108 8.58698C55.0913 8.58559 55.09 8.48544 55.076 8.43397C55.0427 8.31295 55.1122 8.13769 54.8896 8.10292C54.8702 8.10013 54.8604 7.719 54.898 7.70788C55.0899 7.65641 55.0649 7.52287 55.0705 7.39629C55.076 7.27806 55.0566 7.15148 55.2318 7.14174C55.2499 7.14174 55.2805 7.10975 55.2791 7.09723C55.2277 6.71193 55.702 6.49354 55.6004 6.09016C55.5907 6.05121 55.6116 5.96775 55.6324 5.96219C55.8856 5.90516 55.8007 5.70068 55.8216 5.54489C55.8425 5.3891 55.7938 5.21105 55.9816 5.11229C56.008 5.09838 56.0122 5.02605 56.015 4.98015C56.0317 4.68248 56.0428 4.38481 56.0595 4.08853C56.0678 3.93552 55.9969 3.87571 55.8466 3.88683C55.7368 3.89518 55.6213 3.87431 55.5184 3.90353C55.2833 3.97029 55.1053 4.19702 54.8298 4.15947C54.7992 4.43071 54.56 4.36533 54.4014 4.44462C54.2554 4.51556 54.1719 4.71447 54.0272 4.78402C53.7783 4.90365 53.7824 5.1262 53.6976 5.32929C53.6447 5.45587 53.4667 5.52959 53.3512 5.63252C53.3151 5.66452 53.2928 5.71459 53.2705 5.76049C53.2497 5.80083 53.2385 5.8829 53.2232 5.8829C53.0424 5.88151 53.0049 6.01365 52.9464 6.14162C52.8964 6.25429 52.8004 6.35027 52.7698 6.46572C52.7406 6.57422 52.7559 6.68133 52.6015 6.69524C52.5737 6.69802 52.5431 6.7787 52.5333 6.82738C52.5152 6.91779 52.5111 7.01099 52.4985 7.1181C52.3066 7.11392 52.2356 7.20851 52.2398 7.39073C52.2426 7.50896 52.2398 7.65224 52.0646 7.6731C52.0659 7.94434 51.835 8.121 51.7766 8.36442C51.7502 8.47709 51.7697 8.5995 51.753 8.71495C51.7446 8.7692 51.7043 8.81788 51.6751 8.86796C51.6306 8.94446 51.561 9.01401 51.5443 9.09608C51.5179 9.2171 51.536 9.34646 51.5193 9.47026C51.5123 9.52311 51.4678 9.61492 51.44 9.61492C51.2314 9.61492 51.255 9.7568 51.2453 9.89173C51.23 10.0934 51.3245 10.3285 51.0603 10.462C51.0157 10.4843 51.0227 10.622 51.0185 10.7082C51.0102 10.8487 51.0116 10.9906 51.0074 11.1311C51.0032 11.2591 51.0297 11.3829 50.8822 11.4802C50.8154 11.5247 50.8057 11.6791 50.7988 11.7849C50.7807 12.0825 50.7848 12.3816 50.764 12.6779C50.7584 12.7544 50.6889 12.8267 50.6471 12.9004C50.6151 12.9575 50.5525 13.0117 50.5512 13.0687C50.5428 13.3887 50.5498 13.71 50.5512 14.0299C50.5512 14.0522 50.5553 14.0897 50.5679 14.0967C50.8725 14.2427 50.7862 14.5321 50.7654 14.7532C50.725 15.1636 50.9698 15.4682 51.0881 15.8173C51.1076 15.8758 51.2564 15.905 51.3496 15.9189C51.4567 15.9342 51.5694 15.9077 51.6111 16.0566C51.6167 16.0774 51.7794 16.0872 51.7864 16.0705C51.8517 15.898 51.995 15.93 52.1244 15.9258C52.2732 15.9203 52.4248 15.9328 52.5709 15.9077C52.6557 15.8924 52.7281 15.8145 52.8115 15.7756C52.8978 15.7367 52.9882 15.6991 53.0814 15.6838C53.1885 15.6657 53.3053 15.6935 53.3317 15.535C53.3373 15.5044 53.3929 15.4612 53.4291 15.4585C53.5946 15.4418 53.7685 15.4515 53.7866 15.2164C53.7866 15.1997 53.8339 15.1803 53.8617 15.1733C53.8909 15.165 53.9354 15.183 53.9535 15.1663C54.119 15.0245 54.2929 14.916 54.5155 14.8729C54.5447 14.8673 54.5433 14.6113 54.5196 14.4792C54.5127 14.4416 54.3805 14.4055 54.304 14.4027C53.9591 14.3888 53.6127 14.3944 53.2678 14.3749C53.1926 14.3707 53.1245 14.2872 53.0466 14.258C52.9311 14.2135 52.8101 14.1774 52.6891 14.1537C52.5305 14.1217 52.3108 14.2358 52.2635 13.9618C52.2635 13.9562 52.2523 13.9451 52.2468 13.9465C51.9894 13.9771 51.8476 13.8101 51.7071 13.6377C51.6723 13.5945 51.6027 13.5514 51.6055 13.5125C51.6222 13.2802 51.4734 13.0089 51.7488 12.8295C51.7599 12.8225 51.7613 12.8017 51.7669 12.7864C51.8684 12.536 51.9686 12.2856 52.0743 12.0366C52.091 11.9977 52.1244 11.942 52.155 11.9379C52.2788 11.924 52.4053 11.9295 52.5305 11.9212C52.6641 11.9128 52.7392 11.9601 52.8046 12.0853C52.8324 12.1368 52.9729 12.1465 53.0619 12.1465C54.3027 12.1535 55.5434 12.1563 56.7842 12.159C57.1375 12.159 57.4908 12.1618 57.8441 12.1576C57.9679 12.1563 58.0222 12.191 58.0388 12.326C58.0555 12.4623 58.0388 12.632 58.2294 12.6918C58.2586 12.7015 58.267 12.8031 58.2684 12.8629C58.2739 13.098 58.2809 13.3344 58.2684 13.5695C58.26 13.7114 58.3184 13.8908 58.0987 13.9576C58.0639 13.9687 58.0541 14.0981 58.0514 14.1732C58.0402 14.5265 58.0402 14.8798 58.0277 15.2317C58.0249 15.2929 58.0013 15.3889 57.9582 15.4084C57.7078 15.5266 57.5909 15.7353 57.5256 15.9856C57.5158 16.0232 57.513 16.0621 57.5075 16.1011C57.4894 16.0914 57.4713 16.0802 57.4532 16.0705C57.3934 16.1567 57.3364 16.2471 57.271 16.3292C57.2404 16.3668 57.1876 16.3849 57.15 16.4155C57.1013 16.4544 57.0568 16.4989 57.0109 16.5406C56.8843 16.6561 56.7591 16.7729 56.6312 16.8884C56.6214 16.8981 56.588 16.8967 56.588 16.8995C56.5964 17.1402 56.3001 17.1221 56.2417 17.3057C56.2347 17.3279 56.225 17.3669 56.2166 17.3669C55.9913 17.3669 55.8369 17.499 55.6867 17.6437C55.6519 17.6771 55.5615 17.6938 55.5615 17.7188C55.5643 17.9539 55.3876 17.9024 55.2513 17.9372C55.1692 17.9581 55.108 18.0526 55.026 18.0805C54.8201 18.1514 54.7505 18.4491 54.4737 18.399C54.3666 18.3795 54.286 18.4129 54.254 18.5492C54.2415 18.6035 54.126 18.6536 54.0481 18.6702C53.9187 18.6995 53.763 18.641 53.7143 18.8469C53.7045 18.8858 53.5515 18.8928 53.4625 18.9109C53.2831 18.9471 53.041 18.8163 52.9534 19.1084C52.945 19.1348 52.8393 19.1432 52.7795 19.1432C52.0256 19.1446 51.2717 19.1474 50.5178 19.1376C50.4454 19.1376 50.3731 19.0611 50.3036 19.0152C50.2799 18.9999 50.2618 18.9415 50.2507 18.9443C49.9322 19.0208 49.7625 18.6675 49.4676 18.6716C49.4175 18.6716 49.3271 18.6118 49.3215 18.5701C49.3021 18.4213 49.2116 18.4046 49.0906 18.399C48.9668 18.3934 48.8875 18.3225 48.7846 18.2432C48.5926 18.0944 48.5954 17.8996 48.4953 17.7397C48.4257 17.6312 48.3047 17.5004 48.2018 17.442C48.0669 17.3641 48.0627 17.2807 48.046 17.1694C48.0279 17.0525 48.0655 16.9148 47.8832 16.8717C47.8457 16.8634 47.8304 16.7256 47.8193 16.645C47.8054 16.5379 47.8248 16.4224 47.6649 16.4002C47.6343 16.396 47.5995 16.3028 47.5953 16.2485C47.5828 16.0761 47.5911 15.9036 47.5758 15.7311C47.5647 15.5989 47.5953 15.4348 47.3797 15.4153C47.3519 15.4126 47.3129 15.3166 47.3129 15.2623C47.3088 13.952 47.3088 12.6417 47.3102 11.33C47.3102 11.2799 47.3296 11.1923 47.3561 11.1853C47.6064 11.1255 47.5564 10.9169 47.5744 10.75C47.5925 10.5789 47.58 10.405 47.5884 10.2325C47.5953 10.1073 47.5536 9.95988 47.7414 9.90842C47.7747 9.90007 47.7956 9.8027 47.7998 9.74428C47.8137 9.5565 47.8165 9.36871 47.8276 9.17954C47.8346 9.05992 47.8095 8.9389 47.9723 8.86935C48.0307 8.84431 48.0321 8.67461 48.0502 8.57029C48.0794 8.39641 48.0126 8.2128 48.2101 8.06814C48.2908 8.00833 48.2644 7.80385 48.288 7.66476C48.2992 7.5966 48.3005 7.47697 48.3311 7.47002C48.6135 7.39351 48.5287 7.15426 48.5662 6.97065C48.5913 6.84825 48.544 6.68967 48.7401 6.66603C48.7512 6.66464 48.7721 6.64238 48.7707 6.63403C48.7011 6.30298 49.0531 6.11937 49.0558 5.80222C49.0558 5.67425 49.1894 5.54767 49.2603 5.4197C49.3646 5.22775 49.4606 5.02883 49.5733 4.84105C49.6623 4.695 49.7694 4.56007 49.871 4.42236C49.9238 4.35003 50.0128 4.29022 50.0351 4.21093C50.1033 3.96473 50.3036 3.83259 50.451 3.65176C50.6179 3.44728 50.8947 3.28871 50.8321 2.94792C50.8572 2.95626 50.8822 2.96322 50.9073 2.97156L50.9045 2.97435Z" fill="white"/>
<path d="M20.407 33.647C20.2971 33.647 20.2053 33.6804 20.1511 33.8598C20.1121 33.9906 19.9132 34.0671 19.8019 34.1839C19.6851 34.3063 19.5877 34.4482 19.4792 34.5804C19.4486 34.6179 19.4138 34.6541 19.3763 34.6847C19.3137 34.7362 19.2469 34.7807 19.1843 34.8321C19.1676 34.846 19.1565 34.8878 19.1468 34.8864C18.895 34.86 18.7698 35.0978 18.5639 35.1646C18.557 35.1674 18.5445 35.1646 18.5417 35.1688C18.4652 35.2592 18.4068 35.3774 18.3108 35.433C18.2148 35.4901 18.059 35.4275 18.0089 35.5986C17.9964 35.6417 17.9004 35.6584 17.8448 35.6918C17.7975 35.721 17.7141 35.7641 17.7182 35.7905C17.7266 35.8448 17.7766 35.8976 17.8198 35.9421C17.8601 35.9825 17.9561 36.0145 17.9533 36.0423C17.9283 36.2968 18.1105 36.454 18.2371 36.6237C18.3372 36.7573 18.5 36.8435 18.6363 36.9506C18.6599 36.9687 18.6975 36.9868 18.7017 37.0104C18.7364 37.2079 18.7225 37.4208 18.9548 37.5334C19.0313 37.571 19.0758 37.6739 19.1579 37.7323C19.169 38.101 19.4542 38.2748 19.7129 38.5266C19.7129 38.802 19.8701 39.0371 20.1413 39.2082C20.1678 39.2249 20.1872 39.2708 20.1928 39.3042C20.2206 39.4808 20.2387 39.6352 20.4459 39.734C20.5697 39.7924 20.6115 40.0094 20.7297 40.1026C21.204 40.4782 20.8619 40.9622 20.9453 41.3225C20.8201 41.4505 20.7381 41.5339 20.656 41.6188C20.5002 41.6911 20.2568 41.6229 20.2025 41.9081C20.1984 41.9276 20.1205 41.9429 20.0759 41.9443C19.8186 41.947 19.5599 41.9456 19.3916 41.9456C19.1899 41.7342 19.0271 41.584 18.8908 41.4143C18.8296 41.3392 18.8046 41.2251 18.7907 41.1264C18.7754 41.0109 18.7768 40.9024 18.6168 40.9066C18.5904 40.9066 18.5403 40.8829 18.5389 40.8662C18.5222 40.6562 18.4443 40.4893 18.2844 40.3377C18.2259 40.2834 18.2343 40.1499 18.1007 40.1485C18.0882 40.1485 18.066 40.1332 18.0646 40.1235C18.0354 39.9065 17.9616 39.727 17.7558 39.6074C17.5763 39.5017 17.5541 39.243 17.351 39.1428C17.3162 39.1261 17.3023 39.051 17.2954 39.0009C17.2759 38.8549 17.2884 38.6921 17.0686 38.6893C17.0492 38.6893 17.0241 38.6504 17.013 38.624C16.924 38.4264 16.885 38.1747 16.739 38.0411C16.5693 37.8854 16.5345 37.7031 16.4566 37.5209C16.4399 37.482 16.2841 37.45 16.266 37.4736C16.1645 37.6002 16.0184 37.7407 16.0101 37.884C15.9753 38.4946 15.9823 39.1066 15.9795 39.7187C15.9767 40.1972 15.9795 40.6743 15.9225 41.1277C15.832 41.214 15.7416 41.2988 15.6526 41.3851C15.661 41.4018 15.6679 41.4185 15.6763 41.4352C15.5358 41.4352 15.3953 41.4324 15.2562 41.4352C15.1324 41.4393 15.0058 41.4296 14.9488 41.5909C14.9349 41.6299 14.8305 41.6535 14.7666 41.6563C14.5162 41.6647 14.2644 41.6633 14.0126 41.6619C13.8777 41.6619 13.7247 41.705 13.6732 41.5033C13.6649 41.4699 13.5675 41.4463 13.5091 41.4421C13.3366 41.431 13.1627 41.4463 12.993 41.4212C12.9138 41.4087 12.8442 41.3253 12.7691 41.278C12.7037 41.2362 12.6342 41.1973 12.5354 41.1403C12.5271 41.1041 12.5118 41.029 12.4923 40.94C12.4227 40.9247 12.349 40.908 12.3379 40.9052C12.2224 40.7146 12.0986 40.5755 12.05 40.4128C12.0082 40.2765 12.036 40.1095 12.0666 39.9635C12.0959 39.8216 12.2057 39.6922 12.2169 39.5518C12.2447 39.1762 12.2391 38.7992 12.2447 38.4223C12.2461 38.3124 12.2447 38.2275 12.3838 38.1649C12.4575 38.1316 12.4979 37.9549 12.502 37.8422C12.5201 37.3874 12.5187 36.9325 12.5257 36.4777C12.5285 36.3428 12.5076 36.2162 12.6578 36.1091C12.7329 36.0562 12.7385 35.8796 12.7413 35.7571C12.7566 35.1451 12.7552 34.5331 12.7733 33.921C12.776 33.8292 12.8609 33.743 12.8901 33.6484C12.9304 33.5163 12.9805 33.3799 12.9819 33.245C12.993 32.5384 12.9875 31.8318 12.9972 31.1265C13 30.9541 12.9249 30.7399 13.1822 30.6564C13.2114 30.6467 13.2239 30.5604 13.2281 30.5076C13.2462 30.2892 13.2698 30.0694 13.2726 29.851C13.281 28.6506 13.281 27.4488 13.2935 26.2484C13.2935 26.1385 13.3505 26.0174 13.4117 25.9229C13.5119 25.7671 13.5258 24.6334 13.4173 24.4888C13.3617 24.415 13.2879 24.3302 13.2838 24.2481C13.2712 24.0061 13.2615 23.7585 13.3074 23.5234C13.3269 23.4246 13.4868 23.3551 13.5828 23.2716C13.5689 23.2466 13.555 23.2216 13.5411 23.1979C13.6329 23.1924 13.7303 23.2021 13.8151 23.1757C13.8958 23.1492 13.964 23.0825 14.0405 23.038C14.0961 23.006 14.1545 22.9601 14.2143 22.9559C14.4174 22.942 14.6219 22.9489 14.8264 22.9406C14.9835 22.9336 15.1644 22.9726 15.2395 22.7598C15.2492 22.7319 15.3355 22.718 15.3855 22.718C16.1158 22.7152 16.8461 22.7152 17.5763 22.718C17.625 22.718 17.7099 22.7375 17.7182 22.7653C17.7766 22.9684 17.945 22.9308 18.0841 22.9392C18.2802 22.9517 18.4763 22.9448 18.6724 22.9489C18.8074 22.9517 18.959 22.91 19.0021 23.12C19.0091 23.1562 19.1649 23.1757 19.2525 23.1812C19.3805 23.1882 19.514 23.1659 19.5154 23.3565C19.5154 23.3774 19.5376 23.4177 19.5446 23.4163C19.8242 23.3718 19.9522 23.6736 20.1997 23.7001C20.318 23.7126 20.4223 23.7015 20.4932 23.8642C20.5503 23.995 20.7325 24.0715 20.8605 24.1716C20.866 24.1758 20.8813 24.1744 20.8827 24.1772C20.9078 24.3997 21.154 24.4276 21.2499 24.5931C21.3223 24.7169 21.4266 24.8643 21.549 24.9061C21.6964 24.9561 21.6923 25.034 21.7048 25.1439C21.7201 25.2844 21.7006 25.4513 21.926 25.4611C21.951 25.4611 21.9774 25.6057 21.9913 25.685C22.0108 25.8018 21.9635 25.9423 22.1485 25.9799C22.1819 25.9868 22.2 26.0953 22.2153 26.1579C22.2654 26.3652 22.1277 26.6378 22.4309 26.7616C22.4559 26.7714 22.4531 26.8632 22.4531 26.9174C22.4531 27.937 22.4531 28.958 22.4448 29.9776C22.4448 30.0471 22.3599 30.1139 22.3196 30.1848C22.2876 30.2405 22.2445 30.2989 22.2362 30.3601C22.2181 30.4992 22.2681 30.6745 22.2014 30.776C22.072 30.9721 21.9482 31.153 21.958 31.3992C21.958 31.4131 21.894 31.4312 21.8592 31.4451C21.823 31.459 21.7632 31.459 21.7535 31.4826C21.6519 31.7205 21.5476 31.9597 21.4669 32.206C21.4336 32.3061 21.4725 32.4202 21.3084 32.4452C21.2611 32.4522 21.2305 32.5773 21.1832 32.6636C20.9815 32.6372 20.9398 32.7735 20.9398 32.9501C20.9398 33.06 20.9189 33.1282 20.7937 33.2005C20.6421 33.2881 20.5503 33.4787 20.4112 33.6498L20.407 33.647ZM19.3457 25.8603C19.3318 25.8658 19.3193 25.8714 19.3053 25.877C19.2622 25.8018 19.2261 25.7212 19.1746 25.6544C19.1301 25.596 19.0689 25.5515 19.0132 25.5028C18.9757 25.4708 18.9353 25.4235 18.8922 25.4165C18.7253 25.3943 18.518 25.4666 18.4694 25.2051C18.4666 25.1926 18.4137 25.1829 18.3845 25.1815C18.2148 25.1703 18.0034 25.2302 17.9895 24.9506C17.9895 24.938 17.9533 24.9241 17.9324 24.9158C17.6195 24.7962 17.4567 24.9116 17.4595 25.2496C17.4595 25.2886 17.4665 25.3303 17.4567 25.3665C17.4317 25.4583 17.4192 25.6085 17.3635 25.628C17.2147 25.6822 17.23 25.7852 17.2286 25.8909C17.223 26.3374 17.2216 26.7853 17.2133 27.2318C17.2133 27.2985 17.2022 27.4084 17.1674 27.4223C16.9309 27.5128 16.9615 27.72 16.9546 27.8967C16.9365 28.3279 16.9407 28.7591 16.9295 29.1903C16.9281 29.264 16.9045 29.3405 16.8809 29.4115C16.8322 29.5519 16.7376 29.6883 16.7292 29.8301C16.7014 30.292 16.7042 30.7552 16.6903 31.2184C16.6889 31.2865 16.6875 31.3894 16.6472 31.4145C16.4622 31.5313 16.4942 31.7149 16.4886 31.8777C16.4733 32.3242 16.4775 32.7721 16.4649 33.2186C16.4622 33.2923 16.4302 33.4092 16.3815 33.4286C16.1575 33.5177 16.1631 33.736 16.2243 33.8571C16.298 34.0003 16.4914 34.081 16.6333 34.1895C16.6374 34.1923 16.6513 34.1895 16.6555 34.1867C16.7682 34.088 16.9476 34.0045 16.9754 33.8863C17.0213 33.686 17.1465 33.7054 17.2773 33.6693C17.3482 33.6484 17.4122 33.5886 17.4692 33.5343C17.5763 33.4328 17.6584 33.2631 17.7808 33.2297C18.0437 33.1574 18.0966 32.9042 18.2691 32.7623C18.3901 32.6622 18.5083 32.5579 18.621 32.4494C18.6794 32.3923 18.7754 32.3144 18.767 32.2588C18.7253 31.9876 18.9757 31.8248 19.0925 31.7469C19.2608 31.637 19.2441 31.5285 19.2733 31.3964C19.2873 31.3324 19.3012 31.2323 19.3415 31.217C19.642 31.1015 19.7212 30.8414 19.7908 30.5715C19.8005 30.534 19.7991 30.477 19.8242 30.4644C20.0551 30.3323 19.9897 30.0986 20.0273 29.9011C20.0398 29.8343 20.044 29.723 20.0773 29.7105C20.2623 29.6479 20.2429 29.4977 20.2429 29.3628C20.2484 28.6575 20.247 27.9509 20.2484 27.2443C20.2484 26.9452 19.9118 26.763 19.9661 26.4431C19.9661 26.4361 19.9076 26.4264 19.8854 26.4083C19.8478 26.3763 19.82 26.3346 19.7852 26.2998C19.6406 26.1538 19.4945 26.0091 19.3485 25.8644L19.3457 25.8603Z" fill="white"/>
<path d="M15.2925 1.20215C15.4691 1.13399 15.7793 1.3023 15.7751 0.885003C16.23 0.885003 16.6751 0.883612 17.1216 0.885003C17.4276 0.886394 17.735 0.886394 18.0397 0.905868C18.1064 0.910041 18.1732 0.989327 18.2316 1.04218C18.2636 1.07 18.2817 1.15207 18.2998 1.15068C18.5474 1.12147 18.7379 1.24527 18.8617 1.42192C18.9772 1.58606 19.2456 1.65005 19.1997 1.92824C19.1789 2.05761 19.2025 2.19531 19.1942 2.32746C19.1858 2.46795 19.2178 2.61261 19.0551 2.72111C18.9855 2.76701 18.9841 2.93671 18.98 3.05216C18.9661 3.49171 18.9716 3.93127 18.9521 4.37082C18.948 4.47236 18.8659 4.56695 18.8325 4.66988C18.795 4.78672 18.7518 4.90635 18.7449 5.02597C18.7282 5.32364 18.731 5.62271 18.724 5.92038C18.724 5.98297 18.7365 6.08312 18.7059 6.10121C18.3652 6.30012 18.5015 6.64369 18.4709 6.91911C18.425 7.33918 18.4542 7.76622 18.4361 8.18908C18.4319 8.27393 18.3485 8.35182 18.3262 8.43946C18.2956 8.55352 18.2525 8.68705 18.2859 8.78859C18.3053 8.8498 18.4583 8.8804 18.5571 8.89987C18.6587 8.91935 18.7616 8.911 18.7824 8.76356C18.788 8.72322 18.8437 8.68566 18.8812 8.65228C18.9146 8.62307 18.9897 8.59664 18.9869 8.57716C18.9521 8.31566 19.1608 8.17517 19.2721 7.98738C19.2804 7.97487 19.2888 7.94844 19.2929 7.94844C19.5238 7.99851 19.5378 7.74396 19.6824 7.66189C19.8187 7.584 19.9105 7.41291 19.9982 7.26824C20.1025 7.09715 20.1498 6.78974 20.2792 6.75636C20.517 6.69377 20.4864 6.42391 20.6867 6.3794C20.6992 6.37662 20.7201 6.35854 20.7201 6.3488C20.6923 6.09147 20.8842 5.92177 21.0205 5.76737C21.1694 5.59767 21.2292 5.38346 21.346 5.2374C21.4851 5.06214 21.5978 4.83402 21.7745 4.71161C21.9692 4.57668 22.0318 4.42507 22.0471 4.2192C22.367 4.16634 22.157 3.73375 22.4491 3.65446C22.4741 3.6475 22.4839 3.57517 22.495 3.53066C22.5339 3.37348 22.4588 3.14536 22.7412 3.14258C22.8052 2.9075 23.0736 2.76979 23.0361 2.48047C23.0194 2.35528 23.0013 2.1967 23.2044 2.14524C23.2475 2.13411 23.2586 1.9658 23.267 1.86843C23.2767 1.75854 23.2586 1.65422 23.4242 1.63335C23.4701 1.62779 23.5118 1.49704 23.5368 1.41775C23.5688 1.31482 23.5174 1.16598 23.7024 1.1632C23.7149 1.1632 23.7344 1.14929 23.7385 1.13816C23.8276 0.897522 24.071 0.787634 24.2031 0.61237C24.3867 0.367556 24.5773 0.45797 24.7748 0.434323C24.7901 0.432932 24.8124 0.43015 24.8207 0.438496C24.9863 0.61237 25.2394 0.605415 25.4119 0.706957C25.5343 0.779288 25.7805 0.958726 25.711 1.24666C25.6678 1.42471 25.7123 1.62223 25.704 1.81001C25.697 1.95467 25.7541 2.12437 25.5385 2.20088C25.4926 2.21757 25.494 2.36919 25.4759 2.45821C25.4439 2.63069 25.5579 2.85603 25.2756 2.9381C25.2366 2.94923 25.2311 3.10919 25.2283 3.20239C25.2227 3.32062 25.2213 3.42495 25.06 3.42356C25.0308 3.42356 24.9723 3.46668 24.9737 3.48337C25.0141 3.83529 24.7011 3.97717 24.555 4.21781C24.4897 4.32491 24.4925 4.47375 24.4591 4.6212C24.2268 4.6212 24.1795 4.7909 24.1934 4.97868C24.2059 5.13586 24.0585 5.12473 24.0084 5.19846C23.8721 5.40293 23.7719 5.63105 23.6732 5.85361C23.6092 5.93151 23.5605 6.03722 23.4784 6.08451C23.2698 6.20414 23.2253 6.39331 23.1682 6.60474C23.1362 6.72298 22.9721 6.80226 22.8733 6.9052C22.8247 6.95527 22.7704 7.0123 22.7523 7.0749C22.7064 7.22651 22.7537 7.40456 22.4978 7.45046C22.3837 7.47133 22.3128 7.68554 22.2057 7.79682C22.0847 7.92201 21.9456 8.03051 21.8134 8.14596C21.7967 8.15987 21.7633 8.16126 21.7536 8.17656C21.6632 8.32957 21.5742 8.48258 21.4907 8.63837C21.4365 8.73852 21.4615 8.89014 21.2793 8.90544C21.2445 8.90822 21.2222 9.0501 21.1541 9.09461C21.0831 9.18085 21.0192 9.27405 20.9385 9.35055C20.8286 9.45627 20.7062 9.54807 20.5893 9.64822C20.5518 9.68022 20.492 9.71638 20.4892 9.75394C20.4795 9.88191 20.4071 9.90556 20.3 9.94589C20.2013 9.98345 20.1289 10.0961 20.0538 10.1851C19.9356 10.327 19.8215 10.4731 19.7144 10.6233C19.6073 10.7721 19.5085 10.9279 19.4293 11.0976C19.3194 11.1421 19.2568 11.2284 19.165 11.3271C18.9744 11.5316 18.8979 11.6179 19.1844 11.7695C19.2735 11.8168 19.3333 11.9183 19.4056 11.9948C19.4237 11.9809 19.4418 11.9684 19.4613 11.9545C19.4738 12.0546 19.4738 12.1576 19.5044 12.2522C19.5266 12.3217 19.585 12.3801 19.6337 12.4385C19.7394 12.5623 19.8507 12.6834 19.9578 12.8058C19.987 12.8391 20.0093 12.9031 20.0385 12.9059C20.1887 12.9157 20.1679 13.0241 20.1957 13.1215C20.2305 13.2467 20.2305 13.3928 20.4238 13.4331C20.5184 13.4526 20.6213 13.575 20.6631 13.6751C20.7257 13.8226 20.7924 13.9436 20.9343 14.0298C21.015 14.0799 21.072 14.1703 21.1638 14.2218C21.2681 14.6627 21.5561 14.9687 21.908 15.2191C22.0207 15.4347 22.1139 15.6642 22.2544 15.8604C22.3475 15.9911 22.5117 16.069 22.6383 16.1775C22.6758 16.2095 22.6939 16.261 22.7245 16.3013C22.7676 16.3542 22.8121 16.4056 22.8608 16.4543C22.8817 16.4752 22.9373 16.4891 22.9359 16.4988C22.89 16.7687 23.1529 16.8883 23.2322 17.0984C23.2573 17.1637 23.3658 17.1971 23.3991 17.2639C23.5688 17.4976 23.7218 17.7479 23.9138 17.9622C24.1837 18.264 24.288 18.5964 24.2129 18.9901C24.2031 19.0443 24.1892 19.1028 24.2003 19.1542C24.2615 19.4199 23.9625 19.47 23.8985 19.6633C23.8749 19.7329 23.7886 19.7843 23.7232 19.8344C23.6787 19.8678 23.6217 19.904 23.5702 19.9054C23.2726 19.9109 22.9735 19.9123 22.6758 19.8998C22.6188 19.897 22.5618 19.8316 22.5117 19.7871C22.4908 19.769 22.4922 19.7078 22.4783 19.7065C22.2349 19.6689 22.2961 19.4463 22.2168 19.3072C22.1319 19.1598 21.9817 19.0485 21.8579 18.9247C21.8287 18.8941 21.787 18.876 21.7592 18.844C21.6966 18.7731 21.6381 18.698 21.5338 18.5714C21.5018 18.3127 21.3739 18.0345 21.0678 17.8634C20.9844 17.7841 20.8995 17.709 20.8202 17.6255C20.7952 17.6005 20.7813 17.5602 20.7743 17.524C20.7423 17.3821 20.7896 17.1971 20.5615 17.1623C20.5393 17.1596 20.5393 17.0608 20.5128 17.0163C20.485 16.969 20.4447 16.9273 20.4002 16.8939C20.3654 16.8674 20.2805 16.8521 20.2819 16.8396C20.3181 16.5739 20.0886 16.4349 19.9815 16.2443C19.8925 16.0857 19.7214 15.9744 19.617 15.8284C19.446 15.5836 19.2735 15.3401 19.1024 15.0953C19.0926 15.1037 19.0829 15.112 19.0732 15.1204C18.9619 14.895 18.9035 14.5821 18.7226 14.4708C18.5724 14.379 18.5307 14.2065 18.3652 14.1383C18.2831 14.1049 18.2678 13.9158 18.2163 13.8003C18.1968 13.7558 18.1593 13.7183 18.1301 13.6779C18.0939 13.7196 18.0327 13.76 18.0271 13.8045C17.9993 14.0924 17.984 14.3804 17.9673 14.6683C17.9604 14.7837 17.9701 14.8909 17.8268 14.959C17.7684 14.9868 17.7448 15.1343 17.7434 15.2289C17.7378 16.1859 17.7448 17.1429 17.735 18.0999C17.7309 18.5297 17.6961 18.9595 17.678 19.3114C17.5681 19.4449 17.5055 19.534 17.429 19.6091C17.3956 19.6425 17.3372 19.6619 17.2885 19.6661C17.1633 19.6759 17.0368 19.6717 16.9116 19.6772C16.8573 19.68 16.7669 19.6772 16.7558 19.7037C16.6153 20.0306 16.3274 19.8734 16.102 19.9054C15.9713 19.9234 15.8349 19.9081 15.7014 19.9026C15.6555 19.9012 15.579 19.897 15.5707 19.8748C15.4524 19.5715 15.1909 19.7037 14.9851 19.6786C14.871 19.6647 14.7597 19.6981 14.7069 19.534C14.6888 19.4797 14.5302 19.4797 14.4454 19.4366C14.3758 19.4004 14.3188 19.3392 14.2562 19.2878C14.0781 19.1431 14.0531 18.8454 13.9168 18.755C13.5913 18.5366 13.8208 18.2737 13.761 18.0442C14.2381 17.5337 13.9223 16.9008 14.0239 16.3319C14.0531 16.1706 13.9975 15.9995 14.1699 15.8645C14.2395 15.8103 14.2353 15.6462 14.2409 15.5307C14.2548 15.2094 14.245 14.8867 14.2645 14.5654C14.2784 14.3205 14.1978 14.0674 14.412 13.8393C14.5024 13.7419 14.4787 13.5249 14.4815 13.3608C14.4926 12.8823 14.4913 12.4038 14.4954 11.9239C14.4954 11.807 14.5066 11.7208 14.6359 11.6373C14.7222 11.5817 14.75 11.3911 14.7541 11.259C14.7708 10.5607 14.7681 9.86244 14.782 9.16277C14.7861 8.96247 14.7764 8.77886 14.9127 8.57438C15.031 8.39634 14.9976 8.10423 14.999 7.86359C15.0087 6.05809 15.0115 4.25258 15.0157 2.44708C15.0157 2.2899 15.0129 2.13272 15.017 1.97554C15.0212 1.83644 14.9809 1.69873 15.1603 1.5958C15.2438 1.5485 15.2438 1.35655 15.2883 1.2091L15.2925 1.20215Z" fill="white"/>
<path d="M19.4764 63.4709C19.0201 63.4709 18.5973 63.4723 18.1744 63.4681C18.1271 63.4681 18.0423 63.432 18.0409 63.4083C18.02 63.1691 17.8406 63.2052 17.6917 63.2025C17.2911 63.1927 16.8905 63.1913 16.4899 63.1858C16.38 63.1858 16.2771 63.1969 16.234 63.0439C16.2201 62.9966 16.0838 62.9716 16.0003 62.959C15.8918 62.9437 15.7861 62.9646 15.761 62.8019C15.7527 62.749 15.6372 62.7128 15.558 62.6614C15.5121 62.5014 15.551 62.2802 15.3131 62.1912C15.2798 62.1787 15.2659 62.0827 15.2645 62.0243C15.2589 61.7572 15.2617 61.4902 15.2617 61.2231C15.2617 61.0909 15.2408 60.9546 15.4397 60.9254C15.4787 60.9199 15.5204 60.7835 15.5232 60.707C15.5385 60.2842 15.5371 59.8599 15.5538 59.4357C15.5566 59.3536 15.6192 59.2757 15.647 59.1922C15.6859 59.0768 15.7416 58.9613 15.7499 58.8431C15.7708 58.5385 15.7666 58.2311 15.7805 57.9251C15.7889 57.7373 15.7763 57.5662 15.9099 57.3798C16.017 57.231 15.985 56.9722 15.992 56.7622C16.0073 56.2684 16.0017 55.7732 16.0226 55.2794C16.0281 55.164 16.1157 55.0527 16.1477 54.9358C16.1853 54.8023 16.2229 54.6632 16.2256 54.5269C16.2395 53.8439 16.2423 53.1609 16.2479 52.478C16.2479 52.3597 16.2354 52.2471 16.3912 52.1956C16.4343 52.1817 16.4621 52.0648 16.4663 51.9939C16.4899 51.4848 16.5177 50.9757 16.5191 50.4652C16.5261 49.0909 16.5219 47.718 16.5191 46.3437C16.5191 46.1949 16.4983 46.0474 16.4858 45.8986C16.4579 45.5814 16.6082 45.3464 16.8891 45.2142C16.9601 45.1808 16.9893 45.0612 17.063 44.9416C17.1131 44.9416 17.2049 44.9416 17.2967 44.9416C17.4024 44.943 17.4942 44.9416 17.5276 44.8011C17.5373 44.758 17.6444 44.7149 17.7084 44.7121C18.0381 44.6982 18.3691 44.7079 18.6974 44.6843C18.7948 44.6773 18.8866 44.5911 18.9812 44.541C19.0271 44.5173 19.073 44.477 19.1189 44.4756C19.5974 44.4728 20.0773 44.4756 20.5558 44.4798C20.5933 44.4798 20.6545 44.4909 20.6629 44.5132C20.7644 44.7816 20.9953 44.6843 21.1831 44.7009C21.2916 44.7107 21.4029 44.7037 21.5128 44.7037C21.6213 44.7037 21.7326 44.6856 21.7757 44.8359C21.7868 44.8748 21.873 44.9082 21.9273 44.9138C22.0984 44.9319 22.2723 44.9374 22.4447 44.9416C22.5908 44.9458 22.7535 44.9082 22.7591 45.1461C22.7591 45.1739 22.8968 45.2114 22.9733 45.2226C23.0804 45.2365 23.2 45.2059 23.214 45.3742C23.2167 45.4048 23.271 45.4368 23.3085 45.4563C23.3336 45.4702 23.3962 45.4563 23.3976 45.4646C23.4671 45.7692 23.9178 45.5745 23.9873 45.9264C24.011 46.0446 24.2447 46.1225 24.3824 46.2171C24.4074 46.2338 24.4422 46.2408 24.4589 46.2616C24.6036 46.4397 24.7009 46.6539 24.9068 46.786C24.9569 46.818 24.9471 46.9335 24.9847 47.0002C25.025 47.0712 25.0876 47.1296 25.1433 47.1922C25.1711 47.2242 25.2086 47.2492 25.2323 47.284C25.2907 47.3716 25.3436 47.4634 25.4242 47.54C25.4966 47.6971 25.4145 47.9308 25.683 47.9976C25.7024 48.0018 25.7024 48.0977 25.7052 48.152C25.715 48.3022 25.6732 48.4705 25.9125 48.5025C25.9528 48.5081 25.9765 48.6903 25.9945 48.7932C26.0251 48.9615 25.9153 49.1827 26.1865 49.2592C26.2115 49.2662 26.2143 49.3733 26.2185 49.4345C26.2338 49.6292 26.2435 49.8253 26.2574 50.0201C26.2602 50.059 26.2616 50.1161 26.2839 50.1314C26.5356 50.2927 26.4494 50.55 26.4522 50.7684C26.4633 51.6475 26.4605 52.5266 26.4494 53.4057C26.4494 53.5115 26.359 53.613 26.32 53.7201C26.2908 53.7994 26.263 53.8829 26.256 53.9663C26.2394 54.1694 26.2407 54.3739 26.2227 54.577C26.2088 54.7314 26.2992 54.9247 26.0488 55.0054C26.0029 55.0207 26.0098 55.2057 25.9959 55.3114C25.9737 55.4811 26.0571 55.6744 25.8012 55.776C25.7261 55.8066 25.7275 56.0444 25.7052 56.1891C25.6871 56.306 25.6997 56.4033 25.5772 56.509C25.4785 56.5939 25.491 56.8095 25.4632 56.9695C25.4451 57.0738 25.4771 57.1837 25.3199 57.2254C25.2726 57.2379 25.2629 57.384 25.2323 57.4674C25.2072 57.5356 25.1808 57.6608 25.153 57.6608C24.9527 57.6663 24.961 57.7999 24.9527 57.9376C24.9457 58.0558 24.8539 58.1365 24.8039 58.2227C24.7093 58.3883 24.4533 58.4467 24.4811 58.6985C24.4937 58.8125 24.4185 58.8862 24.3017 58.9725C24.1459 59.0879 23.9748 59.2688 23.9567 59.5163C23.9512 59.5831 23.8649 59.6429 23.8149 59.7069C23.7078 59.8418 23.5993 59.9754 23.4935 60.1117C23.4713 60.1409 23.4685 60.2021 23.4435 60.2105C23.1152 60.3217 23.0178 60.6639 22.78 60.8628C22.741 60.8962 22.6937 60.9212 22.6492 60.9449C22.6089 60.9658 22.5407 60.9699 22.5282 60.9991C22.4322 61.2259 22.1665 61.3121 22.0678 61.486C21.9621 61.6724 21.6616 61.639 21.6755 61.9005C21.4683 61.945 21.4321 62.2107 21.1762 62.2399C20.9995 62.2594 20.7936 62.3985 20.7088 62.6127C20.6949 62.6461 20.6698 62.6989 20.6476 62.7017C20.4445 62.7184 20.2595 62.7573 20.1357 62.9465C20.0926 63.0105 20.0147 63.055 19.9479 63.0995C19.8965 63.1343 19.8339 63.1844 19.7782 63.1802C19.5821 63.1663 19.4555 63.2192 19.475 63.4681L19.4764 63.4709ZM22.6979 57.6886C22.8412 57.4076 22.958 57.1795 23.0721 56.95C23.1375 56.8192 23.2181 56.6913 23.2599 56.5522C23.2988 56.4172 23.2446 56.2406 23.4769 56.2322C23.5019 56.2322 23.5297 56.1182 23.545 56.0528C23.5673 55.9554 23.5492 55.7857 23.5965 55.7676C23.8455 55.6689 23.7578 55.4602 23.7857 55.2891C23.8023 55.1904 23.7912 55.0262 23.8413 55.0054C24.0569 54.915 23.9901 54.7369 24.0138 54.5853C24.0319 54.4643 24.0319 54.3377 24.068 54.2223C24.107 54.0971 24.2252 53.9816 24.2266 53.862C24.2419 52.6852 24.2419 51.5084 24.2363 50.3317C24.2363 50.2204 24.1807 50.1091 24.1417 50.0006C24.1084 49.9074 24.0499 49.8212 24.0221 49.7266C23.9776 49.5708 23.9595 49.408 23.9122 49.2523C23.8844 49.1577 23.8051 49.0784 23.7815 48.9824C23.7091 48.707 23.5492 48.5164 23.2932 48.3996C23.2056 48.0421 23.0874 47.7097 22.6311 47.6777C22.6033 47.6763 22.5699 47.6568 22.5505 47.6359C22.3891 47.4565 22.2208 47.2854 22.0469 47.1199C21.8661 46.9474 21.7047 46.9543 21.5156 46.9363C21.4043 46.9265 21.2972 46.9432 21.2666 46.7888C21.2596 46.7526 21.1734 46.7137 21.1205 46.7081C20.5071 46.633 20.5043 46.6386 20.457 47.2576C20.4515 47.3243 20.4083 47.4356 20.3694 47.4426C20.2011 47.4704 20.2066 47.5845 20.2039 47.7055C20.1969 48.1923 20.1927 48.6778 20.1816 49.1646C20.1802 49.2481 20.1788 49.3747 20.1287 49.4053C19.9507 49.5165 19.9757 49.689 19.9702 49.8448C19.9535 50.315 19.9535 50.7865 19.9451 51.2567C19.9451 51.3179 19.9451 51.4138 19.9131 51.4333C19.6948 51.5571 19.7365 51.7699 19.7309 51.9549C19.7156 52.4487 19.7212 52.9439 19.7114 53.4377C19.7101 53.5184 19.6795 53.6005 19.6489 53.6756C19.6169 53.7563 19.5431 53.8272 19.5334 53.9093C19.5042 54.1263 19.4903 54.346 19.4875 54.5658C19.4805 55.2641 19.4847 55.9624 19.4805 56.6607C19.4805 56.7441 19.4736 56.8888 19.436 56.8999C19.2079 56.9722 19.226 57.1656 19.2246 57.3242C19.2121 58.5719 19.2121 59.8196 19.2121 61.0673C19.2121 61.1243 19.2538 61.2175 19.2969 61.23C19.3623 61.2495 19.4666 61.2384 19.5111 61.1967C19.5571 61.1522 19.5515 61.0548 19.5765 60.9505C19.8811 61.0826 20.0286 60.81 20.1858 60.6709C20.2873 60.5805 20.4111 60.522 20.5015 60.4302C20.6184 60.312 20.6907 60.1506 20.7825 60.0088C20.7909 59.9962 20.8048 59.9865 20.8173 59.9782C20.9578 59.8877 21.108 59.8098 21.2346 59.7027C21.3403 59.6137 21.4182 59.4899 21.5072 59.3814C21.6171 59.2451 21.7006 59.0518 21.8424 58.985C21.9815 58.9196 22.0316 58.8195 22.0261 58.7249C22.0108 58.4773 22.2514 58.4091 22.3543 58.2519C22.4141 58.1615 22.5115 58.0795 22.5101 57.9626C22.5073 57.7818 22.5699 57.683 22.7021 57.69L22.6979 57.6886Z" fill="white"/>
<path d="M6.88251 27.3928C6.82687 27.4596 6.76984 27.525 6.7142 27.5917C6.69612 27.6154 6.68778 27.6571 6.66552 27.6654C6.36507 27.7851 6.2371 28.0132 6.17311 28.3234C6.14529 28.4569 5.98255 28.5612 5.88239 28.6795C5.82258 28.749 5.74608 28.8116 5.70991 28.8923C5.65427 29.0161 5.70435 29.1955 5.49987 29.2373C5.47484 29.2428 5.4651 29.3499 5.45675 29.4111C5.44145 29.5294 5.46371 29.6462 5.29122 29.7032C5.23002 29.7241 5.21889 29.9216 5.20081 30.0413C5.17716 30.1984 5.25645 30.4015 4.98243 30.4279C4.95461 30.4307 4.93513 30.5754 4.91983 30.6561C4.89897 30.7701 4.96295 30.9217 4.76821 30.9468C4.74735 30.9496 4.72092 30.9885 4.71397 31.0163C4.62355 31.3516 4.53453 31.6868 4.4455 32.0234C4.43577 32.061 4.43438 32.1236 4.41351 32.1305C4.09358 32.2474 4.21738 32.5339 4.17565 32.7523C4.14088 32.9331 4.21321 33.132 4.01569 33.2809C3.94614 33.3337 3.95031 33.5006 3.94614 33.6161C3.93223 33.9847 3.9364 34.3533 3.91971 34.7219C3.91554 34.8026 3.85016 34.8791 3.82095 34.9612C3.77922 35.0752 3.71941 35.1921 3.71524 35.3103C3.70133 35.6706 3.69854 36.0322 3.71524 36.3925C3.7208 36.4996 3.81261 36.6011 3.86129 36.7083C3.88633 36.7625 3.91415 36.8195 3.91832 36.8766C3.92945 37.056 3.92528 37.2368 3.9364 37.4177C3.94336 37.5373 3.93084 37.6527 4.09219 37.7223C4.16174 37.7515 4.15618 37.9337 4.21182 38.0311C4.25077 38.0978 4.33283 38.1827 4.39821 38.1855C4.78212 38.2008 5.17299 38.2383 5.54856 38.1785C5.76416 38.1451 5.94638 37.9282 6.20232 37.9421C6.21623 37.9421 6.24544 37.8934 6.24683 37.8669C6.25379 37.7167 6.34977 37.6945 6.47217 37.6945C6.60988 37.6945 6.76011 37.7223 6.79627 37.5164C6.80184 37.4844 6.92981 37.4636 7.00214 37.4552C7.11203 37.4427 7.22052 37.4524 7.25252 37.3008C7.25947 37.2674 7.35267 37.2535 7.40274 37.2243C7.44586 37.2007 7.51959 37.1659 7.51959 37.1395C7.51124 36.9378 7.65034 36.9517 7.78387 36.9252C7.85899 36.9099 7.92436 36.8404 7.99113 36.7903C8.13023 36.6832 8.29993 36.597 8.3973 36.4607C8.5364 36.2645 8.75896 36.2103 8.91753 36.0726C9.00655 35.9947 9.06775 35.9502 9.17764 35.9432C9.29866 35.9349 9.43358 35.946 9.47531 35.7763C9.48227 35.7457 9.56295 35.7165 9.60885 35.7165C10.0011 35.7123 10.3934 35.7137 10.7856 35.7207C10.8385 35.7207 10.8997 35.7568 10.94 35.793C11.0096 35.857 11.0652 35.9349 11.1278 36.0058C11.1473 35.9975 11.1668 35.9877 11.1848 35.9794C11.1848 36.4245 11.1848 36.8696 11.1848 37.3161C11.1848 37.3398 11.1821 37.3801 11.1737 37.3829C10.9108 37.4566 11.0026 37.707 10.9164 37.8656C10.8413 38.0047 10.666 38.0867 10.5408 38.2008C10.4504 38.2829 10.3614 38.3705 10.2849 38.4665C10.1861 38.5917 10.1082 38.7335 10.0053 38.8545C9.92599 38.9477 9.82306 39.0215 9.72986 39.1021C9.58381 39.2259 9.43219 39.3428 9.29031 39.4721C9.14704 39.6029 9.0149 39.7434 8.83268 39.9256C8.7214 39.9465 8.53083 39.9103 8.40286 40.1301C8.35835 40.2052 8.15666 40.2261 8.13301 40.3999C8.13023 40.4194 8.05233 40.4347 8.00782 40.4403C7.87151 40.457 7.71989 40.4375 7.67955 40.6294C7.67399 40.6545 7.58774 40.6698 7.53628 40.6781C7.39162 40.7018 7.2094 40.6461 7.16349 40.8701C7.15932 40.8896 7.09812 40.909 7.06334 40.9104C6.89642 40.9188 6.70447 40.8743 6.68499 41.1385C6.6836 41.1608 6.58067 41.1886 6.52364 41.1928C6.3595 41.2039 6.19398 41.1998 6.02984 41.2109C5.90187 41.2206 5.75721 41.1998 5.70713 41.3792C5.69878 41.4112 5.60281 41.4334 5.54578 41.4334C4.93374 41.4362 4.32032 41.4334 3.70828 41.4293C3.65125 41.4293 3.54971 41.4042 3.54554 41.3778C3.5052 41.1372 3.32298 41.2039 3.17692 41.2011C3.06147 41.1998 2.97523 41.2011 2.93489 41.0495C2.9182 40.9855 2.76658 40.9605 2.67895 40.9104C2.60801 40.8701 2.53985 40.8242 2.47726 40.7727C2.32981 40.6489 2.18793 40.5196 2.00571 40.3582C2.00293 40.3471 1.99041 40.2789 1.9765 40.2108C1.95981 40.2247 1.94451 40.2372 1.92782 40.2511C1.78037 40.0939 1.63432 39.9381 1.48688 39.7809C1.46184 39.7545 1.44097 39.7003 1.41593 39.6989C1.23232 39.6919 1.25458 39.5459 1.2518 39.4415C1.24763 39.2691 1.20729 39.1494 0.987511 39.1661C0.980556 39.0701 0.977774 38.9853 0.969428 38.9018C0.963864 38.8476 0.962473 38.7572 0.936044 38.7488C0.649501 38.6473 0.766344 38.4025 0.738524 38.2133C0.721832 38.0978 0.728787 37.9782 0.717659 37.8614C0.712095 37.8099 0.694013 37.7209 0.668975 37.7153C0.447808 37.6736 0.496492 37.5025 0.496492 37.3634C0.496492 36.092 0.499274 34.8207 0.504838 33.5493C0.504838 33.4088 0.483973 33.2697 0.638373 33.1543C0.713486 33.0986 0.712095 32.9234 0.720441 32.801C0.735742 32.5589 0.727396 32.3141 0.739915 32.0721C0.748261 31.9219 0.673148 31.7341 0.911007 31.6659C0.94439 31.6562 0.959691 31.5407 0.961082 31.4726C0.966646 31.2375 0.963864 31.0038 0.963864 30.7507C1.26014 30.7507 1.24902 30.5615 1.26014 30.3681C1.26988 30.211 1.16278 29.9884 1.44236 29.9397C1.44793 29.9397 1.45627 29.9272 1.45627 29.9216C1.38533 29.5989 1.71778 29.4181 1.73725 29.1218C1.74143 29.0509 1.81793 28.9813 1.86661 28.9159C1.88331 28.8923 1.92782 28.8867 1.93895 28.8631C2.03075 28.6517 2.11838 28.4388 2.20602 28.226C2.30478 27.984 2.34511 27.6807 2.5176 27.5166C2.67756 27.3636 2.72485 27.2175 2.76937 27.0339C2.7791 26.995 2.84448 26.9727 2.87925 26.9366C2.91403 26.9004 2.97523 26.8517 2.96828 26.8211C2.90846 26.5429 3.13102 26.3524 3.27012 26.2411C3.46625 26.0853 3.50242 25.9184 3.57614 25.7417C3.63734 25.661 3.6902 25.572 3.75975 25.5011C3.86824 25.3912 3.98926 25.2938 4.1061 25.1923C4.1228 25.1784 4.16313 25.1756 4.16592 25.1617C4.22434 24.839 4.60408 24.7791 4.70979 24.4968C4.95182 24.4968 4.89479 24.1351 5.1716 24.1268C5.2801 24.124 5.38164 23.9126 5.48596 23.7971C5.51517 23.7651 5.5416 23.7109 5.5736 23.7081C5.77251 23.6914 5.98115 23.7025 6.08548 23.4772C6.08965 23.4688 6.12443 23.4744 6.1286 23.4647C6.24683 23.2185 6.46383 23.1559 6.71281 23.1517C6.78515 22.8457 7.04387 22.9848 7.2247 22.9305C7.31511 22.9027 7.39301 22.8304 7.47786 22.7831C7.52793 22.7553 7.58218 22.7149 7.63504 22.7149C8.10658 22.7107 8.57674 22.7121 9.04828 22.7163C9.09836 22.7163 9.18877 22.7344 9.19294 22.758C9.23328 22.9667 9.39325 22.9347 9.53791 22.9528C9.59355 22.9597 9.64362 23.0154 9.6937 23.0529C9.88009 23.1906 10.0651 23.3283 10.2501 23.4674C10.3099 23.5133 10.3683 23.562 10.4254 23.6121C10.4518 23.6358 10.4754 23.6942 10.4949 23.6914C10.7272 23.6691 10.6702 23.8583 10.7342 23.9779C10.8496 24.1922 10.9984 24.3855 10.9818 24.6456C11.2947 24.7625 11.1751 25.0337 11.1779 25.2451C11.189 26.1242 11.1834 27.0033 11.1821 27.8824C11.1821 28.0035 11.1946 28.1078 11.0583 28.2038C10.9776 28.2608 10.9762 28.4444 10.9581 28.5738C10.9372 28.7226 10.9553 28.8533 10.8107 28.9841C10.7147 29.0703 10.7355 29.2915 10.7161 29.4529C10.7036 29.5572 10.7119 29.6532 10.5631 29.6685C10.5213 29.6726 10.4671 29.7575 10.4532 29.8131C10.417 29.962 10.4796 30.1567 10.2473 30.1998C10.2417 30.1998 10.2334 30.211 10.2334 30.2165C10.2223 30.4822 10.1597 30.7256 9.88844 30.8619C9.71178 31.0316 9.52817 31.2083 9.31535 31.4142C9.36125 31.4169 9.33343 31.4183 9.33343 31.4142C9.26249 31.1234 9.02881 31.1652 8.81877 31.1582C8.68523 31.154 8.52249 31.2041 8.50023 30.9829C8.49745 30.9593 8.40704 30.951 8.36531 30.9231C8.31523 30.8911 8.26933 30.848 8.22621 30.8063C8.2123 30.7924 8.22064 30.7507 8.20534 30.7409C7.8423 30.5142 7.99113 30.1595 7.98557 29.8479C7.98557 29.7811 8.06068 29.713 8.09685 29.6434C8.13858 29.5628 8.1803 29.4807 8.21508 29.3972C8.23455 29.3471 8.23038 29.2498 8.25264 29.2442C8.52666 29.183 8.48076 28.9521 8.51831 28.7657C8.5211 28.7504 8.52527 28.7254 8.53362 28.7226C8.84381 28.6252 8.70888 28.3554 8.76035 28.1565C8.78121 28.0744 8.85215 28.0048 8.89388 27.927C8.92587 27.8699 8.9676 27.8101 8.97317 27.7489C8.98569 27.5848 8.97595 27.4192 8.9829 27.2551C8.98847 27.109 8.93561 26.931 9.18042 26.9032C9.21381 26.899 9.25136 26.7571 9.25276 26.6778C9.26249 26.0825 9.32926 26.1757 8.77426 26.166C8.64072 26.1632 8.48215 26.1367 8.38061 26.1966C8.19561 26.3051 8.00921 26.3899 7.80891 26.4664C7.66703 26.5207 7.58218 26.7224 7.46673 26.8545C7.4403 26.8851 7.39022 26.8934 7.35684 26.9213C7.29425 26.9713 7.23722 27.0256 7.17879 27.0798C7.15793 27.0993 7.14263 27.1271 7.12176 27.1466C7.04665 27.2189 6.97015 27.2885 6.89364 27.3594C6.88947 27.3706 6.88391 27.3817 6.87973 27.3928H6.88251Z" fill="white"/>
<path d="M27.8668 1.2384C27.9419 1.14242 28.0171 1.04645 28.0922 0.950468C28.0824 0.932385 28.0727 0.914302 28.0643 0.896219C28.1798 0.896219 28.2966 0.903174 28.4121 0.894828C28.5401 0.885091 28.6833 0.904565 28.739 0.729301C28.7501 0.694526 28.8405 0.666706 28.8948 0.665315C29.4442 0.662533 29.9936 0.662533 30.5431 0.675052C30.614 0.676443 30.6836 0.75573 30.7531 0.797459C30.8074 0.830843 30.8588 0.880918 30.9159 0.892046C31.0063 0.908738 31.1009 0.896219 31.2038 0.896219C31.2302 1.06314 31.2692 1.16329 31.4639 1.20085C31.5752 1.22171 31.7199 1.44288 31.7254 1.57919C31.7505 2.20514 31.7352 2.83386 31.724 3.4612C31.724 3.53214 31.6517 3.59891 31.6211 3.67263C31.5822 3.77 31.5265 3.87154 31.5223 3.97308C31.5057 4.44324 31.5057 4.91478 31.5001 5.38494C31.4987 5.50734 31.5223 5.63809 31.3471 5.68261C31.3109 5.69234 31.2775 5.78415 31.2761 5.83979C31.2511 6.3475 31.2358 6.8566 31.2135 7.3657C31.2038 7.58269 31.2678 7.80804 31.0633 7.99582C30.9896 8.06259 30.9965 8.23229 30.9924 8.35469C30.9799 8.79425 30.9854 9.2338 30.9687 9.67196C30.9646 9.76794 30.895 9.86113 30.8602 9.95711C30.838 10.0211 30.8102 10.0879 30.8074 10.1546C30.7809 10.9072 30.7629 11.6597 30.7295 12.4122C30.7253 12.5012 30.6391 12.5861 30.6015 12.6765C30.5653 12.7655 30.5194 12.8601 30.518 12.9533C30.4972 14.6879 30.4833 16.421 30.468 18.1556C30.468 18.3044 30.4708 18.4547 30.4638 18.6021C30.4568 18.7384 30.5111 18.8859 30.2983 18.9582C30.1953 18.993 30.1077 19.1529 30.066 19.2739C30.0187 19.413 29.9394 19.4256 29.8212 19.4311C29.6807 19.4381 29.5138 19.4061 29.4651 19.6147C29.4581 19.6426 29.358 19.662 29.3009 19.6634C28.8697 19.6662 28.4371 19.669 28.0059 19.6565C27.9308 19.6537 27.8627 19.5674 27.7834 19.5396C27.6512 19.4937 27.5163 19.452 27.3786 19.4325C27.227 19.4103 27.0295 19.484 27.0308 19.2155C27.0308 19.1947 26.9738 19.1752 26.9474 19.1515C26.8945 19.1029 26.8445 19.0514 26.7944 18.9985C26.7693 18.9721 26.7471 18.9165 26.7248 18.9179C26.5009 18.9234 26.5231 18.7593 26.5231 18.623C26.5204 18.1292 26.5245 17.634 26.5273 17.1402C26.5273 17.0289 26.5231 16.9343 26.6706 16.8842C26.7318 16.8634 26.7777 16.7187 26.7805 16.6283C26.7972 16.2124 26.7916 15.7965 26.8055 15.382C26.8111 15.1997 26.7415 14.9994 26.9627 14.859C27.0281 14.8172 27.0225 14.6392 27.0253 14.5237C27.035 13.9979 27.0322 13.4721 27.0406 12.9463C27.042 12.8281 27.0281 12.7154 27.1658 12.6209C27.2409 12.5694 27.2534 12.3941 27.2562 12.2731C27.2715 11.5901 27.2743 10.9072 27.2826 10.2256C27.284 10.0948 27.2604 9.95711 27.4356 9.8973C27.4718 9.88478 27.4982 9.79158 27.501 9.73455C27.5246 9.2491 27.5469 8.76364 27.558 8.27819C27.5692 7.79134 27.5622 7.3045 27.5705 6.81904C27.5733 6.62987 27.5177 6.42539 27.7083 6.27656C27.7389 6.25291 27.7319 6.17223 27.7333 6.11799C27.7528 4.72143 27.7722 3.32488 27.7903 1.92833C27.7931 1.69325 27.7903 1.45957 27.7903 1.22449C27.8168 1.22867 27.8432 1.23423 27.8696 1.2384H27.8668Z" fill="white"/>
</svg>
