<svg width="178" height="20" viewBox="0 0 178 20" fill="none" xmlns="http://www.w3.org/2000/svg">
<path d="M44.4424 16.3598C44.6004 16.6437 44.6852 16.9927 44.9048 17.1308C45.109 17.2612 45.1283 17.3648 45.1668 17.5566C45.1938 17.6985 45.3286 17.8213 45.4173 17.9555C45.6099 18.2432 45.8488 18.5117 45.976 18.8263C46.0723 19.0641 46.0299 19.3595 46.053 19.6893C45.4481 19.6893 44.9048 19.7162 44.3653 19.674C44.2035 19.6625 43.9299 19.463 43.9299 19.3441C43.9222 18.8723 43.5099 18.7112 43.3134 18.3928C43.1246 18.086 43.0514 17.7139 42.8973 17.384C42.8202 17.2152 42.6931 17.0656 42.5775 16.916C42.4503 16.7511 42.3078 16.5938 42.1729 16.4365L42.2731 16.2984C42.119 16.2869 41.9648 16.2678 41.8107 16.2678C41.2058 16.2678 40.6008 16.2793 39.9959 16.2601C39.6838 16.2486 39.3177 16.402 39.0904 16.0299C39.0711 15.9992 38.9786 15.9992 38.9208 16.0069C38.2311 16.1143 37.946 15.5888 37.5876 15.1707C37.5452 15.1208 37.4952 15.071 37.4374 15.0403C37.1175 14.8638 36.9133 14.6375 36.9673 14.2347C36.9942 14.0468 37.0405 13.8128 36.7207 13.7668C36.6744 13.7591 36.6243 13.5711 36.6243 13.4676C36.6205 9.83501 36.6166 6.20244 36.6282 2.56988C36.6282 2.4548 36.7669 2.33589 36.844 2.22465C36.8748 2.18245 36.9441 2.1556 36.9596 2.10957C37.0597 1.8027 37.0944 1.45748 37.2563 1.18897C37.4412 0.889768 37.6994 0.602078 37.9961 0.41412C38.2966 0.222327 38.6704 0.103415 39.0249 0.0497128C39.414 -0.0116611 39.8186 0.0343693 40.2193 0.0343693C41.7683 0.0343693 43.3173 0.0305335 44.8663 0.0382052C45.082 0.0382052 45.398 -0.0960501 45.4481 0.310552C45.4519 0.345075 45.6099 0.345075 45.6793 0.387269C45.922 0.536868 46.1571 0.697974 46.3921 0.859081C46.4576 0.901275 46.5154 0.954977 46.5771 1.00484C46.7928 1.17746 47.0626 1.30788 47.0125 1.65694C47.0048 1.71064 47.0202 1.81038 47.0471 1.81805C47.575 1.95614 47.3515 2.38192 47.3554 2.68112C47.3708 6.40191 47.367 10.1227 47.3593 13.8435C47.3593 14.0775 47.4903 14.3997 47.0703 14.4572C47.0394 14.4611 47.024 14.6107 47.0125 14.6951C46.9662 15.0633 46.4345 15.5926 46.0762 15.6579C45.9644 15.677 45.8681 15.7844 45.7679 15.8573C45.7255 15.888 45.7024 15.9609 45.66 15.9762C45.3094 16.0951 44.9549 16.2025 44.4424 16.3637V16.3598ZM45.3903 8.14339C45.3903 6.81235 45.4211 5.47746 45.3749 4.14642C45.3556 3.55953 45.5174 2.97264 45.1745 2.35507C44.951 1.95614 44.7892 1.71064 44.3538 1.65311C44.2844 1.64543 44.2228 1.56488 44.1573 1.51885C44.0532 1.4498 43.9492 1.31938 43.8452 1.31938C42.6969 1.30404 41.5448 1.30788 40.3927 1.31938C40.2964 1.31938 40.2001 1.43062 40.1037 1.48816C40.0036 1.5457 39.9034 1.60707 39.8032 1.66078C39.6915 1.72215 39.5527 1.76051 39.468 1.84873C39.2098 2.12108 38.7975 2.29753 38.8438 2.77701C38.8438 2.8077 38.7551 2.84222 38.7243 2.88442C38.6472 2.99566 38.5201 3.11457 38.5201 3.22965C38.5085 6.42109 38.5124 9.61636 38.5124 12.8078C38.5124 12.9037 38.5355 13.0802 38.5702 13.084C38.9902 13.1492 38.8322 13.4676 38.8669 13.7016C38.8823 13.7975 38.8977 13.9624 38.9362 13.9701C39.2368 14.0276 39.2907 14.5224 39.6953 14.3805C39.7223 14.3728 39.7801 14.4764 39.834 14.5148C39.9342 14.5876 40.0459 14.7027 40.1538 14.7027C41.4947 14.7142 42.8395 14.7142 44.1804 14.7066C44.2844 14.7066 44.4154 14.672 44.4848 14.603C44.7006 14.392 44.9009 14.1619 45.0974 13.9317C45.2708 13.7322 45.4057 13.5481 45.398 13.2336C45.371 11.5343 45.3864 9.83501 45.3864 8.13572L45.3903 8.14339Z" fill="white"/>
<path d="M72.7786 16.2332V0.0535344C72.9481 0.0458627 73.0907 0.0305192 73.2333 0.0305192C75.7263 0.0305192 78.2192 0.0305192 80.7122 0.0305192C80.9088 0.0305192 81.1862 -0.076885 81.2093 0.287522C81.2093 0.314373 81.271 0.36424 81.3018 0.360404C81.8836 0.329717 82.1032 0.8092 82.4308 1.13525C82.5502 1.25416 82.6581 1.39609 82.793 1.48815C83.1397 1.7183 83.0319 2.05969 83.0511 2.37423C83.0627 2.5737 82.9548 2.8307 83.3054 2.88057C83.3517 2.88824 83.3979 3.0762 83.3979 3.1836C83.4018 6.40573 83.4018 9.62786 83.3979 12.85C83.3979 12.9459 83.3709 13.1185 83.3324 13.1262C82.924 13.2029 83.0935 13.5136 83.0434 13.7437C82.9586 14.1427 82.924 14.5723 82.739 14.9252C82.5887 15.2129 82.1996 15.3701 82.0069 15.6502C81.7526 16.0184 81.3095 15.865 81.0783 16.0376C80.5812 16.402 80.0765 16.2447 79.5833 16.2486C77.4139 16.2754 75.2485 16.2601 73.0791 16.2562C72.9944 16.2562 72.9057 16.2409 72.7709 16.2294L72.7786 16.2332ZM74.6628 14.7142C76.4815 14.7142 78.2501 14.7142 80.0225 14.7142C80.1034 14.7142 80.2113 14.6912 80.2576 14.6375C80.4926 14.369 80.7161 14.0851 80.9396 13.8051C81.0205 13.7054 81.1322 13.6018 81.1592 13.4867C81.217 13.2029 81.0205 12.8308 81.4867 12.7042C81.5176 12.6966 81.5214 12.5431 81.5214 12.4549C81.5214 9.58183 81.5214 6.7126 81.5214 3.83953C81.5214 3.74364 81.4983 3.57102 81.4598 3.56335C80.9974 3.46362 81.19 3.10305 81.1785 2.85372C81.1554 2.23998 80.7739 1.77584 80.1612 1.66076C80.0842 1.64542 79.957 1.59555 79.9532 1.54952C79.9223 1.24649 79.695 1.31553 79.5216 1.31553C78.0304 1.3117 76.5393 1.31553 75.0519 1.31553C74.9248 1.31553 74.8015 1.33855 74.6705 1.35006V14.7104L74.6628 14.7142Z" fill="white"/>
<path d="M112.274 0.0343656C113.044 0.0343656 113.815 -0.00782892 114.57 0.0650525C114.767 0.0842319 115.005 0.444803 115.09 0.694135C115.24 1.14293 115.291 1.63009 115.383 2.09806C116.046 2.27451 115.464 3.03018 115.961 3.33321C116.077 3.40226 115.961 3.80886 116.003 4.05052C116.027 4.18861 116.138 4.31136 116.219 4.4341C116.246 4.48013 116.319 4.50699 116.331 4.54918C116.431 5.00181 116.531 5.45828 116.608 5.91475C116.635 6.08736 116.593 6.27532 116.855 6.28683C116.886 6.28683 116.936 6.33669 116.944 6.37122C117.044 6.82385 117.129 7.28415 117.24 7.73295C117.275 7.87104 117.375 7.99379 117.456 8.12037C117.475 8.15489 117.56 8.17791 117.556 8.18942C117.379 8.73411 117.918 9.0755 117.949 9.56649C117.961 9.71226 118.08 9.84651 118.13 9.99227C118.173 10.1112 118.192 10.2378 118.207 10.3644C118.238 10.5983 118.092 10.9129 118.496 10.9743C118.523 10.9743 118.55 11.0433 118.554 11.0817C118.647 11.6379 118.728 12.2017 118.835 12.7541C118.862 12.8922 118.978 13.0111 119.059 13.1339C119.09 13.1799 119.159 13.2106 119.167 13.2528C119.267 13.7207 119.356 14.1925 119.448 14.6605C119.467 14.7526 119.487 14.9214 119.525 14.9252C119.895 14.9789 119.791 15.2512 119.799 15.4661C119.806 15.7 119.799 15.9302 119.799 16.2025H117.911C117.911 16.0299 117.918 15.8612 117.911 15.6962C117.907 15.5965 117.888 15.4239 117.853 15.4162C117.444 15.3433 117.576 15.0364 117.56 14.7986C117.549 14.6145 117.61 14.3997 117.317 14.3767C117.287 14.3767 117.236 14.3268 117.229 14.2923C117.129 13.8358 117.044 13.3755 116.932 12.9267C116.897 12.7886 116.774 12.6735 116.716 12.5393C116.639 12.3667 116.585 12.1826 116.504 11.9601C116.4 11.9524 116.258 11.9371 116.115 11.9371C114.447 11.9371 112.782 11.9371 111.114 11.9371C110.617 11.9371 110.428 12.1365 110.412 12.6275C110.405 12.85 110.528 13.1492 110.135 13.2067C110.097 13.2106 110.077 13.3832 110.066 13.4752C110.031 13.7092 110.189 14.0353 109.765 14.0813C109.746 14.0813 109.727 14.1235 109.719 14.1504C109.626 14.6222 109.472 15.0901 109.457 15.562C109.441 16.0107 109.11 16.1719 108.844 16.2179C108.332 16.3061 107.792 16.2447 107.234 16.2447C107.241 15.957 107.018 15.654 107.469 15.5504C107.499 15.5428 107.534 15.4929 107.542 15.4545C107.638 14.9981 107.719 14.5378 107.827 14.0851C107.858 13.9586 107.966 13.8473 108.031 13.7284C108.081 13.6363 108.151 13.5481 108.17 13.4484C108.235 13.0878 108.02 12.6735 108.42 12.3705C108.494 12.3168 108.436 12.0905 108.44 11.9447C108.447 11.7644 108.382 11.542 108.679 11.5189C108.713 11.5189 108.763 11.4729 108.771 11.4384C108.871 11.0702 108.971 10.7019 109.056 10.3337C109.114 10.0805 108.902 9.71609 109.364 9.64321C109.38 9.64321 109.399 9.59718 109.403 9.57033C109.495 9.11386 109.58 8.65356 109.684 8.20092C109.715 8.07051 109.831 7.96694 109.885 7.84035C109.946 7.69459 110 7.54499 110.031 7.39156C110.07 7.18058 109.931 6.89673 110.301 6.8507C110.332 6.8507 110.366 6.79316 110.374 6.7548C110.47 6.29834 110.551 5.83803 110.659 5.3854C110.69 5.25882 110.794 5.14758 110.863 5.02483C110.913 4.93277 110.983 4.84454 111.002 4.74865C111.068 4.38807 110.848 3.9738 111.252 3.67077C111.326 3.61706 111.268 3.39075 111.272 3.24499C111.279 3.0647 111.214 2.84606 111.511 2.81537C111.549 2.81537 111.603 2.74249 111.615 2.69646C111.711 2.22465 111.8 1.75283 111.892 1.28102C111.908 1.19663 111.919 1.05087 111.954 1.0432C112.374 0.954974 112.216 0.628925 112.247 0.383429C112.258 0.283697 112.262 0.183964 112.277 0.0266939L112.274 0.0343656ZM116.019 10.6405C115.953 10.303 115.903 10.0306 115.853 9.75829C115.799 9.47443 115.749 9.19441 115.684 8.9144C115.672 8.86837 115.603 8.84152 115.576 8.79548C115.495 8.6689 115.379 8.54615 115.352 8.40806C115.244 7.85186 115.167 7.29182 115.067 6.73179C115.059 6.67809 114.967 6.64356 114.932 6.58986C114.859 6.47479 114.763 6.35971 114.732 6.22929C114.624 5.77666 114.543 5.31635 114.447 4.85989C114.439 4.82536 114.401 4.77166 114.37 4.76782C114.027 4.7333 114.119 4.4763 114.104 4.26916C114.096 4.15409 114.112 3.95462 114.065 3.93928C113.526 3.74748 113.83 3.30252 113.753 2.97648C113.718 2.83838 113.703 2.69262 113.676 2.55069C113.522 2.78852 113.518 3.15676 113.41 3.18745C113.079 3.28718 113.179 3.50582 113.16 3.70529C113.148 3.82037 113.171 4.01216 113.117 4.03901C112.825 4.16943 112.921 4.41492 112.89 4.63357C112.852 4.90975 113.075 5.30485 112.582 5.40841C112.563 5.41225 112.551 5.48513 112.547 5.52733C112.52 5.85337 112.566 6.15641 112.312 6.47478C112.127 6.70494 112.389 7.14223 111.961 7.42608C111.776 7.54883 111.923 8.04365 111.692 8.38121C111.484 8.68424 111.823 9.19058 111.341 9.55115C111.125 9.71226 111.202 10.2493 111.141 10.6405H116.027H116.019Z" fill="white"/>
<path d="M152.986 16.2562C153.025 15.9608 152.813 15.6539 153.237 15.5657C153.271 15.558 153.31 15.512 153.317 15.4737C153.414 15.0747 153.514 14.6796 153.591 14.2769C153.633 14.0544 153.495 13.7552 153.88 13.7015C153.903 13.7015 153.946 13.6248 153.938 13.5979C153.772 12.9957 154.215 12.4932 154.227 11.9178C154.227 11.7874 154.366 11.6608 154.45 11.5342C154.481 11.4882 154.55 11.4613 154.558 11.4153C154.654 10.9588 154.735 10.4985 154.843 10.0459C154.874 9.91932 154.978 9.80808 155.055 9.693C155.078 9.66232 155.159 9.6393 155.155 9.62779C155.009 9.10228 155.471 8.75322 155.552 8.29675C155.583 8.13181 155.687 7.98221 155.741 7.82494C155.776 7.72137 155.795 7.60629 155.81 7.49505C155.849 7.24956 155.672 6.90817 156.111 6.84296C156.13 6.84296 156.153 6.79692 156.153 6.77007C156.18 6.38265 156.142 6.00674 156.408 5.64617C156.543 5.46588 156.323 5.06311 156.743 4.96722C156.774 4.95955 156.77 4.80611 156.781 4.72172C156.832 4.37266 156.627 3.96989 157.028 3.68987C157.086 3.64768 157.04 3.46739 157.047 3.34848C157.063 3.13367 156.947 2.85365 157.317 2.80762C157.344 2.80762 157.383 2.74625 157.39 2.71173C157.487 2.25526 157.567 1.79496 157.675 1.34232C157.706 1.21574 157.814 1.1045 157.883 0.985588C157.934 0.893527 158.007 0.801466 158.018 0.70557C158.038 0.502269 158.026 0.298968 158.026 0.0304572C158.824 0.0304572 159.587 -0.000229686 160.346 0.0534724C160.531 0.06498 160.789 0.314311 160.858 0.509941C161.008 0.943393 161.051 1.41904 161.162 1.86784C161.197 2.00209 161.313 2.121 161.394 2.24375C161.424 2.28978 161.486 2.32431 161.498 2.37034C161.594 2.92654 161.675 3.48657 161.783 4.04277C161.81 4.18086 161.914 4.30745 161.995 4.43403C162.022 4.48006 162.114 4.51458 162.11 4.54527C162.045 4.9442 162.264 5.25874 162.388 5.60781C162.476 5.86097 162.241 6.23305 162.7 6.34813C162.742 6.35964 162.735 6.56294 162.75 6.67418C162.781 6.90816 162.627 7.22654 163.035 7.28408C163.054 7.28408 163.078 7.32627 163.085 7.34929C163.182 7.80576 163.266 8.26223 163.378 8.71486C163.413 8.85295 163.517 8.9757 163.598 9.09844C163.625 9.14447 163.698 9.17133 163.709 9.21736C163.81 9.66999 163.91 10.1265 163.987 10.5829C164.014 10.7594 163.975 10.9397 164.237 10.9588C164.276 10.9588 164.33 11.0356 164.337 11.0816C164.434 11.6378 164.515 12.1978 164.623 12.754C164.65 12.8921 164.757 13.0149 164.838 13.1414C164.865 13.1875 164.942 13.2105 164.954 13.2565C165.054 13.7092 165.135 14.1695 165.243 14.6221C165.274 14.7487 165.366 14.8638 165.436 14.9827C165.486 15.0747 165.578 15.1591 165.586 15.255C165.605 15.5619 165.594 15.8687 165.594 16.2178H163.706C163.706 16.0414 163.706 15.8803 163.706 15.723C163.706 15.6348 163.709 15.4852 163.675 15.4737C163.197 15.3125 163.494 14.8369 163.324 14.6221C163.058 14.2845 163.239 13.7667 163.047 13.6209C162.669 13.3371 162.812 12.9995 162.704 12.6927C162.627 12.4663 162.407 12.2899 162.253 12.0904C162.28 12.0521 162.311 12.0137 162.338 11.9792C162.18 11.9715 162.022 11.9562 161.868 11.9562C160.23 11.9562 158.592 11.9562 156.955 11.9562C156.392 11.9562 156.211 12.1365 156.203 12.6811C156.2 12.896 156.304 13.176 155.93 13.2143C155.903 13.2143 155.868 13.2757 155.861 13.3102C155.764 13.7782 155.676 14.25 155.583 14.7218C155.564 14.8177 155.541 14.9827 155.502 14.9903C155.101 15.0517 155.225 15.3586 155.24 15.5696C155.275 16.0145 154.924 16.191 154.643 16.237C154.127 16.3175 153.591 16.26 152.998 16.26L152.986 16.2562ZM161.814 10.6366C161.733 10.2991 161.663 10.0229 161.606 9.74671C161.548 9.45902 161.513 9.17133 161.455 8.88364C161.448 8.84528 161.355 8.82993 161.324 8.78774C161.251 8.68417 161.151 8.5806 161.132 8.46553C161.028 7.89398 160.947 7.3186 160.847 6.74322C160.839 6.68952 160.754 6.64733 160.719 6.59362C160.642 6.47855 160.538 6.36731 160.507 6.24072C160.4 5.78809 160.319 5.32779 160.222 4.87132C160.211 4.82529 160.153 4.76008 160.114 4.75624C159.81 4.72556 159.899 4.49924 159.883 4.32279C159.868 4.18086 159.864 4.0351 159.825 3.90085C159.771 3.71289 159.664 3.53644 159.625 3.34848C159.59 3.16436 159.637 2.96489 159.606 2.78077C159.59 2.68871 159.483 2.612 159.405 2.51226C159.294 2.81146 159.22 3.0301 159.132 3.24108C159.082 3.35232 158.974 3.44438 158.947 3.55945C158.912 3.69755 158.989 3.9277 158.916 3.9814C158.535 4.26909 158.731 4.66418 158.666 5.00941C158.643 5.136 158.523 5.2434 158.454 5.36231C158.404 5.45054 158.342 5.5426 158.323 5.64233C158.223 6.14099 158.138 6.63965 158.041 7.13832C158.034 7.18818 157.98 7.26106 157.941 7.2649C157.614 7.29559 157.71 7.54108 157.698 7.7252C157.691 7.84028 157.725 8.02824 157.668 8.06276C157.286 8.29291 157.471 8.65348 157.433 8.96035C157.409 9.15215 157.494 9.38997 157.174 9.42066C157.14 9.42066 157.094 9.49737 157.082 9.54724C157.016 9.90014 156.959 10.2569 156.893 10.6366H161.806H161.814Z" fill="white"/>
<path d="M51.4552 0.0612089H53.3008V0.609738C53.3008 4.48013 53.3008 8.34668 53.3008 12.2171C53.3008 12.4434 53.2546 12.6582 53.4973 12.873C53.6476 13.0034 53.5628 13.3947 53.5783 13.5558C53.9366 13.9164 54.2333 14.2232 54.5377 14.5148C54.6263 14.5991 54.7458 14.7027 54.8498 14.7065C56.1059 14.7181 57.3582 14.7142 58.6143 14.7142C58.6991 14.7142 58.8571 14.7027 58.8609 14.6759C58.9264 14.2808 59.2732 14.3997 59.4967 14.3306C59.6162 13.9509 59.62 13.4292 59.8705 13.2566C60.3752 12.9075 60.1595 12.4817 60.1633 12.102C60.1826 8.27763 60.1749 4.45328 60.1749 0.628917V0.0650448H62.0398C62.0475 0.226151 62.0629 0.383422 62.0629 0.536856C62.0629 4.787 62.0629 9.03714 62.0629 13.2873C62.0629 13.4867 62.1515 13.7207 61.851 13.8473C61.7816 13.878 61.8086 14.1427 61.8009 14.3038C61.7893 14.5148 61.7893 14.649 61.5389 14.8101C61.1189 15.0825 60.8068 15.5274 60.4484 15.8995C60.4215 15.9302 60.3868 15.9685 60.3521 15.9762C59.8782 16.0721 59.4042 16.2332 58.9264 16.2447C57.5855 16.2831 56.2408 16.2716 54.8999 16.2486C54.5223 16.2409 54.0753 16.4327 53.7786 16.0107C53.1929 16.1373 52.8693 15.7729 52.5186 15.397C52.3067 15.1669 52.0293 15.0096 52.0293 14.6528C52.0293 14.5953 52.0216 14.4994 51.9985 14.4879C51.4744 14.323 51.7557 13.8895 51.6748 13.5788C51.6363 13.4292 51.5438 13.2949 51.4898 13.1492C51.4552 13.0571 51.4166 12.9574 51.4166 12.8615C51.4166 8.65738 51.4166 4.44944 51.4166 0.24533C51.4166 0.191628 51.4397 0.13409 51.4552 0.057373V0.0612089Z" fill="white"/>
<path d="M124.754 10.3681V16.2255H122.901V0.0304849C123.078 0.0304849 123.251 0.0304849 123.421 0.0304849C125.783 0.0304849 128.141 0.0304849 130.503 0.0304849C130.726 0.0304849 131.035 -0.084591 131.073 0.310503C131.073 0.329682 131.119 0.356534 131.139 0.356534C131.724 0.34119 131.944 0.832181 132.302 1.15056C132.503 1.33084 132.549 1.60703 132.668 1.71827C133.323 2.3205 132.934 3.04548 132.969 3.69757C133.042 5.02862 132.992 6.3635 132.988 7.69838C132.988 7.90168 133.077 8.16252 132.726 8.19704C132.699 8.19704 132.653 8.25458 132.649 8.2891C132.614 8.88366 132.14 9.12916 131.74 9.43219C131.67 9.48206 131.686 9.63933 131.616 9.6892C131.401 9.8503 131.235 10.0728 130.884 10.0383C130.622 10.0114 130.222 9.82345 130.087 10.3144C130.071 10.3681 129.817 10.3681 129.671 10.3681C128.226 10.372 126.777 10.3681 125.332 10.3681C125.158 10.3681 124.985 10.3681 124.746 10.3681H124.754ZM124.777 8.73406C124.966 8.73406 125.128 8.73406 125.286 8.73406C126.465 8.73406 127.644 8.72639 128.823 8.73406C129.455 8.7379 130.021 8.65735 130.503 8.15485C130.796 7.85182 130.981 7.49508 130.992 7.16136C131.046 5.74593 131.035 4.32282 131.004 2.90355C130.996 2.59284 130.815 2.28597 130.711 1.98294C130.703 1.96376 130.665 1.95225 130.642 1.93691C130.376 1.79115 130.144 1.56483 129.794 1.65306C129.721 1.67224 129.547 1.59935 129.543 1.55332C129.501 1.22728 129.254 1.3155 129.069 1.31166C127.771 1.30783 126.476 1.30783 125.178 1.31166C125.051 1.31166 124.923 1.33084 124.781 1.34619V8.73406H124.777Z" fill="white"/>
<path d="M104.679 1.35384C105.265 2.48159 104.926 3.68989 105.01 4.86366C105.022 5.00559 105.01 5.14752 105.01 5.34698C104.529 5.34698 104.07 5.41986 103.658 5.32013C103.415 5.26259 103.057 5.08614 103.115 4.64885C103.157 4.30363 103.072 3.93922 103.134 3.59783C103.238 3.03395 102.991 2.5468 102.822 2.05964C102.76 1.87936 102.409 1.79497 102.194 1.66071C102.086 1.5955 101.986 1.51879 101.878 1.45741C101.774 1.39987 101.662 1.31932 101.554 1.31932C100.417 1.30781 99.2807 1.30781 98.1478 1.31932C98.0438 1.31932 97.9359 1.44207 97.8357 1.51112C97.7702 1.55715 97.7163 1.6377 97.6431 1.65304C97.0381 1.76428 96.6644 2.09033 96.5912 2.71558C96.5873 2.75777 96.5719 2.82682 96.5488 2.83065C96.0594 2.94189 96.2521 3.33315 96.2482 3.6055C96.2367 6.71255 96.2405 9.81576 96.2444 12.9228C96.2444 13.1184 96.1326 13.387 96.4948 13.4253C96.5372 13.4292 96.5912 13.5634 96.5912 13.6401C96.595 13.993 96.9071 14.1426 97.0651 14.3881C97.3888 14.8945 97.8473 14.695 98.2519 14.7065C99.3577 14.7333 100.467 14.672 101.569 14.7372C102.047 14.764 102.201 14.4226 102.494 14.2347C102.591 14.1733 102.671 14.0851 102.745 13.9969C102.918 13.7936 103.157 13.6593 103.138 13.3064C103.095 12.5354 103.126 11.7644 103.126 10.9665H105.01C105.01 12.0636 105.091 13.1376 104.98 14.1925C104.922 14.741 104.525 15.3164 104.02 15.5926C103.612 15.8112 103.188 16.0222 102.772 16.2408C102.664 16.2945 102.51 16.2639 102.379 16.2639C100.622 16.2639 98.8684 16.2792 97.1113 16.2562C96.6567 16.2523 96.2482 16.0912 95.9053 15.7192C95.5662 15.3509 95.127 15.0709 94.7301 14.7525C94.707 14.7333 94.6684 14.7218 94.6607 14.7027C94.5567 14.3498 94.3717 13.9969 94.3717 13.644C94.3486 9.98071 94.3486 6.31746 94.3756 2.6542C94.3756 2.27445 94.5105 1.841 94.8958 1.584C94.9266 1.56098 94.969 1.51495 94.9651 1.48426C94.8958 0.95875 95.4583 0.839839 95.6317 0.46776C95.6587 0.410222 95.809 0.406386 95.9053 0.383371C95.9901 0.364191 96.1442 0.371863 96.1519 0.33734C96.2906 -0.157487 96.6913 0.0381426 96.9842 0.0381426C98.8568 0.0227991 100.733 0.026635 102.606 0.0381426C102.822 0.0381426 103.142 -0.0961127 103.18 0.310489C103.18 0.333504 103.253 0.375699 103.288 0.371863C103.82 0.325833 104.012 0.793808 104.34 1.05081C104.467 1.15054 104.579 1.26946 104.679 1.36152V1.35384Z" fill="white"/>
<path d="M8.39218 14.7258H15.6438V16.2295H6.54651V0.0612793H8.39218V14.7258V14.7258Z" fill="white"/>
<path d="M27.5925 16.2255H18.5029V0.0688477H20.337V14.7027H27.5887V16.2255H27.5925Z" fill="white"/>
<path d="M177.411 16.2333H168.422V0.0612793H170.271V14.7066H177.407V16.2333H177.411Z" fill="white"/>
<path d="M147.707 16.2371H145.823V1.31937H141.403V0.057373H151.741V1.30019H147.707V16.2371V16.2371Z" fill="white"/>
<path d="M30.3591 16.2178V0.0688477H32.2973V16.2178H30.3591Z" fill="white"/>
<path d="M1.81869 16.2371H0V0.0650635H1.81869V16.2371Z" fill="white"/>
<path d="M66.1473 0.0534668H67.966V16.2216H66.1473V0.0534668Z" fill="white"/>
<path d="M136.718 0.0534668H138.537V16.2216H136.718V0.0534668Z" fill="white"/>
</svg>
