<svg width="74" height="67" viewBox="0 0 74 67" fill="none" xmlns="http://www.w3.org/2000/svg">
<path d="M45.3916 0.00137906C53.2926 0.00137906 61.1936 -0.00172382 69.0914 0.00137906C71.4447 0.00137906 73.177 1.23943 73.6613 3.38663C73.8289 4.13442 73.8196 5.00633 73.6085 5.74171C71.2025 14.1847 68.7406 22.6152 66.2974 31.0488C65.5802 33.5218 64.8569 35.9917 64.1615 38.4709C63.2022 41.881 60.9111 43.6434 57.3843 43.6465C52.6593 43.6465 47.9342 43.6497 43.2092 43.6465C39.4123 43.6434 37.084 40.6243 38.1488 36.9754C38.6828 35.1509 39.3534 33.3574 40.0705 31.5949C40.4058 30.7727 40.9242 30.0001 41.4862 29.305C42.1785 28.4424 42.7994 28.4641 43.8176 28.9079C45.0129 29.4322 46.2392 29.9256 47.4996 30.2421C49.3561 30.7106 50.8866 29.9194 52.0229 28.1787C53.2833 26.2518 53.6745 24.1201 53.4323 21.8891C53.2336 20.0491 52.8642 18.2277 52.5599 16.4001C51.9856 12.9745 48.9121 11.2369 46.3447 10.8553C43.1347 10.3774 39.9153 10.5636 36.7238 11.1469C36.0719 11.2648 35.4262 11.4883 34.8177 11.7551C32.837 12.6177 31.856 14.6253 32.5514 16.8345C32.9705 18.1626 33.697 19.4161 34.4296 20.6169C35.3517 22.1249 35.6807 23.6671 35.0785 25.3333C32.3527 32.8764 30.4155 40.6492 28.2734 48.3629C26.8826 53.3741 25.4079 58.3635 23.9395 63.353C23.3062 65.5002 21.4342 66.8685 19.1927 66.8747C14.2876 66.8872 9.38245 66.8903 4.47733 66.8747C1.40077 66.8654 -0.66373 64.107 0.196218 61.1344C2.61152 52.7659 5.04546 44.4068 7.47008 36.0414C10.5746 25.3271 13.6822 14.6129 16.7774 3.8955C17.5815 1.0998 19.0033 0.00137906 21.9247 0.00137906C29.748 0.00137906 37.5714 0.00137906 45.3916 0.00137906V0.00137906Z" fill="white"/>
<path d="M41.6226 26.1555C41.8026 26.0562 41.9827 25.9631 42.1597 25.8576C43.1841 25.2525 43.4915 24.4582 43.0041 23.3753C42.2186 21.6284 40.9085 20.4027 38.9962 20.0769C38.0928 19.9218 37.8133 19.4098 37.596 18.7055C37.5091 18.42 37.4594 18.1252 37.2887 17.8367V19.0654C37.2328 19.0747 37.1769 19.084 37.121 19.0933C36.9472 18.4696 36.7733 17.8491 36.5995 17.2254L36.4474 17.2502C36.5467 17.9577 36.6461 18.6651 36.7485 19.3726C36.6926 19.3912 36.6367 19.4098 36.5809 19.4284C36.2828 18.4821 35.9848 17.5326 35.6868 16.5862C35.6588 16.5862 35.6309 16.5893 35.5998 16.5924L36.05 19.1926C36.0003 19.2112 35.9537 19.233 35.9041 19.2516C35.5067 18.2959 35.1124 17.3433 34.715 16.3876C34.6902 16.3814 34.6623 16.3783 34.6374 16.3721C34.7088 16.9213 34.7771 17.4674 34.8485 18.0166C34.8082 18.029 34.7678 18.0445 34.7275 18.057L34.0321 16.3349C34.0072 16.338 33.9855 16.3442 33.9607 16.3473L34.1097 17.7405C33.5415 16.971 33.3304 16.1146 33.5353 15.2116C33.7061 14.4638 34.3301 14.1721 35.0286 14.048C36.3325 13.8153 37.5339 14.1784 38.6888 14.74C40.775 15.7577 42.5601 17.2068 44.2304 18.7799C46.0806 20.5238 48.0116 22.2179 49.3249 24.4427C49.7781 25.2122 50.1476 26.0531 50.4114 26.9064C50.8119 28.2034 50.2562 28.9419 48.9151 28.9295C48.1514 28.9233 47.3411 28.8612 46.6395 28.5944C44.9134 27.9396 43.24 27.1484 41.5481 26.413C41.5729 26.3261 41.5977 26.2424 41.6226 26.1555V26.1555Z" fill="white"/>
<path d="M51.1598 17.1263C50.4364 16.3133 49.7131 15.5035 48.9897 14.6905C49.0115 14.6688 49.0332 14.644 49.0549 14.6223C49.5579 15.0008 50.0577 15.3794 50.5606 15.7579C50.6041 15.7207 50.6475 15.6835 50.691 15.6431L49.6324 14.3833L49.6976 14.3213C49.918 14.4857 50.1353 14.6533 50.4054 14.855C50.4395 14.7091 50.4644 14.6099 50.4892 14.5106C52.2339 14.7216 53.0287 23.9278 51.4764 26.4225C49.5641 21.16 45.2333 18.1689 41.0515 15.0256C45.1495 16.6267 47.928 19.8258 50.7189 23.0187C49.058 20.0306 46.6676 17.6879 44.0846 15.5004C46.5154 16.664 48.462 18.4233 50.2377 20.406C48.9214 18.3643 47.1395 16.7508 45.4227 15.0691C47.6424 16.2203 49.353 17.9765 51.0015 19.8103C51.0698 19.7389 51.1412 19.6707 51.2095 19.5993C49.5982 17.9299 47.987 16.2575 46.3726 14.5881C46.4068 14.5416 46.4409 14.4982 46.4751 14.4516C47.9032 15.6493 49.3312 16.847 50.7562 18.0447C50.7904 18.0137 50.8276 17.9827 50.8618 17.9517C49.8186 16.8563 48.7755 15.7641 47.7355 14.6688C47.7728 14.6285 47.81 14.5881 47.8442 14.5478L50.9984 17.2783C51.0511 17.2256 51.1039 17.1697 51.1567 17.117L51.1598 17.1263Z" fill="white"/>
</svg>
