<svg width="182" height="19" viewBox="0 0 182 19" fill="none" xmlns="http://www.w3.org/2000/svg">
<path d="M109.97 8.60982C109.835 8.96879 109.707 9.32348 109.566 9.67389C109.383 10.1247 109.184 10.5692 108.999 11.02C108.858 11.364 108.711 11.7059 108.599 12.0584C108.339 12.8875 108.132 13.7357 107.837 14.5498C107.597 15.2164 107.237 15.834 106.978 16.4942C106.795 16.96 106.662 17.4557 106.562 17.9514C106.498 18.2655 106.379 18.4172 106.079 18.4172C105.217 18.4129 104.356 18.4364 103.496 18.4087C103.112 18.3958 103.007 18.0497 102.907 17.6971C102.726 17.0454 102.496 16.4087 102.297 15.7613C102.171 15.3553 102.064 14.943 101.959 14.5306C101.817 13.9793 101.698 13.4174 101.543 12.8704C101.36 12.2315 101.145 11.6033 100.948 10.9709C100.821 10.5628 100.687 10.1546 100.582 9.73799C100.447 9.20382 100.361 8.65256 100.206 8.12693C100.041 7.57353 99.8079 7.04364 99.6229 6.49665C99.5036 6.14409 99.414 5.78086 99.3126 5.41976C99.1713 4.91977 99.044 4.41552 98.8888 3.91981C98.7137 3.35999 98.5048 2.813 98.3318 2.25319C98.1885 1.79167 98.0513 1.32374 97.9597 0.849392C97.9418 0.753241 98.1428 0.505386 98.2462 0.50325C99.2887 0.486156 100.331 0.492566 101.374 0.533163C101.529 0.539573 101.748 0.729738 101.817 0.892126C101.99 1.29596 102.102 1.72971 102.225 2.15704C102.418 2.8301 102.599 3.50529 102.788 4.18048C102.927 4.68046 103.087 5.17404 103.212 5.67616C103.363 6.27657 103.469 6.89193 103.634 7.48807C103.793 8.06283 104.014 8.61837 104.185 9.191C104.32 9.64612 104.419 10.114 104.541 10.5734C104.674 11.0713 104.813 11.5691 105.078 12.0841C105.229 11.7294 105.386 11.3768 105.532 11.02C105.746 10.4922 105.957 9.96234 106.16 9.42817C106.276 9.1269 106.365 8.81495 106.473 8.5094C106.729 7.77438 106.976 7.03509 107.254 6.30862C107.418 5.88342 107.65 5.49027 107.817 5.06934C107.971 4.68046 108.072 4.26808 108.211 3.87066C108.351 3.46897 108.5 3.07154 108.655 2.67626C108.842 2.1955 109.085 1.73398 109.222 1.23827C109.371 0.695551 109.66 0.524616 110.161 0.54812C110.629 0.571623 110.778 0.853666 110.907 1.27246C111.058 1.75535 111.299 2.20619 111.49 2.67626C111.627 3.01599 111.743 3.3664 111.874 3.70614C112.186 4.50739 112.52 5.29797 112.815 6.10563C113.089 6.85561 113.316 7.62695 113.583 8.37906C113.794 8.97092 114.032 9.5521 114.263 10.1376C114.524 10.7999 114.79 11.4602 115.125 12.2999C115.294 11.8469 115.443 11.5072 115.55 11.1525C115.745 10.5115 115.916 9.86192 116.101 9.21878C116.125 9.13545 116.181 9.0628 116.201 8.97947C116.446 7.93891 116.676 6.89193 116.933 5.8535C117.14 5.01806 117.379 4.18903 117.602 3.35786C117.824 2.52883 118.027 1.69552 118.28 0.877169C118.326 0.725465 118.558 0.543847 118.71 0.537437C119.734 0.49684 120.761 0.49684 121.787 0.49684C121.907 0.49684 122.024 0.58658 122.116 0.622904C121.911 1.35151 121.718 2.03952 121.527 2.72967C121.188 3.95399 120.868 5.18259 120.514 6.39836C120.238 7.34491 119.905 8.27437 119.627 9.22092C119.46 9.79355 119.372 10.394 119.205 10.9687C119.066 11.4516 118.863 11.9131 118.688 12.3853C118.664 12.4494 118.624 12.5093 118.61 12.5776C118.479 13.1994 118.377 13.8297 118.216 14.443C118.077 14.9707 117.86 15.475 117.705 15.9985C117.534 16.5732 117.343 17.1501 117.257 17.7441C117.192 18.1993 117.041 18.4236 116.611 18.4236C115.799 18.4193 114.987 18.4236 114.178 18.4236C113.784 18.4236 113.593 18.2505 113.549 17.7933C113.517 17.4493 113.346 17.1138 113.213 16.7869C112.916 16.0519 112.584 15.334 112.308 14.5925C112.033 13.8575 111.814 13.0969 111.56 12.3533C111.456 12.0477 111.323 11.755 111.205 11.4559C110.851 10.5392 110.497 9.62261 110.141 8.70597C110.131 8.68247 110.085 8.67393 109.976 8.61623L109.97 8.60982Z" fill="white"/>
<path d="M166.681 18.3892H162.76C162.36 17.7289 161.98 17.1478 161.65 16.5367C161.266 15.8273 160.928 15.0901 160.562 14.3701C160.229 13.7162 159.891 13.0667 159.541 12.4257C159.505 12.3616 159.37 12.3359 159.279 12.3338C158.7 12.3231 158.119 12.3338 157.54 12.321C157.186 12.3124 157.194 12.556 157.194 12.8167C157.194 14.4662 157.176 16.1179 157.204 17.7674C157.211 18.2802 157.064 18.449 156.591 18.4319C155.731 18.3999 154.868 18.3999 154.008 18.4319C153.597 18.449 153.509 18.2823 153.511 17.8806C153.523 14.4748 153.517 11.0668 153.517 7.66089C153.517 5.47933 153.527 3.29564 153.509 1.11409C153.505 0.652568 153.628 0.500864 154.07 0.507274C156.454 0.532914 158.837 0.520094 161.22 0.537187C162.125 0.543597 162.931 0.9282 163.653 1.46878C164.175 1.85766 164.644 2.332 165.106 2.80421C165.289 2.99224 165.434 3.25932 165.515 3.51786C165.679 4.04135 165.782 4.5862 165.913 5.12251C165.983 5.40669 166.074 5.68659 166.122 5.97504C166.164 6.23145 166.224 6.51563 166.166 6.75707C166.009 7.41944 165.796 8.06899 165.603 8.72068C165.33 9.65228 164.734 10.3253 164.055 10.9257C163.862 11.0967 163.526 11.1522 163.425 11.3573C163.299 11.6095 163.23 12.0325 163.345 12.259C163.822 13.1949 164.377 14.0838 164.905 14.9876C165.318 15.697 165.754 16.3935 166.148 17.1157C166.349 17.4854 166.48 17.8977 166.683 18.3913L166.681 18.3892ZM157.196 6.34255C157.196 6.34255 157.198 6.34255 157.2 6.34255C157.2 6.98142 157.2 7.61815 157.2 8.25702C157.2 8.60103 157.333 8.75487 157.681 8.74632C158.54 8.72068 159.404 8.7741 160.259 8.71214C160.683 8.68222 161.147 8.55829 161.499 8.32112C162.052 7.94934 162.342 7.2891 162.48 6.63528C162.555 6.27845 162.366 5.8383 162.239 5.45797C161.954 4.61398 161.383 4.13536 160.532 4.11827C159.557 4.09904 158.58 4.11827 157.603 4.10331C157.307 4.09904 157.186 4.21655 157.192 4.53706C157.204 5.1396 157.196 5.74215 157.196 6.34469V6.34255Z" fill="white"/>
<path d="M69.5027 7.30226H75.8749C75.8749 6.65057 75.8749 6.0523 75.8749 5.45403C75.8749 3.99895 75.8888 2.54387 75.8669 1.09092C75.8609 0.646492 75.9365 0.4606 76.41 0.499061C77.1521 0.556751 77.8981 0.514018 78.6442 0.516154C79.3086 0.516154 79.3126 0.518291 79.3126 1.21912C79.3126 4.85576 79.3126 8.49239 79.3126 12.129C79.3126 14.0606 79.3126 15.9943 79.3086 17.9258C79.3086 18.1545 79.3365 18.4151 79.0082 18.4173C77.9857 18.4173 76.9631 18.4173 75.9007 18.4173C75.8908 18.1801 75.8768 17.9899 75.8749 17.8019C75.8749 15.7977 75.8749 13.7935 75.8749 11.7872C75.8749 11.0799 75.7814 10.9752 75.1388 10.9731C73.4676 10.9667 71.7945 10.9795 70.1234 10.9453C69.6419 10.9346 69.4907 11.1034 69.4967 11.6077C69.5226 13.6995 69.5206 15.7934 69.5285 17.8874C69.5285 18.0263 69.5166 18.1673 69.5066 18.3746C69.2202 18.3895 68.9476 18.4151 68.6731 18.4173C67.8952 18.4237 67.1153 18.4002 66.3395 18.428C65.9595 18.4408 65.854 18.2955 65.862 17.9088C65.8819 16.9515 65.868 15.9921 65.868 15.0349C65.868 10.4218 65.868 5.80872 65.868 1.19776C65.868 0.486241 65.8699 0.486241 66.5185 0.484104C67.2645 0.484104 68.0086 0.481967 68.7546 0.484104C69.4271 0.486241 69.5047 0.567435 69.5047 1.2704C69.5047 3.06308 69.5047 4.85362 69.5047 6.6463V7.30226H69.5027Z" fill="white"/>
<path d="M172.222 12.6779C172.086 13.6907 172.651 14.2719 173.266 14.7142C174.074 15.2975 175.009 15.3573 175.938 15.0262C176.445 14.8467 176.97 14.7099 177.329 14.1929C177.955 13.2848 177.83 12.1609 176.869 11.6822C176.145 11.3211 175.337 11.163 174.569 10.9024C173.96 10.6972 173.354 10.4836 172.755 10.2549C172.09 10.0007 171.396 9.79556 170.787 9.42805C170.314 9.14173 169.914 8.67807 169.55 8.22937C169.114 7.69092 168.895 7.02855 168.889 6.29994C168.885 5.75082 168.863 5.19955 168.885 4.65043C168.925 3.61413 169.383 2.75519 169.993 1.99667C170.626 1.2125 171.442 0.780893 172.381 0.468937C173.853 -0.020363 175.361 0.0309174 176.781 0.306549C178.248 0.590728 179.569 1.44967 180.301 3.04578C180.653 3.81285 180.906 4.56923 180.882 5.42604C180.874 5.75509 180.75 5.89397 180.428 5.88756C179.535 5.86833 178.644 5.87902 177.75 5.87261C177.468 5.87261 177.299 5.75509 177.251 5.41749C177.12 4.51795 176.455 3.956 175.628 3.72097C174.961 3.5308 174.36 3.59063 173.718 3.75729C173.093 3.91968 172.405 4.67393 172.365 5.32775C172.339 5.74013 172.89 6.49438 173.28 6.6354C173.765 6.81061 174.239 7.02001 174.716 7.21444C174.81 7.2529 174.901 7.29778 174.997 7.31914C175.634 7.45803 176.282 7.55418 176.907 7.73793C177.287 7.84904 177.633 8.09048 177.995 8.27424C178.067 8.31056 178.136 8.36398 178.214 8.38321C179.316 8.66312 180.152 9.39386 180.79 10.3319C181.075 10.7507 181.18 11.3553 181.242 11.8916C181.321 12.5925 181.268 13.3083 181.282 14.0155C181.305 15.3189 180.595 16.2355 179.78 17.0261C179.225 17.5645 178.55 18.0004 177.868 18.3359C177.346 18.5923 176.734 18.6735 176.153 18.7312C175.496 18.7974 174.824 18.8124 174.169 18.7397C172.958 18.6051 171.84 18.2226 170.781 17.4791C169.914 16.8701 169.397 16.0347 168.971 15.1351C168.68 14.524 168.673 13.7527 168.577 13.0476C168.563 12.9408 168.754 12.695 168.856 12.6929C169.946 12.6673 171.036 12.6758 172.224 12.6758L172.222 12.6779Z" fill="white"/>
<path d="M138.308 18.4066C136.863 18.4066 135.526 18.4109 134.189 18.4002C134.1 18.4002 133.985 18.3169 133.925 18.2357C133.274 17.3212 132.62 16.4088 131.995 15.4751C131.599 14.8832 131.277 14.2315 130.875 13.6461C130.151 12.5884 129.387 11.5628 128.647 10.5159C128.555 10.3877 128.522 10.2146 128.462 10.0607C128.406 10.0565 128.35 10.0522 128.295 10.0501C128.255 10.2616 128.181 10.4731 128.181 10.6847C128.173 13.0436 128.163 15.4046 128.185 17.7635C128.189 18.2613 128.074 18.4536 127.581 18.4344C126.59 18.3959 125.599 18.4237 124.569 18.4237C124.551 18.2293 124.523 18.0754 124.523 17.9216C124.521 12.3684 124.519 6.81726 124.519 1.26402C124.519 0.488403 124.519 0.488403 125.259 0.488403C125.971 0.488403 126.683 0.488403 127.396 0.488403C127.914 0.488403 128.173 0.757625 128.173 1.29607C128.173 3.40711 128.169 5.51816 128.177 7.6292C128.177 7.8856 128.243 8.142 128.297 8.53943C128.796 7.73817 129.174 7.08221 129.598 6.46257C130.071 5.77028 130.605 5.12501 131.08 4.43486C131.362 4.02675 131.571 3.56095 131.836 3.14003C132.319 2.37296 132.805 1.60803 133.328 0.873006C133.455 0.693525 133.73 0.54182 133.939 0.53541C135.013 0.501223 136.091 0.514044 137.168 0.526864C137.297 0.526864 137.47 0.584554 137.54 0.682841C137.587 0.751215 137.52 0.958474 137.452 1.06317C136.816 2.05032 136.181 3.03747 135.522 4.00752C134.904 4.91988 134.249 5.80233 133.626 6.71256C133.169 7.37921 132.711 8.05013 132.313 8.75737C132.22 8.92189 132.294 9.29367 132.413 9.4817C132.894 10.2445 133.42 10.9774 133.935 11.7145C134.428 12.4218 134.934 13.1183 135.421 13.8299C135.793 14.3726 136.135 14.9367 136.505 15.4794C137.034 16.255 137.585 17.0114 138.111 17.7913C138.208 17.9344 138.224 18.1417 138.306 18.4109L138.308 18.4066Z" fill="white"/>
<path d="M88.2989 0.500848C89.4011 0.500848 90.5231 0.498711 91.6452 0.507258C91.7248 0.507258 91.8481 0.579905 91.876 0.652552C92.1246 1.32347 92.3375 2.00721 92.5961 2.67385C92.8826 3.41528 93.2188 4.13321 93.5073 4.87464C93.6665 5.28274 93.7699 5.71435 93.9092 6.13101C94.0126 6.43869 94.13 6.7421 94.2533 7.04337C94.5438 7.7613 94.8542 8.46854 95.1327 9.19074C95.3038 9.63517 95.4152 10.1074 95.5903 10.5497C95.8728 11.274 96.1871 11.9834 96.4795 12.7013C96.6049 13.009 96.7242 13.3209 96.8297 13.6372C97.0883 14.4107 97.3091 15.1991 97.5956 15.9597C97.8622 16.6734 98.1964 17.3571 98.4929 18.058C98.5307 18.1456 98.5207 18.2545 98.5366 18.3892H94.6831C94.4284 17.7695 94.1777 17.1798 93.943 16.5794C93.8157 16.2503 93.6545 15.9149 93.6227 15.5709C93.5769 15.0602 93.2527 15.0303 92.9264 15.0111C92.4469 14.9811 91.9655 15.0025 91.486 14.9961C90.0477 14.9747 88.6073 14.9384 87.1689 14.9448C86.976 14.9448 86.7233 15.1158 86.6079 15.291C86.4408 15.5474 86.3552 15.8743 86.2697 16.182C86.1205 16.714 86.0051 17.2567 85.8619 17.7909C85.7544 18.1904 85.5714 18.449 85.1019 18.434C84.0475 18.3977 82.9931 18.4233 81.8273 18.4233C82.0083 17.8785 82.1456 17.4276 82.3047 16.9875C82.4838 16.4961 82.6887 16.0153 82.8737 15.526C83.0786 14.9854 83.2796 14.4406 83.4686 13.8936C83.7371 13.118 83.9759 12.3295 84.2623 11.5625C84.5389 10.8189 84.8711 10.101 85.1596 9.36167C85.3108 8.9728 85.4043 8.55828 85.5515 8.16727C85.7266 7.70788 85.9434 7.26772 86.1205 6.81047C86.2717 6.41946 86.3811 6.01135 86.5283 5.6182C86.7293 5.0819 86.964 4.56055 87.157 4.01996C87.3122 3.58622 87.4156 3.13324 87.5628 2.69522C87.7359 2.18242 87.9388 1.68243 88.1179 1.1739C88.1855 0.979465 88.2273 0.774343 88.2989 0.505121V0.500848ZM90.1272 5.48787C90.0815 5.5071 90.0357 5.52633 89.99 5.54556C89.3036 7.54549 88.6172 9.54543 87.917 11.5817H92.2977C91.5437 9.50269 90.9767 7.43652 90.1252 5.49L90.1272 5.48787Z" fill="white"/>
<path d="M6.99232 0.503375C8.08254 0.503375 9.18668 0.496965 10.2908 0.514058C10.3863 0.514058 10.5276 0.640122 10.5654 0.742683C10.9235 1.69778 11.2458 2.66783 11.6118 3.62079C11.8844 4.32804 12.2246 5.0075 12.4991 5.71474C12.6702 6.15704 12.7557 6.63779 12.9189 7.08436C13.086 7.53947 13.3088 7.97108 13.4899 8.42192C13.6391 8.79798 13.7624 9.18472 13.8977 9.56718C14.0409 9.97102 14.1802 10.377 14.3274 10.7808C14.5164 11.3064 14.7094 11.8299 14.9043 12.3534C15.0416 12.7167 15.1829 13.0778 15.3301 13.4367C15.5071 13.8683 15.6961 14.2935 15.8712 14.7251C16.0861 15.2529 16.2989 15.7828 16.5039 16.3148C16.6252 16.6289 16.7346 16.9494 16.8401 17.2699C16.9575 17.6203 17.0649 17.975 17.1942 18.381H13.265C13.1377 17.8938 13.0323 17.3682 12.8612 16.8682C12.6682 16.3106 12.4434 15.7614 12.1689 15.2465C12.0893 15.0991 11.7948 15.0328 11.5939 15.02C11.1164 14.9858 10.635 15.0136 10.1536 15.0029C8.89622 14.9773 7.64088 14.9388 6.38554 14.9217C5.61762 14.911 5.44453 15.1033 5.19784 15.864C4.93922 16.6588 4.60897 17.428 4.29861 18.2015C4.26081 18.2934 4.14543 18.4131 4.06585 18.4152C2.91197 18.428 1.7561 18.4237 0.458984 18.4237C0.594267 18.1032 0.697718 17.8917 0.777296 17.6695C0.926504 17.255 1.05781 16.8319 1.20901 16.4174C1.52334 15.5627 1.85557 14.7145 2.15996 13.8555C2.42058 13.1184 2.6434 12.3641 2.906 11.6269C3.07312 11.1611 3.28798 10.7146 3.46902 10.2531C3.6043 9.91119 3.72764 9.56291 3.84701 9.21249C4.2071 8.1527 4.53138 7.07795 4.92728 6.03311C5.30726 5.03101 5.78672 4.07164 6.16869 3.06953C6.47507 2.26614 6.69987 1.42642 6.99033 0.507648L6.99232 0.503375ZM10.9792 11.5906C10.253 9.50522 9.55274 7.49033 8.85245 5.47544L8.67539 5.50962C7.96715 7.51597 7.25891 9.52018 6.52878 11.5906H10.9792V11.5906Z" fill="white"/>
<path d="M42.2016 18.3661C41.9529 18.3875 41.7739 18.4174 41.5948 18.4174C38.5152 18.4195 35.4375 18.411 32.3598 18.4302C31.954 18.4323 31.8605 18.2892 31.8625 17.8811C31.8764 12.33 31.8764 6.77888 31.8784 1.22777C31.8784 0.753431 32.1065 0.515547 32.5627 0.514123C35.4753 0.514123 38.3878 0.529079 41.3004 0.501302C41.8176 0.497029 41.9509 0.659417 41.9211 1.18931C41.8793 1.93074 41.9131 2.67858 41.9092 3.42428C41.9072 4.10589 41.9052 4.10589 41.2427 4.10589C39.5079 4.10589 37.7711 4.11657 36.0363 4.09734C35.6464 4.09307 35.5131 4.21699 35.529 4.64006C35.5569 5.40072 35.535 6.16565 35.537 6.92844C35.539 7.55236 35.6046 7.61859 36.2054 7.61859C37.7114 7.61859 39.2174 7.63355 40.7215 7.61005C41.1333 7.60364 41.2705 7.74679 41.2546 8.18695C41.2268 8.96684 41.2308 9.74887 41.2546 10.5266C41.2666 10.9262 41.1134 11.0822 40.7632 11.0629C40.3355 11.0394 39.9058 10.986 39.4781 10.9903C38.3381 11.0031 37.1981 11.0437 36.0562 11.0651C35.718 11.0715 35.527 11.1933 35.533 11.5928C35.5429 12.4966 35.5429 13.4026 35.533 14.3064C35.529 14.6932 35.6742 14.8171 36.0383 14.8149C37.8427 14.7978 39.6472 14.8064 41.4496 14.8085C42.2056 14.8085 42.2056 14.8192 42.2016 15.597C42.1956 16.4986 42.2016 17.4003 42.2016 18.3661V18.3661Z" fill="white"/>
<path d="M150.521 18.368C150.256 18.3894 150.061 18.4172 149.866 18.4172C146.818 18.4193 143.771 18.4086 140.725 18.43C140.269 18.4343 140.178 18.2719 140.18 17.821C140.194 12.2315 140.192 6.6419 140.18 1.05234C140.18 0.610048 140.309 0.471164 140.719 0.475437C143.731 0.49894 146.745 0.509624 149.759 0.505351C150.127 0.505351 150.25 0.614321 150.238 1.01602C150.211 1.88565 150.22 2.75528 150.232 3.62491C150.238 3.98814 150.115 4.11635 149.769 4.10994C148.114 4.07361 146.458 4.05865 144.803 4.04583C144.509 4.0437 144.214 4.09284 143.862 4.12062C143.862 5.18469 143.842 6.20816 143.872 7.23377C143.884 7.63546 144.214 7.65042 144.509 7.64828C145.834 7.6376 147.159 7.62478 148.482 7.61837C149.586 7.61409 149.586 7.61837 149.586 8.79782C149.586 9.34694 149.562 9.90035 149.592 10.4473C149.618 10.9153 149.445 11.0819 149.019 11.0691C147.746 11.0285 146.472 11.0114 145.199 10.9858C144.984 10.9815 144.769 10.9815 144.553 10.9858C143.98 10.9986 143.856 11.1289 143.854 11.7422C143.852 12.5755 143.868 13.4109 143.848 14.2442C143.838 14.6801 143.991 14.8318 144.397 14.8275C146.186 14.8062 147.974 14.8104 149.763 14.8083C150.519 14.8083 150.519 14.8126 150.519 15.5925C150.519 16.4963 150.519 17.4001 150.519 18.368H150.521Z" fill="white"/>
<path d="M43.9086 0.558852H47.7542C48.7529 2.36435 49.7157 4.10361 50.7284 5.93261C51.0089 5.47109 51.2834 5.05016 51.5261 4.60787C51.8226 4.06729 52.0772 3.50106 52.3736 2.96048C52.7576 2.25965 53.1515 1.56523 53.5693 0.887902C53.6668 0.72765 53.8677 0.543896 54.0269 0.537486C55.0853 0.496889 56.1456 0.496889 57.204 0.490479C57.58 0.490479 57.6238 0.687053 57.4507 1.00542C57.0349 1.76821 56.639 2.54597 56.2033 3.29594C55.9427 3.74465 55.5965 4.1378 55.332 4.58436C55.0534 5.0523 54.8326 5.55869 54.572 6.03944C54.1641 6.78942 53.7543 7.53939 53.3226 8.27441C52.8949 9.00516 52.9307 9.19105 53.4241 9.97094C53.7583 10.5008 53.9672 11.1205 54.2636 11.6803C54.5123 12.1525 54.8107 12.5926 55.0773 13.0542C55.4692 13.7315 55.8412 14.4216 56.2391 15.0947C56.7604 15.9814 57.3055 16.8511 57.8207 17.7399C57.9162 17.9044 57.9162 18.1331 57.9819 18.4194H56.9872C56.2909 18.4194 55.5866 18.3403 54.9042 18.4407C54.1741 18.5476 53.8697 18.1267 53.5773 17.5604C53.1714 16.7763 52.7357 16.0092 52.3259 15.2272C51.9459 14.5028 51.5918 13.7657 51.2118 13.0435C51.0805 12.7956 50.9034 12.5756 50.7264 12.3106C49.6123 14.349 48.532 16.3297 47.412 18.3809H43.4211C43.5723 18.0925 43.6778 17.8852 43.7892 17.6822C44.0379 17.2271 44.2945 16.7763 44.5432 16.319C44.8257 15.7977 45.1022 15.2742 45.3827 14.7507C45.7826 14.0029 46.1646 13.2422 46.5903 12.5093C46.8569 12.0499 47.2011 11.6418 47.4816 11.191C47.6447 10.9303 47.7362 10.6205 47.8855 10.347C48.0605 10.0265 48.2933 9.73804 48.4365 9.40258C48.5181 9.20814 48.5579 8.89832 48.4684 8.73166C47.8477 7.59281 47.1971 6.47319 46.5406 5.35571C46.0353 4.49676 45.5001 3.65918 44.9928 2.80237C44.6208 2.17418 44.2686 1.53104 43.9205 0.887902C43.8787 0.810981 43.9145 0.684917 43.9145 0.554579L43.9086 0.558852Z" fill="white"/>
<path d="M29.2344 18.3958H19.2175C19.2175 18.0026 19.2175 17.618 19.2175 17.2356C19.2175 11.896 19.2175 6.55429 19.2175 1.21472C19.2175 0.522432 19.2175 0.526705 19.8701 0.518159C20.6141 0.511749 21.3602 0.490382 22.1042 0.486108C22.8582 0.481835 22.8602 0.486108 22.8602 1.27241C22.8602 5.40689 22.8602 9.54137 22.8602 13.6737C22.8602 13.834 22.8662 13.9942 22.8602 14.1523C22.8383 14.6224 22.9835 14.8297 23.4809 14.8211C25.2197 14.7869 26.9585 14.819 28.6972 14.7997C29.0951 14.7955 29.2563 14.9044 29.2443 15.3617C29.2165 16.351 29.2364 17.3445 29.2364 18.3958H29.2344Z" fill="white"/>
</svg>
