<svg width="78" height="71" viewBox="0 0 78 71" fill="none" xmlns="http://www.w3.org/2000/svg">
<path d="M17.2858 50.9284C17.399 50.3362 17.5154 49.7648 17.6171 49.1914C17.9715 47.1871 18.3112 45.1797 18.674 43.1775C18.9225 41.8063 19.2087 40.4415 19.4646 39.0703C19.669 37.9749 19.8483 36.8753 20.0486 35.7788C20.317 34.3049 20.6032 32.8341 20.8664 31.3603C21.0929 30.0919 21.2869 28.8182 21.5186 27.5508C21.788 26.078 22.0879 24.6115 22.3658 23.1397C22.7558 21.0704 23.1469 19.0022 23.5202 16.9297C23.7729 15.524 23.9847 14.1109 24.2374 12.7052C24.4827 11.3351 24.7648 9.97231 25.0164 8.60326C25.2397 7.38831 25.4347 6.16812 25.6591 4.95317C25.9118 3.58412 26.1708 2.21612 26.4508 0.853362C26.6269 0.00216238 26.6468 0.00635547 27.5192 0.00635547C37.9508 0.00635547 48.3823 0.0126451 58.815 6.58181e-05C60.9843 -0.00307901 63.1421 0.105942 65.2863 0.44139C66.3841 0.613307 67.485 0.772645 68.5734 0.990686C69.1155 1.09866 69.6502 1.2884 70.1608 1.50749C71.1611 1.93623 72.2065 2.31046 73.1134 2.89435C74.0822 3.51808 74.9724 4.28017 75.6697 5.24564C76.7916 6.79813 77.319 8.55085 77.6388 10.4052C78.1578 13.4117 77.9785 16.4328 77.8065 19.4424C77.6975 21.3492 77.3347 23.2435 77.0631 25.1398C76.8828 26.3977 76.6846 27.6536 76.4508 28.9031C76.217 30.1527 75.9329 31.3917 75.6623 32.6339C75.3027 34.2829 74.9661 35.9381 74.5593 37.5755C74.2196 38.9425 73.8107 40.2916 73.4018 41.6407C72.5997 44.2908 71.6612 46.8915 70.4796 49.3979C69.3797 51.7283 68.0271 53.9034 66.1409 55.6771C65.2412 56.5231 64.2672 57.3198 63.1054 57.825C62.8213 57.9487 62.5676 58.1406 62.2866 58.2737C60.8407 58.9614 59.3497 59.5222 57.7654 59.8C56.7567 59.9771 55.7481 60.1595 54.7352 60.3084C51.402 60.7979 48.0447 60.5453 44.6979 60.6103C44.0216 60.6229 43.3443 60.6124 42.5988 60.6124C42.7781 59.6281 42.9469 58.7276 43.1063 57.8261C43.4607 55.8197 43.8182 53.8143 44.1548 51.8058C44.224 51.3918 44.376 51.2041 44.83 51.2104C46.5422 51.2345 48.2565 51.2754 49.9666 51.2083C51.6558 51.1423 53.3554 51.05 55.0215 50.789C56.4904 50.5594 57.9028 50.0521 59.162 49.1904C60.4202 48.3298 61.4236 47.2406 62.2111 45.9502C63.4525 43.9134 64.3123 41.7015 64.933 39.4173C65.6586 36.7484 66.296 34.0512 66.8339 31.3383C67.2743 29.1212 67.5563 26.8695 67.83 24.6241C68.0764 22.6009 68.3155 20.5683 68.3721 18.5336C68.4203 16.8207 68.4277 15.0711 67.7839 13.4211C67.4704 12.6192 66.9199 11.9787 66.2258 11.4996C64.2714 10.1505 62.037 9.61485 59.7135 9.59598C51.467 9.52679 43.2195 9.52574 34.973 9.49115C34.5242 9.48905 34.2705 9.59283 34.1898 10.0971C33.9371 11.6779 33.6466 13.2524 33.352 14.8258C33.1119 16.1089 32.8299 17.3847 32.5918 18.6688C32.3507 19.9697 32.1504 21.278 31.9156 22.581C31.6744 23.9144 31.4039 25.2436 31.1638 26.577C30.9415 27.8098 30.7538 29.0488 30.5284 30.2816C30.2977 31.5479 30.0283 32.8079 29.7976 34.0753C29.5732 35.3081 29.3876 36.5482 29.1632 37.781C28.9263 39.0829 28.6526 40.3775 28.4136 41.6795C28.1934 42.8766 28.0088 44.0811 27.7865 45.2793C27.5265 46.6829 27.2403 48.0824 26.974 49.485C26.9152 49.7921 26.8859 50.1045 26.8555 50.4169C26.8198 50.7848 26.6636 50.9767 26.2557 50.9756C23.3556 50.9672 20.4544 50.9735 17.5542 50.9735C17.4881 50.9735 17.4221 50.9515 17.29 50.9284H17.2858Z" fill="white"/>
<path d="M1.86658 60.5379C2.01022 59.6898 2.15177 58.8355 2.30066 57.9822C2.57327 56.4203 2.84693 54.8594 3.12478 53.2985C3.39635 51.7722 3.67735 50.247 3.94891 48.7207C4.21418 47.2279 4.47106 45.7341 4.73634 44.2414C5.09702 42.2182 5.4661 40.1961 5.82259 38.1719C6.08891 36.6624 6.33321 35.1487 6.59953 33.6391C6.87529 32.0783 7.17096 30.5205 7.44882 28.9607C7.71199 27.4847 7.95734 26.0067 8.21947 24.5296C8.5812 22.4886 8.95447 20.4487 9.31306 18.4077C9.57833 16.8971 9.84046 15.3866 10.0764 13.8718C10.133 13.5091 10.2515 13.3634 10.6352 13.3655C13.5008 13.3791 16.3653 13.3728 19.2309 13.376C19.3483 13.376 19.4668 13.4022 19.6188 13.42C19.4605 14.3509 19.3095 15.2545 19.1533 16.1571C18.8639 17.8228 18.5766 19.4885 18.2788 21.1531C17.9286 23.1082 17.5648 25.0611 17.2146 27.0161C16.9567 28.4586 16.7124 29.902 16.4565 31.3455C16.0885 33.4222 15.7131 35.4967 15.3483 37.5733C15.0043 39.5294 14.6762 41.4886 14.3302 43.4447C13.9883 45.383 13.6287 47.3181 13.2858 49.2553C13.0164 50.7816 12.7668 52.3121 12.4963 53.8394C12.2227 55.3835 11.9322 56.9245 11.6544 58.4675C11.5464 59.0672 11.4688 59.6741 11.3409 60.2695C11.3115 60.4048 11.1312 60.6081 11.019 60.6081C8.03179 60.6259 5.0446 60.6218 2.05741 60.6176C2.01022 60.6176 1.96409 60.5798 1.86658 60.5368V60.5379Z" fill="white"/>
<path d="M47.0247 13.3582C46.8401 14.4379 46.6703 15.4474 46.4941 16.4558C46.2142 18.0523 45.9321 19.6478 45.6459 21.2433C45.3691 22.7874 45.0797 24.3284 44.805 25.8725C44.5366 27.383 44.2849 28.8957 44.0176 30.4063C43.6621 32.4127 43.2941 34.418 42.9376 36.4244C42.6063 38.2945 42.2875 40.1668 41.9572 42.0369C41.6731 43.6502 41.3764 45.2614 41.0943 46.8747C40.8993 47.99 40.7273 49.1106 40.5302 50.226C40.1895 52.1475 39.8351 54.0669 39.4891 55.9873C39.2332 57.4109 38.9721 58.8323 38.7383 60.2601C38.6901 60.5515 38.5863 60.6312 38.3042 60.6301C35.3684 60.6228 32.4326 60.628 29.4979 60.627C29.4486 60.627 29.3993 60.605 29.264 60.5725C29.3899 59.8272 29.5115 59.0808 29.6405 58.3355C29.9204 56.7222 30.2004 55.1078 30.4876 53.4956C30.7561 51.9861 31.0371 50.4776 31.3065 48.9681C31.576 47.4586 31.835 45.9469 32.1034 44.4374C32.4599 42.43 32.8258 40.4236 33.1792 38.4161C33.3752 37.2997 33.5451 36.1791 33.7422 35.0637C34.0033 33.5888 34.2822 32.117 34.5464 30.6421C34.8106 29.1672 35.0654 27.6902 35.3275 26.2142C35.6138 24.6009 35.9063 22.9887 36.1884 21.3743C36.4589 19.8292 36.7189 18.2809 36.9863 16.7357C37.1614 15.722 37.3302 14.7073 37.5336 13.6999C37.5598 13.5678 37.7706 13.376 37.8974 13.3749C40.9171 13.3571 43.9368 13.3603 47.0247 13.3603V13.3582Z" fill="white"/>
<path d="M5.68196 70.0458C5.62325 68.5709 5.69035 67.0866 5.6526 65.6106C5.58864 65.5938 5.52364 65.576 5.45968 65.5592C5.34959 65.7311 5.21223 65.8915 5.13464 66.0771C4.6408 67.2669 4.16687 68.4661 3.66778 69.6538C3.60278 69.8079 3.42453 69.9148 3.29871 70.0437C3.18757 69.9201 3.03239 69.8142 2.97158 69.6685C2.46934 68.4818 1.98493 67.2878 1.49633 66.0949C1.47012 66.031 1.47117 65.9418 1.42503 65.901C1.31808 65.8056 1.19121 65.7322 1.07273 65.6504C1.02765 65.772 0.942719 65.8936 0.942719 66.0142C0.943768 67.183 0.963689 68.3518 0.967883 69.5217C0.967883 69.6926 0.921749 69.8634 0.888197 70.0993C0.588324 69.7859 0.485571 66.6536 0.655429 65.2227C1.33591 65.0288 1.39987 65.0571 1.66199 65.6945C2.11914 66.8056 2.5679 67.921 3.03344 69.028C3.08586 69.1527 3.22846 69.2397 3.32912 69.3435C3.41824 69.2282 3.53672 69.1265 3.59019 68.9965C4.0767 67.8214 4.55901 66.6452 5.0256 65.4617C5.22376 64.9586 5.60961 65.1672 5.94409 65.1441V70.0333C5.85706 70.0364 5.77004 70.0406 5.68301 70.0437L5.68196 70.0458Z" fill="white"/>
<path d="M38.0819 65.6493C38.0567 65.838 38.0106 66.0277 38.0106 66.2164C38.0085 67.3507 38.02 68.4849 38.0158 69.6191C38.0158 69.7638 37.9508 69.9085 37.9162 70.0521C37.8628 70.0447 37.8082 70.0384 37.7548 70.0311V65.1881C38.258 65.0025 38.5317 65.1671 38.7246 65.6912C39.1451 66.8339 39.6305 67.9534 40.1024 69.0772C40.1475 69.1852 40.2806 69.2554 40.3718 69.3434C40.4599 69.2449 40.5847 69.161 40.6319 69.0457C41.1121 67.8884 41.5996 66.7332 42.039 65.5602C42.1952 65.1419 42.4741 65.0497 42.8012 65.1713C42.9365 65.2216 43.0392 65.5403 43.0424 65.7384C43.0644 66.9943 43.056 68.2511 43.0508 69.507C43.0508 69.681 43.0088 69.854 42.9868 70.028L42.8159 70.0384C42.7823 69.877 42.7194 69.7156 42.7194 69.5541C42.7163 68.4031 42.7331 67.2511 42.7226 66.1001C42.7215 65.9397 42.6083 65.7793 42.5475 65.6189C42.429 65.751 42.2644 65.8642 42.1994 66.0194C41.6909 67.2406 41.2075 68.4723 40.6979 69.6936C40.6392 69.833 40.4725 69.9284 40.3561 70.0437C40.2418 69.9221 40.0835 69.8194 40.0216 69.6747C39.5257 68.5048 39.0518 67.3266 38.56 66.1546C38.4793 65.9628 38.3493 65.7919 38.2413 65.6116C38.1867 65.6231 38.1333 65.6357 38.0787 65.6472L38.0819 65.6493Z" fill="white"/>
<path d="M18.0963 65.5613C17.9967 67.0509 18.1498 68.5573 18.0219 70.0448C17.937 70.0427 17.851 70.0417 17.7661 70.0396C17.6665 68.42 17.7587 66.7952 17.7115 65.1903C18.2473 65.0362 18.5409 65.1777 18.7957 65.6211C19.5244 66.8895 20.3108 68.1254 21.0647 69.3802C21.1423 69.5102 21.158 69.6779 21.202 69.8278C21.2995 69.7565 21.397 69.6853 21.4946 69.615C21.4946 69.4546 21.4946 69.2943 21.4946 69.1339C21.4904 67.9126 21.4809 66.6914 21.4872 65.4691C21.4872 65.3569 21.5868 65.2458 21.6392 65.1347C21.7053 65.2511 21.8269 65.3664 21.828 65.4827C21.8416 66.8434 21.8427 68.2051 21.8269 69.5658C21.8248 69.723 21.677 70.0186 21.6277 70.0123C21.3939 69.983 21.0699 69.9369 20.9619 69.7754C20.3234 68.8204 19.7362 67.8309 19.1302 66.8528C18.8513 66.4031 18.5713 65.9534 18.2924 65.5037C18.2274 65.5226 18.1624 65.5425 18.0974 65.5613H18.0963Z" fill="white"/>
<path d="M51.77 69.6191C51.7784 69.4377 51.7941 69.2553 51.7941 69.074C51.792 67.8695 51.7826 66.6651 51.7899 65.4606C51.7899 65.3495 51.8885 65.2383 51.942 65.1272C52.0059 65.21 52.1255 65.2939 52.1265 65.3778C52.1381 66.9103 52.1349 68.444 52.1349 69.9765C51.6327 70.1296 51.3265 70.0195 51.0675 69.5709C50.3294 68.2878 49.5461 67.0309 48.7703 65.7698C48.7084 65.6702 48.5647 65.621 48.4588 65.5476C48.4138 65.6671 48.3309 65.7866 48.3309 65.9051C48.333 67.1263 48.354 68.3475 48.3529 69.5698C48.3529 69.7176 48.2491 69.8644 48.1936 70.0122C48.1286 69.8591 48.008 69.7071 48.0059 69.5541C47.9912 68.2804 47.9902 67.0057 48.008 65.731C48.0111 65.5361 48.0856 65.2216 48.2093 65.1744C48.5113 65.058 48.787 65.1524 48.9873 65.4941C49.7192 66.7416 50.4835 67.9712 51.2405 69.2029C51.3443 69.3717 51.4806 69.5195 51.6023 69.6767C51.6578 69.6579 51.7134 69.639 51.77 69.6212V69.6191Z" fill="white"/>
<path d="M67.8962 69.9745C67.3678 70.1328 67.0815 69.9955 66.8362 69.5741C66.0928 68.2941 65.3095 67.0383 64.5316 65.7793C64.4686 65.6766 64.3292 65.621 64.2264 65.5424C64.1793 65.6734 64.0922 65.8055 64.0922 65.9365C64.0922 67.1745 64.1122 68.4126 64.108 69.6516C64.108 69.7753 63.9916 69.899 63.9287 70.0227C63.8689 69.9336 63.7829 69.8508 63.7578 69.7533C63.7284 69.639 63.7536 69.5112 63.7536 69.3885C63.7536 67.9974 63.7536 66.6064 63.7536 65.2195C64.2527 65.0445 64.5557 65.1493 64.8042 65.5738C65.5255 66.8066 66.2763 68.0216 67.0218 69.2407C67.1161 69.3948 67.243 69.529 67.4915 69.6443C67.5187 69.4755 67.5691 69.3067 67.5691 69.1369C67.5722 67.9335 67.5596 66.729 67.5691 65.5256C67.5701 65.3925 67.6844 65.2594 67.7463 65.1262C67.7966 65.2573 67.8889 65.3883 67.8899 65.5193C67.9004 66.9995 67.8962 68.4797 67.8962 69.9745V69.9745Z" fill="white"/>
<path d="M26.6102 66.4209C26.5494 66.2867 26.4708 66.1589 26.433 66.0184C26.3345 65.6525 26.1195 65.4397 25.7305 65.4366C25.156 65.4324 24.5803 65.4156 24.0057 65.4387C23.4846 65.4597 23.1984 65.793 23.1795 66.2857C23.1481 67.14 23.1418 67.9965 23.1795 68.8508C23.2068 69.4389 23.4941 69.7041 24.0791 69.7419C24.6002 69.7754 25.1276 69.7807 25.6488 69.744C26.28 69.6999 26.7738 68.7282 26.4404 68.1841C26.3659 68.0625 26.1216 68.0038 25.9497 67.9902C25.5879 67.9608 25.222 67.9818 24.8571 67.9818L24.8372 67.7963C24.9316 67.7564 25.0249 67.6893 25.1224 67.6841C25.3835 67.6694 25.6456 67.681 25.9077 67.682C26.5473 67.6848 26.8444 68.0147 26.799 68.6716C26.7224 69.7754 26.4624 70.0343 25.352 70.0679C24.8991 70.0815 24.4398 70.0888 23.9921 70.0333C23.2382 69.94 22.909 69.6297 22.866 68.8917C22.8146 68.0216 22.8136 67.1453 22.8566 66.2752C22.888 65.6305 23.2204 65.249 23.8579 65.1829C24.5636 65.1106 25.2881 65.1158 25.9948 65.185C26.6155 65.2458 26.844 65.684 26.6081 66.422L26.6102 66.4209Z" fill="white"/>
<path d="M31.2258 65.1378C32.0457 65.1378 32.8478 65.1158 33.6478 65.1441C34.5569 65.1766 34.9836 65.467 35.0581 66.3569C35.1378 67.2972 35.0654 68.2638 34.9459 69.2041C34.8683 69.8225 34.2832 69.9819 33.7401 70.0028C32.9223 70.0353 32.1023 70.0112 31.2247 70.0112V65.1378H31.2258ZM31.5068 67.5939H31.5089C31.5089 68.1684 31.4869 68.7449 31.5246 69.3173C31.534 69.463 31.7312 69.7093 31.8517 69.7156C32.4945 69.7481 33.1414 69.7502 33.7831 69.7009C34.2696 69.6642 34.6869 69.4127 34.7152 68.877C34.7613 68.0164 34.7928 67.1463 34.7215 66.2898C34.6712 65.6944 34.3315 65.4722 33.7139 65.4481C33.1225 65.425 32.5291 65.4449 31.9367 65.4334C31.6284 65.4282 31.4952 65.5529 31.5036 65.8684C31.5173 66.4429 31.5078 67.0184 31.5078 67.5929L31.5068 67.5939Z" fill="white"/>
<path d="M53.2034 68.5353C53.2915 68.7743 53.3733 68.9273 53.4027 69.0898C53.4834 69.5406 53.7455 69.7597 54.1953 69.7597C54.6483 69.7597 55.1044 69.7775 55.5542 69.7408C56.1508 69.6915 56.3636 69.3613 56.3406 68.6118C56.3217 68.0164 56.1141 67.8004 55.5238 67.7491C54.9859 67.7029 54.4417 67.6872 53.9133 67.5876C53.324 67.4765 53.0619 67.0551 53.0692 66.3832C53.0787 65.6263 53.3062 65.2437 53.9468 65.1703C54.5466 65.1011 55.1662 65.1158 55.7681 65.1766C56.2682 65.228 56.5691 65.6347 56.5366 66.076C56.5303 66.1693 56.4307 66.2553 56.3741 66.3444C56.3154 66.272 56.2106 66.2029 56.2043 66.1263C56.1613 65.5519 55.7775 65.4114 55.2984 65.3999C54.9503 65.3915 54.6001 65.3894 54.253 65.4187C53.6375 65.4701 53.4205 65.7112 53.3995 66.3171C53.3754 66.9922 53.5453 67.2386 54.1775 67.3266C54.6776 67.3968 55.1872 67.3947 55.6894 67.4503C56.3552 67.5237 56.5597 67.7428 56.6383 68.4084C56.7778 69.5835 56.4024 70.0437 55.2134 70.0553C54.664 70.0605 54.0978 70.0154 53.5683 69.8792C53.0913 69.7555 52.9203 69.1233 53.2013 68.5353H53.2034Z" fill="white"/>
<path d="M62.8989 67.6358C62.8675 68.1002 62.8444 68.6065 62.7951 69.1096C62.7511 69.5541 62.5204 69.9137 62.0612 69.9357C61.2339 69.9766 60.3993 69.9818 59.5762 69.9042C59.3518 69.8833 59.0069 69.5279 58.9828 69.2973C58.8737 68.2794 58.8161 67.25 58.8318 66.2258C58.8402 65.6818 59.2019 65.2478 59.7838 65.2059C60.5083 65.1535 61.2423 65.1566 61.9658 65.2101C62.5099 65.2509 62.7752 65.6472 62.814 66.1797C62.8486 66.6493 62.8696 67.1211 62.8989 67.6337V67.6358ZM62.598 67.5372C62.5728 67.5372 62.5466 67.5351 62.5215 67.5341C62.5215 67.099 62.5435 66.664 62.5152 66.2311C62.4837 65.7415 62.1859 65.4658 61.6994 65.4491C61.127 65.4281 60.5534 65.4333 59.9809 65.4459C59.5385 65.4554 59.2134 65.6954 59.2019 66.1336C59.1757 67.1378 59.1841 68.1452 59.2491 69.1463C59.2617 69.3434 59.5804 69.6589 59.7807 69.6789C60.4685 69.747 61.1679 69.7334 61.8609 69.6977C62.2226 69.6789 62.4575 69.443 62.4827 69.0447C62.5141 68.5415 62.5592 68.0394 62.5991 67.5362L62.598 67.5372Z" fill="white"/>
<path d="M72.176 66.3685C72.0953 66.3181 72.0292 66.3003 72.0146 66.2626C71.6727 65.4166 71.6486 65.3957 70.7406 65.3852C70.532 65.3831 70.3212 65.3883 70.1136 65.4082C69.3388 65.4816 69.0483 65.8737 69.1763 66.6389C69.2381 67.0048 69.4059 67.2605 69.8001 67.2993C70.3202 67.3507 70.8423 67.3853 71.3624 67.4398C72.1572 67.5237 72.3763 67.7658 72.4088 68.5782C72.4486 69.55 72.2368 69.9095 71.4389 70.0133C70.8906 70.0846 70.3223 70.0815 69.7708 70.029C69.128 69.9682 68.8103 69.5772 68.7946 68.9462C68.7925 68.8455 68.8722 68.7428 68.9141 68.6411C68.9907 68.7145 69.1091 68.7732 69.1375 68.8623C69.4279 69.7512 69.4331 69.7607 70.359 69.7775C70.5854 69.7816 70.813 69.7775 71.0394 69.767C71.937 69.7208 72.3773 69.0709 72.0187 68.2312C71.9275 68.0174 71.6056 67.8256 71.3571 67.7721C70.9189 67.6778 70.4544 67.7124 70.0035 67.6652C69.2004 67.5803 68.8428 67.1798 68.8418 66.401C68.8418 65.5319 69.1417 65.1755 70.0098 65.1242C70.5288 65.0938 71.0625 65.0969 71.571 65.186C72.1928 65.295 72.4182 65.7751 72.1771 66.3706L72.176 66.3685Z" fill="white"/>
<path d="M6.86574 67.4796C6.86574 67.1127 6.84267 66.7448 6.87098 66.38C6.9255 65.6745 7.21384 65.2688 7.90586 65.1975C8.64086 65.1221 9.39473 65.1797 10.135 65.2437C10.5596 65.2804 10.8385 65.6137 10.849 66.033C10.8763 67.0939 10.8889 68.1589 10.8186 69.2156C10.8018 69.4619 10.4485 69.8634 10.2199 69.8865C9.36538 69.9714 8.49407 69.9756 7.63849 69.9022C7.41096 69.8823 7.10165 69.506 7.03245 69.2407C6.88461 68.6747 6.86888 68.073 6.79968 67.4859C6.8217 67.4838 6.84372 67.4817 6.86574 67.4796V67.4796ZM10.6655 67.5635C10.6425 67.1148 10.6288 66.6976 10.5963 66.2815C10.5565 65.7762 10.2828 65.468 9.76695 65.4481C9.19447 65.4261 8.62094 65.4324 8.04845 65.446C7.57453 65.4565 7.26312 65.7406 7.24949 66.1861C7.21908 67.1568 7.2432 68.1296 7.28514 69.1003C7.30087 69.4714 7.57662 69.7051 7.95199 69.7177C8.59367 69.7397 9.23851 69.7492 9.87914 69.7135C10.2912 69.6905 10.5355 69.4315 10.5607 68.9933C10.589 68.5069 10.632 68.0216 10.6655 67.5646V67.5635Z" fill="white"/>
<path d="M46.9344 67.5761C46.7834 67.597 46.6325 67.6358 46.4815 67.6369C45.9226 67.6432 45.3638 67.6432 44.8049 67.6337C44.4788 67.6285 44.3184 67.7669 44.3236 68.1013C44.331 68.4849 44.3289 68.8697 44.3257 69.2544C44.3226 69.6097 44.4956 69.7502 44.8468 69.7429C45.4581 69.7282 46.0694 69.7345 46.6807 69.7387C46.8044 69.7387 46.9271 69.767 47.0508 69.7817C47.0571 69.833 47.0634 69.8844 47.0697 69.9347C46.9617 69.9693 46.8547 70.0343 46.7457 70.0353C45.9771 70.0437 45.2086 70.029 44.44 70.0437C44.0982 70.05 43.9829 69.9169 43.986 69.5793C43.9986 68.2522 43.9818 66.9241 44.0039 65.598C44.0059 65.4449 44.18 65.1671 44.2828 65.164C45.1991 65.1294 46.1187 65.1441 47.0361 65.1441C47.0508 65.1944 47.0655 65.2437 47.0802 65.294C46.9596 65.3433 46.839 65.4324 46.7174 65.4345C46.0883 65.4481 45.4592 65.4481 44.8311 65.4345C44.4799 65.4271 44.3184 65.5644 44.3215 65.925C44.3352 67.6201 44.159 67.3434 45.6699 67.3612C46.0883 67.3664 46.5056 67.3612 46.9239 67.3612L46.9334 67.5761H46.9344Z" fill="white"/>
<path d="M15.4688 65.1797C15.1438 66.1095 14.8208 67.0403 14.4937 67.9691C14.3029 68.5111 14.1278 69.0614 13.8971 69.5866C13.8164 69.7701 13.593 70.007 13.4347 70.0059C13.2701 70.0059 13.0237 69.7795 12.9545 69.5981C12.5152 68.4429 12.1146 67.2731 11.7015 66.1074C11.5977 65.8149 11.496 65.5214 11.3922 65.2289C11.4331 65.187 11.474 65.1451 11.5149 65.1031C11.6145 65.1954 11.7655 65.2688 11.8064 65.382C12.273 66.6766 12.7186 67.9775 13.181 69.2732C13.226 69.4 13.3435 69.5017 13.4274 69.6149C13.5196 69.4975 13.6517 69.3937 13.6979 69.2606C14.1267 68.0268 14.5335 66.7846 14.9676 65.5518C15.0305 65.3725 15.1993 65.23 15.3189 65.0696C15.3692 65.1052 15.4185 65.1419 15.4688 65.1776V65.1797Z" fill="white"/>
<path d="M36.5174 67.5719C36.5174 68.27 36.5279 68.9682 36.508 69.6663C36.5049 69.7837 36.3769 69.898 36.3056 70.0144C36.2522 69.9001 36.1547 69.7848 36.1536 69.6705C36.1442 68.2742 36.1452 66.8779 36.1578 65.4816C36.1578 65.3757 36.27 65.2709 36.3298 65.165C36.3916 65.2688 36.5059 65.3726 36.508 65.4774C36.5237 66.1756 36.5164 66.8737 36.5164 67.5719H36.5174Z" fill="white"/>
<path d="M57.6198 70.0375C57.6019 69.8928 57.5694 69.7471 57.5684 69.6024C57.5652 68.2229 57.5642 66.8423 57.5757 65.4628C57.5757 65.3496 57.668 65.2374 57.7173 65.1252C57.7844 65.2406 57.9091 65.3559 57.9102 65.4733C57.9238 66.8706 57.9217 68.268 57.9154 69.6653C57.9154 69.7964 57.8515 69.9284 57.8179 70.0595C57.7519 70.0521 57.6858 70.0448 57.6198 70.0385V70.0375Z" fill="white"/>
<path d="M16.532 67.5698C16.532 68.2669 16.5415 68.964 16.5236 69.66C16.5205 69.7827 16.4031 69.9032 16.3381 70.0238C16.2793 69.899 16.1713 69.7753 16.1703 69.6506C16.1588 68.2742 16.1609 66.8978 16.1734 65.5214C16.1745 65.3946 16.2772 65.2698 16.3328 65.144C16.3989 65.273 16.5184 65.3998 16.5226 65.5298C16.5415 66.2091 16.532 66.8884 16.532 67.5687H16.5341L16.532 67.5698Z" fill="white"/>
</svg>
