<svg width="174" height="15" viewBox="0 0 174 15" fill="none" xmlns="http://www.w3.org/2000/svg">
<path d="M40.1937 14.646C38.7574 14.646 37.3211 14.6219 35.8848 14.6563C35.2426 14.6735 34.9699 14.5151 34.9802 13.8059C35.0217 11.437 35.0251 9.06823 34.9802 6.70286C34.9664 5.94884 35.3013 5.77668 35.947 5.78013C38.2153 5.79046 40.4871 5.77324 42.7555 5.78013C43.3735 5.78013 43.8983 5.55289 44.0053 4.96068C44.0813 4.54407 43.9708 3.97253 43.7153 3.65233C43.5047 3.38721 42.9592 3.28392 42.5587 3.28048C40.3766 3.24605 38.1912 3.23916 36.0091 3.27704C35.2323 3.29081 34.9664 3.05324 34.9802 2.25101C35.0182 0.116325 34.9802 0.112882 37.1726 0.112882C39.182 0.112882 41.1949 0.0991093 43.2043 0.116325C46.6811 0.150755 48.6974 3.03602 47.5718 6.29314C47.4786 6.56514 47.5718 7.01962 47.7583 7.24342C48.9529 8.69983 49.3499 10.2836 48.5351 12.0224C47.7169 13.7714 46.2495 14.6046 44.3299 14.6391C42.9523 14.6632 41.5712 14.6425 40.1937 14.646V14.646ZM41.6748 11.4852C42.3066 11.4852 42.935 11.4852 43.5668 11.4852C43.5945 11.4852 43.6255 11.4852 43.6532 11.4852C44.6026 11.4646 45.1516 10.9929 45.1343 10.2113C45.1171 9.45385 44.5957 9.01314 43.6842 9.00626C42.5967 8.99937 41.5056 9.00626 40.4181 9.00626C38.6296 9.00626 38.6434 9.00626 38.7712 10.8242C38.8023 11.2855 38.9645 11.499 39.441 11.4887C40.1868 11.4749 40.9325 11.4852 41.6748 11.4852V11.4852Z" fill="white"/>
<path d="M107.122 14.6254C105.672 14.6254 104.395 14.6563 103.117 14.5978C102.893 14.5875 102.634 14.2397 102.479 13.9953C101.419 12.3323 100.369 10.6624 99.347 8.97533C99.0777 8.53117 98.7946 8.28328 98.2456 8.43821C98.0316 8.50019 97.7899 8.47264 97.5586 8.47953C96.0222 8.52429 96.0256 8.149 96.0291 9.99791C96.0291 11.2546 96.0084 12.5079 96.0394 13.7646C96.0567 14.405 95.8772 14.7045 95.1659 14.6598C94.2545 14.6013 93.3361 14.646 92.3624 14.646C92.3245 14.3637 92.2692 14.1502 92.2692 13.9333C92.2623 11.3373 92.2796 8.7412 92.2519 6.14515C92.245 5.55639 92.4349 5.32915 93.0322 5.33948C94.4098 5.36013 95.7909 5.34636 97.1684 5.33603C98.7221 5.32226 100.006 4.79203 100.959 3.3012C100.528 3.27709 100.231 3.24611 99.9305 3.24611C97.7174 3.24266 95.5077 3.22545 93.2946 3.25299C92.5558 3.25988 92.1587 3.08084 92.2519 2.24074C92.321 1.59345 92.2658 0.935827 92.2658 0.181801C92.6248 0.1577 92.9287 0.119827 93.2325 0.116384C96.9371 0.11294 100.642 0.137042 104.346 0.0957253C105.165 0.0853962 105.382 0.374612 105.375 1.12519C105.358 3.21168 104.619 4.98484 103.079 6.37927C102.527 6.87852 102.541 7.21938 102.92 7.79781C104.167 9.71558 105.355 11.6678 106.563 13.6097C106.736 13.8885 106.884 14.1846 107.126 14.6219L107.122 14.6254Z" fill="white"/>
<path d="M159.75 10.4453C160.827 10.4453 161.88 10.435 162.937 10.4556C163.078 10.4556 163.299 10.5864 163.348 10.7104C163.669 11.5333 164.349 11.5333 165.063 11.5195C166.127 11.5023 167.19 11.5264 168.254 11.5092C169.138 11.4954 169.683 11.0031 169.686 10.2559C169.69 9.50189 169.151 9.01298 168.267 8.99232C166.804 8.96133 165.329 9.04396 163.876 8.89247C161.245 8.62047 159.622 6.83698 159.664 4.45095C159.705 2.10279 161.466 0.315856 164.059 0.157476C165.806 0.050742 167.567 0.0679572 169.317 0.157476C171.371 0.260767 172.853 1.43829 173.374 3.19768C173.664 4.17895 173.529 4.3752 172.518 4.39242C171.972 4.40275 171.427 4.38897 170.881 4.39242C170.346 4.3993 169.901 4.34766 169.621 3.74857C169.504 3.49723 169.024 3.29409 168.699 3.28031C167.435 3.22867 166.172 3.239 164.905 3.2631C164.021 3.28031 163.465 3.78988 163.444 4.51981C163.423 5.27383 164 5.82472 164.925 5.85227C166.275 5.89014 167.629 5.85227 168.979 5.89014C171.599 5.96589 173.505 7.863 173.471 10.3317C173.436 12.7418 171.478 14.6045 168.913 14.6355C167.246 14.6561 165.578 14.663 163.914 14.6286C161.746 14.5838 159.871 12.9725 159.702 11.0513C159.688 10.8894 159.729 10.7207 159.753 10.4384L159.75 10.4453Z" fill="white"/>
<path d="M76.1524 6.91302C77.7751 9.52628 79.3011 11.9915 80.9411 14.6323C79.4703 14.6323 78.217 14.6667 76.9706 14.6013C76.7186 14.5876 76.4251 14.226 76.2525 13.9609C75.2064 12.322 74.174 10.6728 73.1728 9.00639C72.8828 8.52436 72.572 8.26958 71.9954 8.44173C71.8332 8.48993 71.6536 8.47271 71.481 8.4796C70.3555 8.51862 69.7927 9.08672 69.7927 10.1839C69.7927 11.4131 69.772 12.6388 69.7996 13.868C69.81 14.4602 69.5855 14.6874 68.9848 14.6564C68.239 14.6185 67.4898 14.6254 66.744 14.6564C66.2123 14.6771 66.0501 14.4567 66.0535 13.9506C66.0708 11.3236 66.0742 8.69651 66.0535 6.07291C66.0466 5.48071 66.3194 5.34299 66.8338 5.34643C68.2149 5.35332 69.5924 5.35332 70.9735 5.33955C72.5306 5.32578 73.8115 4.78866 74.7713 3.29782C74.3363 3.27717 74.0359 3.24962 73.7355 3.24962C71.4948 3.24618 69.2506 3.23241 67.0099 3.25306C66.3297 3.25995 66.0466 3.05681 66.0501 2.32C66.0604 0.116455 66.0294 0.116455 68.2597 0.116455C71.5086 0.116455 74.7541 0.116455 78.003 0.116455C79.1043 0.116455 79.1596 0.164658 79.132 1.2802C79.0905 3.02927 78.5036 4.57864 77.3262 5.88699C77.0052 6.24507 76.6012 6.53084 76.1593 6.91646L76.1524 6.91302Z" fill="white"/>
<path d="M116.489 14.646C112.518 14.6426 109.308 11.9364 108.879 8.23853C108.458 4.58202 110.944 1.22505 114.697 0.381507C119.952 -0.802899 124.651 3.13938 124.123 8.28673C123.746 11.9329 120.484 14.6495 116.485 14.646H116.489ZM120.494 7.42252C120.487 5.26718 118.63 3.31842 116.561 3.29432C114.417 3.27022 112.491 5.27062 112.518 7.49483C112.546 9.65706 114.4 11.5473 116.503 11.5611C118.626 11.5748 120.501 9.63296 120.494 7.42252V7.42252Z" fill="white"/>
<path d="M16.1567 8.85505C15.7907 12.3429 12.1172 14.8494 7.93609 14.6394C4.03466 14.4431 0.930783 11.1653 0.982572 7.2988C1.03781 3.42538 4.18658 0.257778 8.11908 0.120056C12.2864 -0.0279943 15.8874 2.56117 16.1878 6.04553C14.9966 6.04553 13.8159 6.06963 12.6351 6.01798C12.4728 6.0111 12.2967 5.67024 12.1724 5.45677C11.1712 3.73525 9.43452 2.91581 7.77382 3.39439C5.86109 3.94527 4.65613 5.66679 4.77352 7.68097C4.88055 9.51267 6.30302 11.1137 8.11563 11.4408C9.59679 11.7093 11.1436 10.9794 12.0309 9.50579C12.3209 9.02376 12.6351 8.82062 13.1909 8.84128C14.1611 8.87571 15.1313 8.85161 16.1567 8.85161V8.85505Z" fill="white"/>
<path d="M154.216 7.16764C154.247 6.68906 154.285 6.39296 154.285 6.09341C154.292 4.38222 154.309 2.67103 154.278 0.963284C154.267 0.340094 154.468 0.0784228 155.113 0.112853C155.828 0.150727 156.55 0.143841 157.264 0.112853C157.858 0.0887519 158.076 0.329765 158.072 0.915082C158.058 5.21888 158.072 9.52612 158.055 13.8299C158.055 14.0847 157.92 14.5461 157.813 14.5564C157.382 14.6012 156.926 14.5323 156.491 14.4497C156.349 14.4221 156.239 14.2293 156.114 14.1088C152.759 10.8276 149.413 7.53949 146.043 4.27549C145.598 3.84511 145.346 3.41473 145.401 2.78465C145.449 2.21999 145.377 1.64156 145.425 1.0769C145.453 0.746373 145.563 0.181714 145.719 0.15417C146.133 0.0749797 146.599 0.192043 147.024 0.309106C147.221 0.364195 147.366 0.601765 147.528 0.763588C149.517 2.70202 151.502 4.64045 153.491 6.572C153.667 6.74415 153.87 6.88531 154.209 7.1642L154.216 7.16764Z" fill="white"/>
<path d="M134.691 6.94392C134.691 6.47223 134.691 6.00053 134.691 5.52883C134.691 3.98979 134.712 2.44731 134.681 0.908272C134.67 0.312626 134.881 0.0853857 135.478 0.11293C136.224 0.14736 136.973 0.137031 137.719 0.116373C138.24 0.102601 138.437 0.340171 138.437 0.839412C138.43 5.20519 138.441 9.56752 138.427 13.9333C138.427 14.6529 137.602 14.9421 136.918 14.4807C136.777 14.3843 136.666 14.2501 136.542 14.1295C133.207 10.869 129.878 7.59466 126.526 4.35131C126.032 3.87273 125.78 3.3907 125.839 2.70554C125.887 2.14088 125.846 1.56589 125.849 0.994348C125.856 0.0750565 126.395 -0.245146 127.23 0.195563C127.475 0.326399 127.682 0.54331 127.886 0.743006C129.837 2.63668 131.788 4.53379 133.738 6.42747C133.959 6.64094 134.191 6.84063 134.418 7.04377C134.508 7.00934 134.598 6.97835 134.688 6.94392H134.691Z" fill="white"/>
<path d="M50.6204 14.6492V5.45623C50.9069 5.43213 51.2073 5.38393 51.5077 5.38393C55.0397 5.38049 58.5751 5.40459 62.1071 5.36672C62.9254 5.35639 63.1395 5.65249 63.1187 6.40996C63.0531 8.81664 63.4122 8.47234 60.9989 8.493C59.0758 8.51021 57.1492 8.52398 55.2261 8.48267C54.5321 8.46889 54.3215 8.72024 54.3319 9.37097C54.3733 11.9464 54.0522 11.485 56.4587 11.5125C58.7547 11.5401 61.0541 11.5401 63.3535 11.5091C64.1614 11.4988 64.4722 11.757 64.4307 12.604C64.3306 14.6457 64.3686 14.6457 62.2729 14.6457C58.7685 14.6457 55.2641 14.6457 51.7597 14.6457C51.4179 14.6457 51.0727 14.6457 50.6204 14.6457V14.6492Z" fill="white"/>
<path d="M18.0142 0.119936C19.5092 0.119936 20.7694 0.0751763 22.0227 0.150923C22.3507 0.171581 22.727 0.502113 22.9549 0.787886C23.8422 1.89999 24.6777 3.05341 25.6203 4.30323C25.8965 4.00024 26.1105 3.7971 26.2866 3.56298C26.9944 2.62991 27.716 1.70373 28.3823 0.739683C28.7138 0.257657 29.1108 0.0889484 29.6805 0.106164C30.7922 0.137151 31.9074 0.116493 33.2194 0.116493C32.9605 0.557202 32.812 0.873962 32.6083 1.15285C31.1237 3.14637 29.5976 5.11234 28.1579 7.1403C27.8092 7.63265 27.602 8.31782 27.571 8.92723C27.4916 10.5214 27.5226 12.1189 27.5537 13.7165C27.5675 14.3948 27.3742 14.7219 26.6284 14.6633C25.9448 14.6083 25.2508 14.6186 24.5638 14.6633C23.9492 14.7012 23.7731 14.4464 23.7835 13.8646C23.8111 12.1534 23.8284 10.4422 23.7697 8.73098C23.7524 8.23174 23.5729 7.66019 23.2794 7.25736C21.7948 5.19153 20.248 3.17391 18.722 1.13563C18.5217 0.867076 18.3387 0.588189 18.0107 0.123379L18.0142 0.119936Z" fill="white"/>
<path d="M140.056 7.3883C140.056 5.30526 140.094 3.22566 140.039 1.14262C140.015 0.292191 140.315 0.0339632 141.127 0.106267C141.752 0.164799 142.39 0.137254 143.019 0.113153C143.564 0.0924949 143.799 0.305963 143.799 0.860293C143.792 5.22263 143.792 9.58496 143.799 13.9473C143.799 14.4431 143.616 14.6772 143.088 14.6566C142.401 14.629 141.707 14.6049 141.023 14.6634C140.284 14.722 140.022 14.4982 140.043 13.7201C140.098 11.6129 140.06 9.49888 140.06 7.39174L140.056 7.3883Z" fill="white"/>
<path d="M57.4912 3.26346C55.5128 3.26346 53.5345 3.24625 51.5562 3.27379C50.8553 3.28412 50.5376 3.1223 50.5515 2.32696C50.5894 0.126853 50.5515 0.126853 52.7887 0.126853C56.2862 0.126853 59.7871 0.150954 63.2846 0.109638C64.1616 0.0993087 64.4343 0.391967 64.4136 1.2424C64.3584 3.59055 64.6035 3.2428 62.3973 3.26346C60.7642 3.28068 59.1277 3.26346 57.4946 3.26346H57.4912Z" fill="white"/>
<path d="M145.415 6.83032C145.895 6.9887 146.257 7.10232 146.613 7.23316C146.685 7.2607 146.73 7.36399 146.799 7.40531C149.458 8.96845 149.361 11.5025 149.147 14.0573C149.13 14.2673 148.76 14.5978 148.533 14.6185C147.707 14.6873 146.872 14.6357 146.043 14.6495C145.632 14.6564 145.408 14.5358 145.411 14.071C145.425 12.05 145.415 10.0289 145.415 8.00784C145.415 7.69797 145.415 7.38465 145.415 6.83032V6.83032Z" fill="white"/>
<path d="M129.619 12.1637C129.619 12.7042 129.595 13.2482 129.626 13.7888C129.661 14.3913 129.464 14.6943 128.801 14.6564C128.055 14.6151 127.306 14.6254 126.564 14.6564C126.053 14.6771 125.846 14.5049 125.849 13.9747C125.87 11.8366 125.863 9.69845 125.853 7.55688C125.853 6.88548 126.201 6.6548 126.688 7.06452C127.669 7.89085 128.684 8.73095 129.44 9.74321C129.795 10.2218 129.581 11.1135 129.623 11.8194C129.63 11.933 129.623 12.0466 129.623 12.1602L129.619 12.1637Z" fill="white"/>
</svg>
