<svg width="69" height="68" viewBox="0 0 69 68" fill="none" xmlns="http://www.w3.org/2000/svg">
<path d="M29.1504 11.3287C29.1504 13.0624 29.1402 14.7995 29.1572 16.5333C29.1606 16.9675 29.0685 17.1898 28.5974 17.3574C26.5253 18.0994 24.6716 19.2347 23.0262 20.6949C21.5003 22.049 20.227 23.6186 19.2609 25.4207C17.4073 28.8813 16.7451 32.5573 17.3186 36.4624C17.8306 39.964 19.2917 43.0108 21.6335 45.6336C23.5895 47.8256 25.9688 49.4156 28.7339 50.4141C29.0412 50.5236 29.1538 50.6843 29.1538 51.0023C29.147 54.5586 29.1538 58.1116 29.147 61.6679C29.147 62.1466 29.0958 62.215 28.6247 62.0953C27.5016 61.8081 26.3785 61.5208 25.2759 61.1618C22.6234 60.2932 20.169 59.0041 17.9023 57.3866C15.1782 55.4375 12.8432 53.0848 10.9247 50.3252C9.57631 48.3864 8.47028 46.3175 7.63392 44.1085C6.91022 42.1936 6.37427 40.2239 6.0807 38.1927C5.63009 35.1014 5.64716 32.0204 6.16945 28.936C6.92729 24.4769 8.64438 20.4281 11.3071 16.7863C14.1199 12.9393 17.6736 9.96089 21.9543 7.85445C24.1357 6.78071 26.4229 6.01473 28.7954 5.5018C29.0139 5.45392 29.1231 5.53257 29.1368 5.74801C29.1436 5.87453 29.1436 6.00447 29.1436 6.131C29.1436 7.86471 29.1436 9.60184 29.1436 11.3355L29.1504 11.3287Z" fill="white"/>
<path d="M51.3154 39.6563C51.114 39.646 50.9365 39.6289 50.759 39.6289C45.5907 39.6289 40.4223 39.6289 35.254 39.6289C34.8649 39.6289 34.6703 39.4352 34.6703 39.0476C34.6703 35.6212 34.6771 32.1914 34.66 28.765C34.66 28.3239 34.7898 28.2145 35.2165 28.2213C36.7492 28.2453 38.282 28.2316 39.8181 28.2316C47.3555 28.2179 54.8964 28.2042 62.4338 28.1906C63.0551 28.1906 63.0619 28.1906 63.1678 28.7992C63.7481 32.1504 63.7515 35.505 63.1643 38.8561C62.5123 42.5766 61.1776 46.0406 59.1601 49.2242C57.4396 51.9427 55.3606 54.3706 52.7867 56.3198C51.4963 57.2978 50.1514 58.2176 48.7654 59.0554C47.1883 60.006 45.5019 60.7549 43.7268 61.2644C42.4091 61.644 41.088 62.0475 39.7396 62.2698C38.2205 62.5228 36.6673 62.5844 35.1311 62.7314C34.7727 62.7656 34.6703 62.6117 34.6703 62.2629C34.6805 58.8229 34.6805 55.3794 34.6703 51.9393C34.6703 51.57 34.7727 51.4537 35.1482 51.4435C39.2378 51.3341 42.8734 49.9799 46.0208 47.3571C48.4411 45.3396 50.1957 42.8399 51.2745 39.8717C51.2915 39.8204 51.2984 39.7657 51.3223 39.6563H51.3154Z" fill="white"/>
<path d="M54.3743 22.6612C53.7804 22.6612 53.2854 22.6612 52.7904 22.6612C51.442 22.6612 50.0936 22.6543 48.7452 22.668C48.4516 22.668 48.2399 22.5893 48.0454 22.3637C46.0791 20.076 43.669 18.4141 40.8561 17.3472C38.9991 16.6427 37.0567 16.3213 35.0768 16.2427C34.7559 16.229 34.6671 16.1264 34.6671 15.8186C34.6739 12.3068 34.6705 8.79488 34.6739 5.283C34.6739 5.18384 34.6876 5.08809 34.7013 4.95473C34.8344 4.94105 34.9539 4.92053 35.0733 4.92053C37.3537 4.93079 39.5897 5.24539 41.8017 5.79936C45.8572 6.81496 49.5064 8.64784 52.7631 11.257C55.4701 13.4284 57.7539 15.9794 59.4881 19.0022C60.0854 20.0452 60.6146 21.1258 61.1642 22.1961C61.3588 22.5722 61.2905 22.6612 60.8604 22.6612C59.4266 22.6612 57.9929 22.6577 56.5591 22.668C56.2826 22.668 56.1119 22.5825 55.9856 22.3329C54.8284 20.0555 53.2342 18.12 51.3498 16.4205C51.104 16.1982 51.0153 15.9965 51.0904 15.6511C51.3123 14.6252 50.7627 13.5344 49.8478 13.083C48.8646 12.5974 47.6289 12.8505 46.9496 13.6746C46.2566 14.5158 46.1951 15.7126 46.796 16.5641C47.4446 17.4771 48.6154 17.8669 49.6191 17.4292C49.9809 17.2719 50.196 17.3506 50.4486 17.5729C51.9609 18.9202 53.2444 20.4521 54.2207 22.2337C54.2788 22.3397 54.3061 22.4594 54.3778 22.6646L54.3743 22.6612Z" fill="white"/>
<path d="M34.8718 0C46.7924 0.444541 56.3029 5.37553 62.963 15.3264C70.7838 27.0076 70.1079 41.8348 62.9255 52.6474C55.4904 63.8361 43.348 68.0422 34.8274 67.7173V65.7203C34.9469 65.7066 35.039 65.6895 35.1346 65.6827C36.7868 65.5357 38.4493 65.4707 40.0845 65.2211C42.1156 64.9133 44.0956 64.3491 46.0175 63.607C48.5095 62.6461 50.8512 61.4048 53.0292 59.8558C55.1115 58.3751 56.9959 56.6688 58.6652 54.7333C60.3208 52.8184 61.7341 50.7427 62.8913 48.4892C64.0486 46.2357 64.9225 43.8797 65.5233 41.4142C66.3426 38.0664 66.5781 34.6776 66.305 31.2581C66.1104 28.8165 65.6223 26.4297 64.861 24.0941C63.7823 20.7909 62.2086 17.7543 60.1433 14.9674C57.9688 12.03 55.3505 9.5508 52.3225 7.51617C50.0354 5.97737 47.5843 4.76343 44.9729 3.87777C41.8937 2.83139 38.7258 2.2569 35.4692 2.20219C34.7079 2.18851 34.7967 2.23639 34.7933 1.49092C34.7933 1.07716 34.7933 0.666812 34.8001 0.253047C34.8001 0.212012 34.8206 0.170977 34.8649 0L34.8718 0Z" fill="white"/>
<path d="M0.840698 33.9284C0.936282 30.6354 1.38689 27.4142 2.32907 24.2579C3.29173 21.0401 4.69134 18.0412 6.53815 15.2406C8.66146 12.0194 11.2661 9.24953 14.3316 6.92082C16.9123 4.958 19.715 3.39527 22.7566 2.25656C24.7126 1.52477 26.7028 0.943451 28.7647 0.591237C29.0583 0.539944 29.1675 0.608335 29.1675 0.888738C29.1675 1.37089 29.1914 1.85647 29.1504 2.33863C29.1368 2.47541 28.949 2.68742 28.8125 2.71478C26.1669 3.25165 23.6066 4.05866 21.1692 5.22473C18.3973 6.55151 15.8609 8.23735 13.5772 10.2993C11.5187 12.1562 9.72995 14.2387 8.20744 16.5605C6.68493 18.8858 5.49014 21.3684 4.62307 24.0083C3.35317 27.8724 2.84795 31.8459 3.09373 35.9015C3.22004 37.9874 3.57506 40.0426 4.1076 42.0738C4.94395 45.2745 6.25822 48.2563 8.03334 51.033C9.94501 54.0285 12.3039 56.6308 15.0963 58.8364C17.1479 60.4573 19.3566 61.8148 21.7393 62.8886C23.6544 63.7503 25.6309 64.4342 27.6894 64.8685C28.0649 64.9471 28.4336 65.0361 28.8091 65.1113C29.0583 65.1592 29.1777 65.2857 29.1743 65.5456C29.1675 66.014 29.1675 66.4825 29.1743 66.9544C29.1777 67.228 29.0856 67.3613 28.792 67.2895C27.2149 66.886 25.6104 66.5748 24.0709 66.0551C22.4698 65.5148 20.903 64.8446 19.377 64.1094C17.5678 63.2374 15.8848 62.1363 14.2872 60.9121C12.5087 59.5511 10.8667 58.0328 9.38858 56.347C7.5998 54.3055 6.06364 52.0931 4.80399 49.6857C3.85499 47.8699 3.0596 45.996 2.45537 44.0434C1.89894 42.2379 1.43468 40.4085 1.24693 38.5209C1.09331 36.9958 0.973832 35.4638 0.840698 33.9387L0.840698 33.9284Z" fill="white"/>
<path d="M49.8341 15.1383C49.8341 15.7778 49.3015 16.3044 48.67 16.2941C48.0385 16.2838 47.5401 15.7846 47.5298 15.1588C47.5196 14.4988 48.0111 13.9996 48.6734 13.9893C49.322 13.9825 49.8375 14.492 49.8341 15.1383Z" fill="white"/>
</svg>
